%TF.GenerationSoftware,KiCad,Pcbnew,10.0.6*%
%TF.CreationDate,2026-09-13T20:17:26-06:00*%
%TF.ProjectId,BOOMbox,424f4f4d-626f-4782-9e6b-696361645f70,rev?*%
%TF.SameCoordinates,Original*%
%TF.FileFunction,Soldermask,Bot*%
%TF.FilePolarity,Negative*%
%FSLAX46Y46*%
G04 Gerber Fmt 4.6, Leading zero omitted, Abs format (unit mm)*
G04 Created by KiCad (PCBNEW 10.0.6) date 2026-09-13 20:17:26*
%MOMM*%
%LPD*%
G01*
G04 APERTURE LIST*
G04 Aperture macros list*
%AMRoundRect*
0 Rectangle with rounded corners*
0 $1 Rounding radius*
0 $2 $3 $4 $5 $6 $7 $8 $9 X,Y pos of 4 corners*
0 Add a 4 corners polygon primitive as box body*
4,1,4,$2,$3,$4,$5,$6,$7,$8,$9,$2,$3,0*
0 Add four circle primitives for the rounded corners*
1,1,$1+$1,$2,$3*
1,1,$1+$1,$4,$5*
1,1,$1+$1,$6,$7*
1,1,$1+$1,$8,$9*
0 Add four rect primitives between the rounded corners*
20,1,$1+$1,$2,$3,$4,$5,0*
20,1,$1+$1,$4,$5,$6,$7,0*
20,1,$1+$1,$6,$7,$8,$9,0*
20,1,$1+$1,$8,$9,$2,$3,0*%
G04 Aperture macros list end*
%ADD10RoundRect,0.250000X-0.550000X-0.550000X0.550000X-0.550000X0.550000X0.550000X-0.550000X0.550000X0*%
%ADD11C,1.600000*%
%ADD12C,2.700000*%
%ADD13RoundRect,0.250000X0.550000X-0.550000X0.550000X0.550000X-0.550000X0.550000X-0.550000X-0.550000X0*%
%ADD14C,1.524000*%
%ADD15R,1.700000X1.700000*%
%ADD16C,1.700000*%
%ADD17RoundRect,0.250000X0.550000X0.550000X-0.550000X0.550000X-0.550000X-0.550000X0.550000X-0.550000X0*%
%ADD18C,1.200000*%
%ADD19O,1.800000X1.200000*%
G04 APERTURE END LIST*
D10*
%TO.C,U3*%
X155380000Y-115000000D03*
D11*
X155380000Y-117540000D03*
X155380000Y-120080000D03*
X155380000Y-122620000D03*
X163000000Y-122620000D03*
X163000000Y-120080000D03*
X163000000Y-117540000D03*
X163000000Y-115000000D03*
%TD*%
D12*
%TO.C,H4*%
X204000000Y-102000000D03*
%TD*%
D10*
%TO.C,C1*%
X168500000Y-123000000D03*
D11*
X171000000Y-123000000D03*
%TD*%
D13*
%TO.C,C4*%
X155000000Y-110500000D03*
D11*
X155000000Y-108000000D03*
%TD*%
D13*
%TO.C,C5*%
X163000000Y-110500000D03*
D11*
X163000000Y-108000000D03*
%TD*%
D14*
%TO.C,U1*%
X127000000Y-124240000D03*
X129540000Y-124240000D03*
X132080000Y-124240000D03*
X134620000Y-124240000D03*
X137160000Y-124240000D03*
X139700000Y-124240000D03*
X142240000Y-124240000D03*
X142240000Y-109000000D03*
X139700000Y-109000000D03*
X137160000Y-109000000D03*
X134620000Y-109000000D03*
X132080000Y-109000000D03*
X129540000Y-109000000D03*
X127000000Y-109000000D03*
%TD*%
D15*
%TO.C,RV2*%
X192540000Y-101000000D03*
D16*
X190000000Y-101000000D03*
X187460000Y-101000000D03*
%TD*%
D15*
%TO.C,SW1*%
X142000000Y-101000000D03*
D16*
X139460000Y-101000000D03*
%TD*%
D17*
%TO.C,C3*%
X151000000Y-118000000D03*
D11*
X148500000Y-118000000D03*
%TD*%
D15*
%TO.C,J1*%
X152000000Y-101000000D03*
D16*
X149460000Y-101000000D03*
%TD*%
D11*
%TO.C,R2*%
X174920000Y-105000000D03*
X182540000Y-105000000D03*
%TD*%
D12*
%TO.C,H3*%
X204000000Y-132000000D03*
%TD*%
D10*
%TO.C,C2*%
X168500000Y-115000000D03*
D11*
X171000000Y-115000000D03*
%TD*%
D12*
%TO.C,H2*%
X129000000Y-132000000D03*
%TD*%
D15*
%TO.C,RV1*%
X181540000Y-101000000D03*
D16*
X179000000Y-101000000D03*
X176460000Y-101000000D03*
%TD*%
D18*
%TO.C,CN1*%
X203500000Y-117000000D03*
X197500000Y-117000000D03*
D19*
X201500000Y-119400000D03*
X203500000Y-114600000D03*
X196500000Y-114600000D03*
%TD*%
D15*
%TO.C,J2*%
X161000000Y-101000000D03*
D16*
X158460000Y-101000000D03*
%TD*%
D12*
%TO.C,H1*%
X129000000Y-102000000D03*
%TD*%
D11*
%TO.C,R1*%
X187380000Y-105000000D03*
X195000000Y-105000000D03*
%TD*%
M02*
