%TF.GenerationSoftware,KiCad,Pcbnew,10.0.6*%
%TF.CreationDate,2026-09-13T20:17:25-06:00*%
%TF.ProjectId,BOOMbox,424f4f4d-626f-4782-9e6b-696361645f70,rev?*%
%TF.SameCoordinates,Original*%
%TF.FileFunction,Copper,L2,Bot*%
%TF.FilePolarity,Positive*%
%FSLAX46Y46*%
G04 Gerber Fmt 4.6, Leading zero omitted, Abs format (unit mm)*
G04 Created by KiCad (PCBNEW 10.0.6) date 2026-09-13 20:17:25*
%MOMM*%
%LPD*%
G01*
G04 APERTURE LIST*
G04 Aperture macros list*
%AMRoundRect*
0 Rectangle with rounded corners*
0 $1 Rounding radius*
0 $2 $3 $4 $5 $6 $7 $8 $9 X,Y pos of 4 corners*
0 Add a 4 corners polygon primitive as box body*
4,1,4,$2,$3,$4,$5,$6,$7,$8,$9,$2,$3,0*
0 Add four circle primitives for the rounded corners*
1,1,$1+$1,$2,$3*
1,1,$1+$1,$4,$5*
1,1,$1+$1,$6,$7*
1,1,$1+$1,$8,$9*
0 Add four rect primitives between the rounded corners*
20,1,$1+$1,$2,$3,$4,$5,0*
20,1,$1+$1,$4,$5,$6,$7,0*
20,1,$1+$1,$6,$7,$8,$9,0*
20,1,$1+$1,$8,$9,$2,$3,0*%
G04 Aperture macros list end*
%TA.AperFunction,ComponentPad*%
%ADD10RoundRect,0.250000X-0.550000X-0.550000X0.550000X-0.550000X0.550000X0.550000X-0.550000X0.550000X0*%
%TD*%
%TA.AperFunction,ComponentPad*%
%ADD11C,1.600000*%
%TD*%
%TA.AperFunction,ComponentPad*%
%ADD12RoundRect,0.250000X0.550000X-0.550000X0.550000X0.550000X-0.550000X0.550000X-0.550000X-0.550000X0*%
%TD*%
%TA.AperFunction,ComponentPad*%
%ADD13C,1.524000*%
%TD*%
%TA.AperFunction,ComponentPad*%
%ADD14R,1.700000X1.700000*%
%TD*%
%TA.AperFunction,ComponentPad*%
%ADD15C,1.700000*%
%TD*%
%TA.AperFunction,ComponentPad*%
%ADD16RoundRect,0.250000X0.550000X0.550000X-0.550000X0.550000X-0.550000X-0.550000X0.550000X-0.550000X0*%
%TD*%
%TA.AperFunction,ComponentPad*%
%ADD17C,1.200000*%
%TD*%
%TA.AperFunction,ComponentPad*%
%ADD18O,1.800000X1.200000*%
%TD*%
%TA.AperFunction,ViaPad*%
%ADD19C,0.600000*%
%TD*%
%TA.AperFunction,Conductor*%
%ADD20C,0.200000*%
%TD*%
G04 APERTURE END LIST*
D10*
%TO.P,U3,1,OUT1_1*%
%TO.N,Net-(U3-OUT1)*%
X155380000Y-115000000D03*
D11*
%TO.P,U3,2,VCC_2*%
%TO.N,+3.3V*%
X155380000Y-117540000D03*
%TO.P,U3,3,OUT2_3*%
%TO.N,Net-(U3-OUT2)*%
X155380000Y-120080000D03*
%TO.P,U3,4,GND_4*%
%TO.N,GND*%
X155380000Y-122620000D03*
%TO.P,U3,5,NF2_5*%
%TO.N,Net-(U3-NF2)*%
X163000000Y-122620000D03*
%TO.P,U3,6,IN2_6*%
%TO.N,Net-(U3-IN2)*%
X163000000Y-120080000D03*
%TO.P,U3,7,IN1_7*%
%TO.N,Net-(U3-IN1)*%
X163000000Y-117540000D03*
%TO.P,U3,8,NF1_8*%
%TO.N,Net-(U3-NF1)*%
X163000000Y-115000000D03*
%TD*%
D10*
%TO.P,C1,1*%
%TO.N,Net-(U3-NF2)*%
X168500000Y-123000000D03*
D11*
%TO.P,C1,2*%
%TO.N,GND*%
X171000000Y-123000000D03*
%TD*%
D12*
%TO.P,C4,1*%
%TO.N,Net-(U3-OUT1)*%
X155000000Y-110500000D03*
D11*
%TO.P,C4,2*%
%TO.N,/R_AMP_OUT*%
X155000000Y-108000000D03*
%TD*%
D12*
%TO.P,C5,1*%
%TO.N,Net-(U3-OUT2)*%
X163000000Y-110500000D03*
D11*
%TO.P,C5,2*%
%TO.N,/L_AMP_OUT*%
X163000000Y-108000000D03*
%TD*%
D13*
%TO.P,U1,1,P26_A0_D0_1*%
%TO.N,unconnected-(U1-P26_A0_D0-Pad1)*%
X127000000Y-124240000D03*
%TO.P,U1,2,P27_A1_D1_2*%
%TO.N,unconnected-(U1-P27_A1_D1-Pad2)*%
X129540000Y-124240000D03*
%TO.P,U1,3,P28_A2_D2_3*%
%TO.N,unconnected-(U1-P28_A2_D2-Pad3)*%
X132080000Y-124240000D03*
%TO.P,U1,4,P29_A3_D3_4*%
%TO.N,unconnected-(U1-P29_A3_D3-Pad4)*%
X134620000Y-124240000D03*
%TO.P,U1,5,P6_SDA_D4_5*%
%TO.N,/SDA*%
X137160000Y-124240000D03*
%TO.P,U1,6,P7_SCL_D5_6*%
%TO.N,/SCL*%
X139700000Y-124240000D03*
%TO.P,U1,7,P0_D6_TX_7*%
%TO.N,unconnected-(U1-P0_D6_TX-Pad7)*%
X142240000Y-124240000D03*
%TO.P,U1,8,P1_D7_RX_8*%
%TO.N,Net-(U1-P1_D7_RX)*%
X142240000Y-109000000D03*
%TO.P,U1,9,P2_D8_SCK_9*%
%TO.N,unconnected-(U1-P2_D8_SCK-Pad9)*%
X139700000Y-109000000D03*
%TO.P,U1,10,P4_D9_MISO_10*%
%TO.N,unconnected-(U1-P4_D9_MISO-Pad10)*%
X137160000Y-109000000D03*
%TO.P,U1,11,P3_D10_MOSI_11*%
%TO.N,unconnected-(U1-P3_D10_MOSI-Pad11)*%
X134620000Y-109000000D03*
%TO.P,U1,12,3V3_12*%
%TO.N,+3.3V*%
X132080000Y-109000000D03*
%TO.P,U1,13,GND_13*%
%TO.N,GND*%
X129540000Y-109000000D03*
%TO.P,U1,14,VBUS_14*%
%TO.N,unconnected-(U1-VBUS-Pad14)*%
X127000000Y-109000000D03*
%TD*%
D14*
%TO.P,RV2,1,1_1*%
%TO.N,/L_OUT*%
X192540000Y-101000000D03*
D15*
%TO.P,RV2,2,2_2*%
%TO.N,Net-(U3-IN2)*%
X190000000Y-101000000D03*
%TO.P,RV2,3,3_3*%
%TO.N,GND*%
X187460000Y-101000000D03*
%TD*%
D14*
%TO.P,SW1,1,1_1*%
%TO.N,Net-(U1-P1_D7_RX)*%
X142000000Y-101000000D03*
D15*
%TO.P,SW1,2,2_2*%
%TO.N,GND*%
X139460000Y-101000000D03*
%TD*%
D16*
%TO.P,C3,1*%
%TO.N,+3.3V*%
X151000000Y-118000000D03*
D11*
%TO.P,C3,2*%
%TO.N,GND*%
X148500000Y-118000000D03*
%TD*%
D14*
%TO.P,J1,1,Pin_1_1*%
%TO.N,/R_AMP_OUT*%
X152000000Y-101000000D03*
D15*
%TO.P,J1,2,Pin_2_2*%
%TO.N,GND*%
X149460000Y-101000000D03*
%TD*%
D11*
%TO.P,R2,1*%
%TO.N,Net-(U3-IN1)*%
X174920000Y-105000000D03*
%TO.P,R2,2*%
%TO.N,GND*%
X182540000Y-105000000D03*
%TD*%
D10*
%TO.P,C2,1*%
%TO.N,Net-(U3-NF1)*%
X168500000Y-115000000D03*
D11*
%TO.P,C2,2*%
%TO.N,GND*%
X171000000Y-115000000D03*
%TD*%
D14*
%TO.P,RV1,1,1_1*%
%TO.N,/R_OUT*%
X181540000Y-101000000D03*
D15*
%TO.P,RV1,2,2_2*%
%TO.N,Net-(U3-IN1)*%
X179000000Y-101000000D03*
%TO.P,RV1,3,3_3*%
%TO.N,GND*%
X176460000Y-101000000D03*
%TD*%
D17*
%TO.P,CN1,*%
%TO.N,*%
X203500000Y-117000000D03*
X197500000Y-117000000D03*
D18*
%TO.P,CN1,2,2_2*%
%TO.N,unconnected-(CN1-Pad2)*%
X201500000Y-119400000D03*
%TO.P,CN1,3,3_3*%
%TO.N,GND*%
X203500000Y-114600000D03*
%TO.P,CN1,4,4_4*%
%TO.N,Net-(U2-ANT)*%
X196500000Y-114600000D03*
%TD*%
D14*
%TO.P,J2,1,Pin_1_1*%
%TO.N,/L_AMP_OUT*%
X161000000Y-101000000D03*
D15*
%TO.P,J2,2,Pin_2_2*%
%TO.N,GND*%
X158460000Y-101000000D03*
%TD*%
D11*
%TO.P,R1,1*%
%TO.N,Net-(U3-IN2)*%
X187380000Y-105000000D03*
%TO.P,R1,2*%
%TO.N,GND*%
X195000000Y-105000000D03*
%TD*%
D19*
%TO.N,+3.3V*%
X181000000Y-122000000D03*
%TO.N,GND*%
X181000000Y-118000000D03*
X193000000Y-122000000D03*
X193000000Y-116000000D03*
%TO.N,/R_OUT*%
X188000000Y-118000000D03*
%TD*%
%TO.N,+3.3V*%
D20*
X181000000Y-122000000D02*
X181000000Y-123000000D01*
X151000000Y-122000000D02*
X151000000Y-118000000D01*
X181000000Y-123000000D02*
X179000000Y-125000000D01*
X179000000Y-125000000D02*
X154000000Y-125000000D01*
X154000000Y-125000000D02*
X151000000Y-122000000D01*
%TO.N,/R_OUT*%
X188000000Y-118000000D02*
X188000000Y-107460000D01*
X188000000Y-107460000D02*
X181540000Y-101000000D01*
%TD*%
%TA.AperFunction,Conductor*%
%TO.N,GND*%
G36*
X170600000Y-123052661D02*
G01*
X170627259Y-123154394D01*
X170679920Y-123245606D01*
X170754394Y-123320080D01*
X170845606Y-123372741D01*
X170947339Y-123400000D01*
X170953553Y-123400000D01*
X170274076Y-124079474D01*
X170318650Y-124111859D01*
X170422974Y-124165015D01*
X170473770Y-124212989D01*
X170490565Y-124280810D01*
X170468028Y-124346945D01*
X170413313Y-124390397D01*
X170366679Y-124399500D01*
X169539574Y-124399500D01*
X169472535Y-124379815D01*
X169426780Y-124327011D01*
X169416836Y-124257853D01*
X169445861Y-124194297D01*
X169474478Y-124169961D01*
X169482497Y-124165015D01*
X169518656Y-124142712D01*
X169642712Y-124018656D01*
X169734814Y-123869334D01*
X169755284Y-123807559D01*
X169795055Y-123750116D01*
X169859571Y-123723292D01*
X169882719Y-123722946D01*
X169920525Y-123725921D01*
X170600000Y-123046446D01*
X170600000Y-123052661D01*
G37*
%TD.AperFunction*%
%TA.AperFunction,Conductor*%
G36*
X206004418Y-98500816D02*
G01*
X206204561Y-98515130D01*
X206222063Y-98517647D01*
X206413795Y-98559355D01*
X206430760Y-98564336D01*
X206614611Y-98632909D01*
X206630694Y-98640253D01*
X206747495Y-98704032D01*
X206802908Y-98734290D01*
X206817791Y-98743855D01*
X206974864Y-98861438D01*
X206988235Y-98873024D01*
X207126975Y-99011764D01*
X207138561Y-99025135D01*
X207256144Y-99182208D01*
X207265709Y-99197091D01*
X207359743Y-99369300D01*
X207367093Y-99385394D01*
X207435661Y-99569234D01*
X207440645Y-99586209D01*
X207482351Y-99777931D01*
X207484869Y-99795442D01*
X207494003Y-99923141D01*
X207497346Y-99969890D01*
X207499184Y-99995580D01*
X207499500Y-100004427D01*
X207499500Y-134995572D01*
X207499184Y-135004419D01*
X207484869Y-135204557D01*
X207482351Y-135222068D01*
X207440645Y-135413790D01*
X207435661Y-135430765D01*
X207367093Y-135614605D01*
X207359743Y-135630699D01*
X207265709Y-135802908D01*
X207256144Y-135817791D01*
X207138561Y-135974864D01*
X207126975Y-135988235D01*
X206988235Y-136126975D01*
X206974864Y-136138561D01*
X206817791Y-136256144D01*
X206802908Y-136265709D01*
X206630699Y-136359743D01*
X206614605Y-136367093D01*
X206430765Y-136435661D01*
X206413790Y-136440645D01*
X206222068Y-136482351D01*
X206204557Y-136484869D01*
X206023779Y-136497799D01*
X206004417Y-136499184D01*
X205995572Y-136499500D01*
X126004428Y-136499500D01*
X125995582Y-136499184D01*
X125973622Y-136497613D01*
X125795442Y-136484869D01*
X125777931Y-136482351D01*
X125586209Y-136440645D01*
X125569234Y-136435661D01*
X125385394Y-136367093D01*
X125369300Y-136359743D01*
X125197091Y-136265709D01*
X125182208Y-136256144D01*
X125025135Y-136138561D01*
X125011764Y-136126975D01*
X124873024Y-135988235D01*
X124861438Y-135974864D01*
X124743855Y-135817791D01*
X124734290Y-135802908D01*
X124640256Y-135630699D01*
X124632909Y-135614611D01*
X124564336Y-135430760D01*
X124559354Y-135413790D01*
X124517648Y-135222068D01*
X124515130Y-135204556D01*
X124500816Y-135004418D01*
X124500500Y-134995572D01*
X124500500Y-131874038D01*
X127399500Y-131874038D01*
X127399500Y-132125961D01*
X127438910Y-132374785D01*
X127516760Y-132614383D01*
X127631132Y-132838848D01*
X127779201Y-133042649D01*
X127779205Y-133042654D01*
X127957345Y-133220794D01*
X127957350Y-133220798D01*
X128135117Y-133349952D01*
X128161155Y-133368870D01*
X128304184Y-133441747D01*
X128385616Y-133483239D01*
X128385618Y-133483239D01*
X128385621Y-133483241D01*
X128625215Y-133561090D01*
X128874038Y-133600500D01*
X128874039Y-133600500D01*
X129125961Y-133600500D01*
X129125962Y-133600500D01*
X129374785Y-133561090D01*
X129614379Y-133483241D01*
X129838845Y-133368870D01*
X130042656Y-133220793D01*
X130220793Y-133042656D01*
X130368870Y-132838845D01*
X130483241Y-132614379D01*
X130561090Y-132374785D01*
X130600500Y-132125962D01*
X130600500Y-131874038D01*
X202399500Y-131874038D01*
X202399500Y-132125961D01*
X202438910Y-132374785D01*
X202516760Y-132614383D01*
X202631132Y-132838848D01*
X202779201Y-133042649D01*
X202779205Y-133042654D01*
X202957345Y-133220794D01*
X202957350Y-133220798D01*
X203135117Y-133349952D01*
X203161155Y-133368870D01*
X203304184Y-133441747D01*
X203385616Y-133483239D01*
X203385618Y-133483239D01*
X203385621Y-133483241D01*
X203625215Y-133561090D01*
X203874038Y-133600500D01*
X203874039Y-133600500D01*
X204125961Y-133600500D01*
X204125962Y-133600500D01*
X204374785Y-133561090D01*
X204614379Y-133483241D01*
X204838845Y-133368870D01*
X205042656Y-133220793D01*
X205220793Y-133042656D01*
X205368870Y-132838845D01*
X205483241Y-132614379D01*
X205561090Y-132374785D01*
X205600500Y-132125962D01*
X205600500Y-131874038D01*
X205561090Y-131625215D01*
X205483241Y-131385621D01*
X205483239Y-131385618D01*
X205483239Y-131385616D01*
X205441747Y-131304184D01*
X205368870Y-131161155D01*
X205349952Y-131135117D01*
X205220798Y-130957350D01*
X205220794Y-130957345D01*
X205042654Y-130779205D01*
X205042649Y-130779201D01*
X204838848Y-130631132D01*
X204838847Y-130631131D01*
X204838845Y-130631130D01*
X204768747Y-130595413D01*
X204614383Y-130516760D01*
X204374785Y-130438910D01*
X204125962Y-130399500D01*
X203874038Y-130399500D01*
X203749626Y-130419205D01*
X203625214Y-130438910D01*
X203385616Y-130516760D01*
X203161151Y-130631132D01*
X202957350Y-130779201D01*
X202957345Y-130779205D01*
X202779205Y-130957345D01*
X202779201Y-130957350D01*
X202631132Y-131161151D01*
X202516760Y-131385616D01*
X202438910Y-131625214D01*
X202399500Y-131874038D01*
X130600500Y-131874038D01*
X130561090Y-131625215D01*
X130483241Y-131385621D01*
X130483239Y-131385618D01*
X130483239Y-131385616D01*
X130441747Y-131304184D01*
X130368870Y-131161155D01*
X130349952Y-131135117D01*
X130220798Y-130957350D01*
X130220794Y-130957345D01*
X130042654Y-130779205D01*
X130042649Y-130779201D01*
X129838848Y-130631132D01*
X129838847Y-130631131D01*
X129838845Y-130631130D01*
X129768747Y-130595413D01*
X129614383Y-130516760D01*
X129374785Y-130438910D01*
X129125962Y-130399500D01*
X128874038Y-130399500D01*
X128749626Y-130419205D01*
X128625214Y-130438910D01*
X128385616Y-130516760D01*
X128161151Y-130631132D01*
X127957350Y-130779201D01*
X127957345Y-130779205D01*
X127779205Y-130957345D01*
X127779201Y-130957350D01*
X127631132Y-131161151D01*
X127516760Y-131385616D01*
X127438910Y-131625214D01*
X127399500Y-131874038D01*
X124500500Y-131874038D01*
X124500500Y-124140639D01*
X125737500Y-124140639D01*
X125737500Y-124339360D01*
X125768587Y-124535637D01*
X125829993Y-124724629D01*
X125829994Y-124724632D01*
X125920213Y-124901694D01*
X126037019Y-125062464D01*
X126177536Y-125202981D01*
X126338306Y-125319787D01*
X126414286Y-125358501D01*
X126515367Y-125410005D01*
X126515370Y-125410006D01*
X126609866Y-125440709D01*
X126704364Y-125471413D01*
X126900639Y-125502500D01*
X126900640Y-125502500D01*
X127099360Y-125502500D01*
X127099361Y-125502500D01*
X127295636Y-125471413D01*
X127484632Y-125410005D01*
X127661694Y-125319787D01*
X127822464Y-125202981D01*
X127962981Y-125062464D01*
X128079787Y-124901694D01*
X128159515Y-124745218D01*
X128207490Y-124694423D01*
X128275311Y-124677628D01*
X128341446Y-124700165D01*
X128380484Y-124745218D01*
X128460213Y-124901694D01*
X128577019Y-125062464D01*
X128717536Y-125202981D01*
X128878306Y-125319787D01*
X128954286Y-125358501D01*
X129055367Y-125410005D01*
X129055370Y-125410006D01*
X129149866Y-125440709D01*
X129244364Y-125471413D01*
X129440639Y-125502500D01*
X129440640Y-125502500D01*
X129639360Y-125502500D01*
X129639361Y-125502500D01*
X129835636Y-125471413D01*
X130024632Y-125410005D01*
X130201694Y-125319787D01*
X130362464Y-125202981D01*
X130502981Y-125062464D01*
X130619787Y-124901694D01*
X130699515Y-124745218D01*
X130747490Y-124694423D01*
X130815311Y-124677628D01*
X130881446Y-124700165D01*
X130920484Y-124745218D01*
X131000213Y-124901694D01*
X131117019Y-125062464D01*
X131257536Y-125202981D01*
X131418306Y-125319787D01*
X131494286Y-125358501D01*
X131595367Y-125410005D01*
X131595370Y-125410006D01*
X131689866Y-125440709D01*
X131784364Y-125471413D01*
X131980639Y-125502500D01*
X131980640Y-125502500D01*
X132179360Y-125502500D01*
X132179361Y-125502500D01*
X132375636Y-125471413D01*
X132564632Y-125410005D01*
X132741694Y-125319787D01*
X132902464Y-125202981D01*
X133042981Y-125062464D01*
X133159787Y-124901694D01*
X133239515Y-124745218D01*
X133287490Y-124694423D01*
X133355311Y-124677628D01*
X133421446Y-124700165D01*
X133460484Y-124745218D01*
X133540213Y-124901694D01*
X133657019Y-125062464D01*
X133797536Y-125202981D01*
X133958306Y-125319787D01*
X134034286Y-125358501D01*
X134135367Y-125410005D01*
X134135370Y-125410006D01*
X134229866Y-125440709D01*
X134324364Y-125471413D01*
X134520639Y-125502500D01*
X134520640Y-125502500D01*
X134719360Y-125502500D01*
X134719361Y-125502500D01*
X134915636Y-125471413D01*
X135104632Y-125410005D01*
X135281694Y-125319787D01*
X135442464Y-125202981D01*
X135582981Y-125062464D01*
X135699787Y-124901694D01*
X135779515Y-124745218D01*
X135827490Y-124694423D01*
X135895311Y-124677628D01*
X135961446Y-124700165D01*
X136000484Y-124745218D01*
X136080213Y-124901694D01*
X136197019Y-125062464D01*
X136337536Y-125202981D01*
X136498306Y-125319787D01*
X136574286Y-125358501D01*
X136675367Y-125410005D01*
X136675370Y-125410006D01*
X136769866Y-125440709D01*
X136864364Y-125471413D01*
X137060639Y-125502500D01*
X137060640Y-125502500D01*
X137259360Y-125502500D01*
X137259361Y-125502500D01*
X137455636Y-125471413D01*
X137644632Y-125410005D01*
X137821694Y-125319787D01*
X137982464Y-125202981D01*
X138122981Y-125062464D01*
X138239787Y-124901694D01*
X138319515Y-124745218D01*
X138367490Y-124694423D01*
X138435311Y-124677628D01*
X138501446Y-124700165D01*
X138540484Y-124745218D01*
X138620213Y-124901694D01*
X138737019Y-125062464D01*
X138877536Y-125202981D01*
X139038306Y-125319787D01*
X139114286Y-125358501D01*
X139215367Y-125410005D01*
X139215370Y-125410006D01*
X139309866Y-125440709D01*
X139404364Y-125471413D01*
X139600639Y-125502500D01*
X139600640Y-125502500D01*
X139799360Y-125502500D01*
X139799361Y-125502500D01*
X139995636Y-125471413D01*
X140184632Y-125410005D01*
X140361694Y-125319787D01*
X140522464Y-125202981D01*
X140662981Y-125062464D01*
X140779787Y-124901694D01*
X140859515Y-124745218D01*
X140907490Y-124694423D01*
X140975311Y-124677628D01*
X141041446Y-124700165D01*
X141080484Y-124745218D01*
X141160213Y-124901694D01*
X141277019Y-125062464D01*
X141417536Y-125202981D01*
X141578306Y-125319787D01*
X141654286Y-125358501D01*
X141755367Y-125410005D01*
X141755370Y-125410006D01*
X141849866Y-125440709D01*
X141944364Y-125471413D01*
X142140639Y-125502500D01*
X142140640Y-125502500D01*
X142339360Y-125502500D01*
X142339361Y-125502500D01*
X142535636Y-125471413D01*
X142724632Y-125410005D01*
X142901694Y-125319787D01*
X143062464Y-125202981D01*
X143202981Y-125062464D01*
X143319787Y-124901694D01*
X143410005Y-124724632D01*
X143471413Y-124535636D01*
X143502500Y-124339361D01*
X143502500Y-124140639D01*
X143471413Y-123944364D01*
X143432701Y-123825220D01*
X143410006Y-123755370D01*
X143410005Y-123755367D01*
X143336940Y-123611971D01*
X143319787Y-123578306D01*
X143202981Y-123417536D01*
X143062464Y-123277019D01*
X142901694Y-123160213D01*
X142890274Y-123154394D01*
X142724632Y-123069994D01*
X142724629Y-123069993D01*
X142535637Y-123008587D01*
X142435589Y-122992741D01*
X142339361Y-122977500D01*
X142140639Y-122977500D01*
X142075214Y-122987862D01*
X141944362Y-123008587D01*
X141755370Y-123069993D01*
X141755367Y-123069994D01*
X141578305Y-123160213D01*
X141417533Y-123277021D01*
X141277021Y-123417533D01*
X141160213Y-123578305D01*
X141080485Y-123734780D01*
X141032510Y-123785576D01*
X140964689Y-123802371D01*
X140898554Y-123779833D01*
X140859515Y-123734780D01*
X140796940Y-123611971D01*
X140779787Y-123578306D01*
X140662981Y-123417536D01*
X140522464Y-123277019D01*
X140361694Y-123160213D01*
X140350274Y-123154394D01*
X140184632Y-123069994D01*
X140184629Y-123069993D01*
X139995637Y-123008587D01*
X139895589Y-122992741D01*
X139799361Y-122977500D01*
X139600639Y-122977500D01*
X139535214Y-122987862D01*
X139404362Y-123008587D01*
X139215370Y-123069993D01*
X139215367Y-123069994D01*
X139038305Y-123160213D01*
X138877533Y-123277021D01*
X138737021Y-123417533D01*
X138620213Y-123578305D01*
X138540485Y-123734780D01*
X138492510Y-123785576D01*
X138424689Y-123802371D01*
X138358554Y-123779833D01*
X138319515Y-123734780D01*
X138256940Y-123611971D01*
X138239787Y-123578306D01*
X138122981Y-123417536D01*
X137982464Y-123277019D01*
X137821694Y-123160213D01*
X137810274Y-123154394D01*
X137644632Y-123069994D01*
X137644629Y-123069993D01*
X137455637Y-123008587D01*
X137355589Y-122992741D01*
X137259361Y-122977500D01*
X137060639Y-122977500D01*
X136995214Y-122987862D01*
X136864362Y-123008587D01*
X136675370Y-123069993D01*
X136675367Y-123069994D01*
X136498305Y-123160213D01*
X136337533Y-123277021D01*
X136197021Y-123417533D01*
X136080213Y-123578305D01*
X136000485Y-123734780D01*
X135952510Y-123785576D01*
X135884689Y-123802371D01*
X135818554Y-123779833D01*
X135779515Y-123734780D01*
X135716940Y-123611971D01*
X135699787Y-123578306D01*
X135582981Y-123417536D01*
X135442464Y-123277019D01*
X135281694Y-123160213D01*
X135270274Y-123154394D01*
X135104632Y-123069994D01*
X135104629Y-123069993D01*
X134915637Y-123008587D01*
X134815589Y-122992741D01*
X134719361Y-122977500D01*
X134520639Y-122977500D01*
X134455214Y-122987862D01*
X134324362Y-123008587D01*
X134135370Y-123069993D01*
X134135367Y-123069994D01*
X133958305Y-123160213D01*
X133797533Y-123277021D01*
X133657021Y-123417533D01*
X133540213Y-123578305D01*
X133460485Y-123734780D01*
X133412510Y-123785576D01*
X133344689Y-123802371D01*
X133278554Y-123779833D01*
X133239515Y-123734780D01*
X133176940Y-123611971D01*
X133159787Y-123578306D01*
X133042981Y-123417536D01*
X132902464Y-123277019D01*
X132741694Y-123160213D01*
X132730274Y-123154394D01*
X132564632Y-123069994D01*
X132564629Y-123069993D01*
X132375637Y-123008587D01*
X132275589Y-122992741D01*
X132179361Y-122977500D01*
X131980639Y-122977500D01*
X131915214Y-122987862D01*
X131784362Y-123008587D01*
X131595370Y-123069993D01*
X131595367Y-123069994D01*
X131418305Y-123160213D01*
X131257533Y-123277021D01*
X131117021Y-123417533D01*
X131000213Y-123578305D01*
X130920485Y-123734780D01*
X130872510Y-123785576D01*
X130804689Y-123802371D01*
X130738554Y-123779833D01*
X130699515Y-123734780D01*
X130636940Y-123611971D01*
X130619787Y-123578306D01*
X130502981Y-123417536D01*
X130362464Y-123277019D01*
X130201694Y-123160213D01*
X130190274Y-123154394D01*
X130024632Y-123069994D01*
X130024629Y-123069993D01*
X129835637Y-123008587D01*
X129735589Y-122992741D01*
X129639361Y-122977500D01*
X129440639Y-122977500D01*
X129375214Y-122987862D01*
X129244362Y-123008587D01*
X129055370Y-123069993D01*
X129055367Y-123069994D01*
X128878305Y-123160213D01*
X128717533Y-123277021D01*
X128577021Y-123417533D01*
X128460213Y-123578305D01*
X128380485Y-123734780D01*
X128332510Y-123785576D01*
X128264689Y-123802371D01*
X128198554Y-123779833D01*
X128159515Y-123734780D01*
X128096940Y-123611971D01*
X128079787Y-123578306D01*
X127962981Y-123417536D01*
X127822464Y-123277019D01*
X127661694Y-123160213D01*
X127650274Y-123154394D01*
X127484632Y-123069994D01*
X127484629Y-123069993D01*
X127295637Y-123008587D01*
X127195589Y-122992741D01*
X127099361Y-122977500D01*
X126900639Y-122977500D01*
X126835214Y-122987862D01*
X126704362Y-123008587D01*
X126515370Y-123069993D01*
X126515367Y-123069994D01*
X126338305Y-123160213D01*
X126177533Y-123277021D01*
X126037021Y-123417533D01*
X125920213Y-123578305D01*
X125829994Y-123755367D01*
X125829993Y-123755370D01*
X125768587Y-123944362D01*
X125737500Y-124140639D01*
X124500500Y-124140639D01*
X124500500Y-117897682D01*
X147200000Y-117897682D01*
X147200000Y-118102317D01*
X147232009Y-118304417D01*
X147295244Y-118499031D01*
X147388141Y-118681350D01*
X147388147Y-118681359D01*
X147420523Y-118725921D01*
X147420524Y-118725922D01*
X148100000Y-118046446D01*
X148100000Y-118052661D01*
X148127259Y-118154394D01*
X148179920Y-118245606D01*
X148254394Y-118320080D01*
X148345606Y-118372741D01*
X148447339Y-118400000D01*
X148453553Y-118400000D01*
X147774076Y-119079474D01*
X147818650Y-119111859D01*
X148000968Y-119204755D01*
X148195582Y-119267990D01*
X148397683Y-119300000D01*
X148602317Y-119300000D01*
X148804417Y-119267990D01*
X148999031Y-119204755D01*
X149181349Y-119111859D01*
X149225921Y-119079474D01*
X148546447Y-118400000D01*
X148552661Y-118400000D01*
X148654394Y-118372741D01*
X148745606Y-118320080D01*
X148820080Y-118245606D01*
X148872741Y-118154394D01*
X148900000Y-118052661D01*
X148900000Y-118046448D01*
X149579473Y-118725921D01*
X149617280Y-118722946D01*
X149685658Y-118737310D01*
X149735415Y-118786361D01*
X149744714Y-118807556D01*
X149749902Y-118823211D01*
X149765186Y-118869333D01*
X149765187Y-118869336D01*
X149768545Y-118874780D01*
X149857288Y-119018656D01*
X149981344Y-119142712D01*
X150130666Y-119234814D01*
X150297203Y-119289999D01*
X150297209Y-119289999D01*
X150301448Y-119290907D01*
X150362884Y-119324185D01*
X150396576Y-119385394D01*
X150399500Y-119412162D01*
X150399500Y-121913330D01*
X150399499Y-121913348D01*
X150399499Y-122079054D01*
X150399498Y-122079054D01*
X150399499Y-122079057D01*
X150440423Y-122231785D01*
X150464840Y-122274076D01*
X150469358Y-122281900D01*
X150469359Y-122281904D01*
X150469360Y-122281904D01*
X150519479Y-122368714D01*
X150519481Y-122368717D01*
X150638349Y-122487585D01*
X150638354Y-122487589D01*
X153631284Y-125480520D01*
X153631286Y-125480521D01*
X153631290Y-125480524D01*
X153768209Y-125559573D01*
X153768216Y-125559577D01*
X153920943Y-125600501D01*
X153920945Y-125600501D01*
X154086654Y-125600501D01*
X154086670Y-125600500D01*
X178913331Y-125600500D01*
X178913347Y-125600501D01*
X178920943Y-125600501D01*
X179079054Y-125600501D01*
X179079057Y-125600501D01*
X179231785Y-125559577D01*
X179281904Y-125530639D01*
X179368716Y-125480520D01*
X179480520Y-125368716D01*
X179480520Y-125368714D01*
X179490728Y-125358507D01*
X179490730Y-125358504D01*
X181358506Y-123490728D01*
X181358511Y-123490724D01*
X181368714Y-123480520D01*
X181368716Y-123480520D01*
X181480520Y-123368716D01*
X181519262Y-123301613D01*
X181533461Y-123277020D01*
X181533462Y-123277018D01*
X181559574Y-123231790D01*
X181559573Y-123231790D01*
X181559577Y-123231785D01*
X181600500Y-123079057D01*
X181600500Y-122920943D01*
X181600500Y-122579765D01*
X181620185Y-122512726D01*
X181621398Y-122510874D01*
X181709390Y-122379185D01*
X181709390Y-122379184D01*
X181709394Y-122379179D01*
X181713728Y-122368717D01*
X181734466Y-122318650D01*
X181769737Y-122233497D01*
X181800500Y-122078842D01*
X181800500Y-121921158D01*
X181800500Y-121921155D01*
X181800499Y-121921153D01*
X181793932Y-121888141D01*
X181769737Y-121766503D01*
X181769192Y-121765187D01*
X181709397Y-121620827D01*
X181709390Y-121620814D01*
X181621789Y-121489711D01*
X181621786Y-121489707D01*
X181510292Y-121378213D01*
X181510288Y-121378210D01*
X181379185Y-121290609D01*
X181379172Y-121290602D01*
X181233501Y-121230264D01*
X181233489Y-121230261D01*
X181078845Y-121199500D01*
X181078842Y-121199500D01*
X180921158Y-121199500D01*
X180921155Y-121199500D01*
X180766510Y-121230261D01*
X180766498Y-121230264D01*
X180620827Y-121290602D01*
X180620814Y-121290609D01*
X180489711Y-121378210D01*
X180489707Y-121378213D01*
X180378213Y-121489707D01*
X180378210Y-121489711D01*
X180290609Y-121620814D01*
X180290602Y-121620827D01*
X180230264Y-121766498D01*
X180230261Y-121766510D01*
X180199500Y-121921153D01*
X180199500Y-122078846D01*
X180230261Y-122233489D01*
X180230264Y-122233501D01*
X180290602Y-122379172D01*
X180290609Y-122379185D01*
X180378602Y-122510874D01*
X180399480Y-122577551D01*
X180399500Y-122579765D01*
X180399500Y-122699903D01*
X180379815Y-122766942D01*
X180363181Y-122787584D01*
X178787584Y-124363181D01*
X178726261Y-124396666D01*
X178699903Y-124399500D01*
X171633321Y-124399500D01*
X171566282Y-124379815D01*
X171520527Y-124327011D01*
X171510583Y-124257853D01*
X171539608Y-124194297D01*
X171577026Y-124165015D01*
X171681349Y-124111859D01*
X171725921Y-124079474D01*
X171046447Y-123400000D01*
X171052661Y-123400000D01*
X171154394Y-123372741D01*
X171245606Y-123320080D01*
X171320080Y-123245606D01*
X171372741Y-123154394D01*
X171400000Y-123052661D01*
X171400000Y-123046447D01*
X172079474Y-123725921D01*
X172111859Y-123681349D01*
X172204755Y-123499031D01*
X172267990Y-123304417D01*
X172300000Y-123102317D01*
X172300000Y-122897682D01*
X172267990Y-122695582D01*
X172204755Y-122500968D01*
X172111859Y-122318650D01*
X172079474Y-122274077D01*
X172079474Y-122274076D01*
X171400000Y-122953551D01*
X171400000Y-122947339D01*
X171372741Y-122845606D01*
X171320080Y-122754394D01*
X171245606Y-122679920D01*
X171154394Y-122627259D01*
X171052661Y-122600000D01*
X171046446Y-122600000D01*
X171725922Y-121920524D01*
X171725921Y-121920523D01*
X171681359Y-121888147D01*
X171681350Y-121888141D01*
X171499031Y-121795244D01*
X171304417Y-121732009D01*
X171102317Y-121700000D01*
X170897683Y-121700000D01*
X170695582Y-121732009D01*
X170500968Y-121795244D01*
X170318644Y-121888143D01*
X170274077Y-121920523D01*
X170274077Y-121920524D01*
X170953554Y-122600000D01*
X170947339Y-122600000D01*
X170845606Y-122627259D01*
X170754394Y-122679920D01*
X170679920Y-122754394D01*
X170627259Y-122845606D01*
X170600000Y-122947339D01*
X170600000Y-122953553D01*
X169920524Y-122274077D01*
X169882719Y-122277053D01*
X169814341Y-122262689D01*
X169764584Y-122213638D01*
X169762110Y-122208949D01*
X169758101Y-122200942D01*
X169734814Y-122130666D01*
X169642712Y-121981344D01*
X169518656Y-121857288D01*
X169371481Y-121766510D01*
X169369336Y-121765187D01*
X169369331Y-121765185D01*
X169327320Y-121751264D01*
X169202797Y-121710001D01*
X169202795Y-121710000D01*
X169100010Y-121699500D01*
X167899998Y-121699500D01*
X167899981Y-121699501D01*
X167797203Y-121710000D01*
X167797200Y-121710001D01*
X167630668Y-121765185D01*
X167630663Y-121765187D01*
X167481342Y-121857289D01*
X167357289Y-121981342D01*
X167265187Y-122130663D01*
X167265186Y-122130666D01*
X167210001Y-122297203D01*
X167210001Y-122297204D01*
X167210000Y-122297204D01*
X167199500Y-122399983D01*
X167199500Y-123600001D01*
X167199501Y-123600018D01*
X167210000Y-123702796D01*
X167210001Y-123702799D01*
X167265185Y-123869331D01*
X167265187Y-123869336D01*
X167357289Y-124018657D01*
X167481344Y-124142712D01*
X167525522Y-124169961D01*
X167572247Y-124221909D01*
X167583470Y-124290871D01*
X167555627Y-124354953D01*
X167497558Y-124393810D01*
X167460426Y-124399500D01*
X154300098Y-124399500D01*
X154233059Y-124379815D01*
X154212417Y-124363181D01*
X151636819Y-121787583D01*
X151603334Y-121726260D01*
X151600500Y-121699902D01*
X151600500Y-119412162D01*
X151620185Y-119345123D01*
X151672989Y-119299368D01*
X151698552Y-119290907D01*
X151702788Y-119289999D01*
X151702797Y-119289999D01*
X151869334Y-119234814D01*
X152018656Y-119142712D01*
X152142712Y-119018656D01*
X152234814Y-118869334D01*
X152289999Y-118702797D01*
X152300500Y-118600009D01*
X152300499Y-117399992D01*
X152289999Y-117297203D01*
X152234814Y-117130666D01*
X152142712Y-116981344D01*
X152018656Y-116857288D01*
X151869334Y-116765186D01*
X151702797Y-116710001D01*
X151702795Y-116710000D01*
X151600010Y-116699500D01*
X150399998Y-116699500D01*
X150399981Y-116699501D01*
X150297203Y-116710000D01*
X150297200Y-116710001D01*
X150130668Y-116765185D01*
X150130663Y-116765187D01*
X149981342Y-116857289D01*
X149857289Y-116981342D01*
X149765187Y-117130663D01*
X149765185Y-117130668D01*
X149744717Y-117192438D01*
X149704944Y-117249883D01*
X149640428Y-117276706D01*
X149617283Y-117277052D01*
X149579474Y-117274076D01*
X148900000Y-117953551D01*
X148900000Y-117947339D01*
X148872741Y-117845606D01*
X148820080Y-117754394D01*
X148745606Y-117679920D01*
X148654394Y-117627259D01*
X148552661Y-117600000D01*
X148546446Y-117600000D01*
X149225922Y-116920524D01*
X149225921Y-116920523D01*
X149181359Y-116888147D01*
X149181350Y-116888141D01*
X148999031Y-116795244D01*
X148804417Y-116732009D01*
X148602317Y-116700000D01*
X148397683Y-116700000D01*
X148195582Y-116732009D01*
X148000968Y-116795244D01*
X147818644Y-116888143D01*
X147774077Y-116920523D01*
X147774077Y-116920524D01*
X148453554Y-117600000D01*
X148447339Y-117600000D01*
X148345606Y-117627259D01*
X148254394Y-117679920D01*
X148179920Y-117754394D01*
X148127259Y-117845606D01*
X148100000Y-117947339D01*
X148100000Y-117953553D01*
X147420524Y-117274077D01*
X147420523Y-117274077D01*
X147388143Y-117318644D01*
X147295244Y-117500968D01*
X147232009Y-117695582D01*
X147200000Y-117897682D01*
X124500500Y-117897682D01*
X124500500Y-114399983D01*
X154079500Y-114399983D01*
X154079500Y-115600001D01*
X154079501Y-115600018D01*
X154090000Y-115702796D01*
X154090001Y-115702799D01*
X154131840Y-115829059D01*
X154145186Y-115869334D01*
X154237288Y-116018656D01*
X154361344Y-116142712D01*
X154510666Y-116234814D01*
X154592570Y-116261954D01*
X154650015Y-116301727D01*
X154676838Y-116366243D01*
X154664523Y-116435018D01*
X154626451Y-116479978D01*
X154532787Y-116548028D01*
X154532782Y-116548032D01*
X154388028Y-116692786D01*
X154267715Y-116858386D01*
X154174781Y-117040776D01*
X154111522Y-117235465D01*
X154085466Y-117399981D01*
X154079500Y-117437648D01*
X154079500Y-117642352D01*
X154083878Y-117669995D01*
X154111522Y-117844534D01*
X154174781Y-118039223D01*
X154267715Y-118221613D01*
X154388028Y-118387213D01*
X154532786Y-118531971D01*
X154687749Y-118644556D01*
X154698390Y-118652287D01*
X154789840Y-118698883D01*
X154791080Y-118699515D01*
X154841876Y-118747490D01*
X154858671Y-118815311D01*
X154836134Y-118881446D01*
X154791080Y-118920485D01*
X154698386Y-118967715D01*
X154532786Y-119088028D01*
X154388028Y-119232786D01*
X154267715Y-119398386D01*
X154174781Y-119580776D01*
X154111522Y-119775465D01*
X154079500Y-119977648D01*
X154079500Y-120182351D01*
X154111522Y-120384534D01*
X154174781Y-120579223D01*
X154267715Y-120761613D01*
X154388028Y-120927213D01*
X154532786Y-121071971D01*
X154698385Y-121192284D01*
X154698387Y-121192285D01*
X154698390Y-121192287D01*
X154772924Y-121230264D01*
X154791630Y-121239795D01*
X154842426Y-121287770D01*
X154859221Y-121355591D01*
X154836684Y-121421725D01*
X154791630Y-121460765D01*
X154698644Y-121508143D01*
X154654077Y-121540523D01*
X154654077Y-121540524D01*
X155333554Y-122220000D01*
X155327339Y-122220000D01*
X155225606Y-122247259D01*
X155134394Y-122299920D01*
X155059920Y-122374394D01*
X155007259Y-122465606D01*
X154980000Y-122567339D01*
X154980000Y-122573553D01*
X154300524Y-121894077D01*
X154300523Y-121894077D01*
X154268143Y-121938644D01*
X154175244Y-122120968D01*
X154112009Y-122315582D01*
X154080000Y-122517682D01*
X154080000Y-122722317D01*
X154112009Y-122924417D01*
X154175244Y-123119031D01*
X154268141Y-123301350D01*
X154268147Y-123301359D01*
X154300523Y-123345921D01*
X154300524Y-123345922D01*
X154980000Y-122666446D01*
X154980000Y-122672661D01*
X155007259Y-122774394D01*
X155059920Y-122865606D01*
X155134394Y-122940080D01*
X155225606Y-122992741D01*
X155327339Y-123020000D01*
X155333553Y-123020000D01*
X154654076Y-123699474D01*
X154698650Y-123731859D01*
X154880968Y-123824755D01*
X155075582Y-123887990D01*
X155277683Y-123920000D01*
X155482317Y-123920000D01*
X155684417Y-123887990D01*
X155879031Y-123824755D01*
X156061349Y-123731859D01*
X156105921Y-123699474D01*
X155426447Y-123020000D01*
X155432661Y-123020000D01*
X155534394Y-122992741D01*
X155625606Y-122940080D01*
X155700080Y-122865606D01*
X155752741Y-122774394D01*
X155780000Y-122672661D01*
X155780000Y-122666448D01*
X156459474Y-123345922D01*
X156459474Y-123345921D01*
X156491859Y-123301349D01*
X156584755Y-123119031D01*
X156647990Y-122924417D01*
X156680000Y-122722317D01*
X156680000Y-122517682D01*
X156647990Y-122315582D01*
X156584755Y-122120968D01*
X156491859Y-121938650D01*
X156459474Y-121894077D01*
X156459474Y-121894076D01*
X155780000Y-122573551D01*
X155780000Y-122567339D01*
X155752741Y-122465606D01*
X155700080Y-122374394D01*
X155625606Y-122299920D01*
X155534394Y-122247259D01*
X155432661Y-122220000D01*
X155426446Y-122220000D01*
X156105922Y-121540524D01*
X156105921Y-121540523D01*
X156061359Y-121508147D01*
X156061350Y-121508141D01*
X155968369Y-121460765D01*
X155917573Y-121412790D01*
X155900778Y-121344969D01*
X155923315Y-121278835D01*
X155968370Y-121239795D01*
X155987076Y-121230264D01*
X156061610Y-121192287D01*
X156111144Y-121156298D01*
X156227213Y-121071971D01*
X156227215Y-121071968D01*
X156227219Y-121071966D01*
X156371966Y-120927219D01*
X156371968Y-120927215D01*
X156371971Y-120927213D01*
X156424732Y-120854590D01*
X156492287Y-120761610D01*
X156585220Y-120579219D01*
X156648477Y-120384534D01*
X156680500Y-120182352D01*
X156680500Y-119977648D01*
X156648477Y-119775466D01*
X156585220Y-119580781D01*
X156585218Y-119580778D01*
X156585218Y-119580776D01*
X156537237Y-119486610D01*
X156492287Y-119398390D01*
X156453587Y-119345123D01*
X156371971Y-119232786D01*
X156227213Y-119088028D01*
X156061614Y-118967715D01*
X156055006Y-118964348D01*
X155968917Y-118920483D01*
X155918123Y-118872511D01*
X155901328Y-118804690D01*
X155923865Y-118738555D01*
X155968917Y-118699516D01*
X156061610Y-118652287D01*
X156103591Y-118621786D01*
X156227213Y-118531971D01*
X156227215Y-118531968D01*
X156227219Y-118531966D01*
X156371966Y-118387219D01*
X156371968Y-118387215D01*
X156371971Y-118387213D01*
X156435697Y-118299500D01*
X156492287Y-118221610D01*
X156585220Y-118039219D01*
X156648477Y-117844534D01*
X156680500Y-117642352D01*
X156680500Y-117437648D01*
X156655009Y-117276706D01*
X156648477Y-117235465D01*
X156585218Y-117040776D01*
X156551503Y-116974607D01*
X156492287Y-116858390D01*
X156484556Y-116847749D01*
X156371971Y-116692786D01*
X156227219Y-116548034D01*
X156215009Y-116539163D01*
X156133547Y-116479978D01*
X156090882Y-116424649D01*
X156084903Y-116355036D01*
X156117508Y-116293240D01*
X156167426Y-116261955D01*
X156249334Y-116234814D01*
X156398656Y-116142712D01*
X156522712Y-116018656D01*
X156614814Y-115869334D01*
X156669999Y-115702797D01*
X156680500Y-115600009D01*
X156680499Y-114897648D01*
X161699500Y-114897648D01*
X161699500Y-115102351D01*
X161731522Y-115304534D01*
X161794781Y-115499223D01*
X161846135Y-115600009D01*
X161886595Y-115679416D01*
X161887715Y-115681613D01*
X162008028Y-115847213D01*
X162152786Y-115991971D01*
X162279885Y-116084312D01*
X162318390Y-116112287D01*
X162409840Y-116158883D01*
X162411080Y-116159515D01*
X162461876Y-116207490D01*
X162478671Y-116275311D01*
X162456134Y-116341446D01*
X162411080Y-116380485D01*
X162318386Y-116427715D01*
X162152786Y-116548028D01*
X162008028Y-116692786D01*
X161887715Y-116858386D01*
X161794781Y-117040776D01*
X161731522Y-117235465D01*
X161705466Y-117399981D01*
X161699500Y-117437648D01*
X161699500Y-117642352D01*
X161703878Y-117669995D01*
X161731522Y-117844534D01*
X161794781Y-118039223D01*
X161887715Y-118221613D01*
X162008028Y-118387213D01*
X162152786Y-118531971D01*
X162307749Y-118644556D01*
X162318390Y-118652287D01*
X162409840Y-118698883D01*
X162411080Y-118699515D01*
X162461876Y-118747490D01*
X162478671Y-118815311D01*
X162456134Y-118881446D01*
X162411080Y-118920485D01*
X162318386Y-118967715D01*
X162152786Y-119088028D01*
X162008028Y-119232786D01*
X161887715Y-119398386D01*
X161794781Y-119580776D01*
X161731522Y-119775465D01*
X161699500Y-119977648D01*
X161699500Y-120182351D01*
X161731522Y-120384534D01*
X161794781Y-120579223D01*
X161887715Y-120761613D01*
X162008028Y-120927213D01*
X162152786Y-121071971D01*
X162307749Y-121184556D01*
X162318390Y-121192287D01*
X162392918Y-121230261D01*
X162411080Y-121239515D01*
X162461876Y-121287490D01*
X162478671Y-121355311D01*
X162456134Y-121421446D01*
X162411080Y-121460485D01*
X162318386Y-121507715D01*
X162152786Y-121628028D01*
X162008028Y-121772786D01*
X161887715Y-121938386D01*
X161794781Y-122120776D01*
X161731522Y-122315465D01*
X161699500Y-122517648D01*
X161699500Y-122722351D01*
X161731522Y-122924534D01*
X161794781Y-123119223D01*
X161852135Y-123231785D01*
X161887585Y-123301359D01*
X161887715Y-123301613D01*
X162008028Y-123467213D01*
X162152786Y-123611971D01*
X162277800Y-123702797D01*
X162318390Y-123732287D01*
X162434607Y-123791503D01*
X162500776Y-123825218D01*
X162500778Y-123825218D01*
X162500781Y-123825220D01*
X162605137Y-123859127D01*
X162695465Y-123888477D01*
X162796557Y-123904488D01*
X162897648Y-123920500D01*
X162897649Y-123920500D01*
X163102351Y-123920500D01*
X163102352Y-123920500D01*
X163304534Y-123888477D01*
X163499219Y-123825220D01*
X163681610Y-123732287D01*
X163774590Y-123664732D01*
X163847213Y-123611971D01*
X163847215Y-123611968D01*
X163847219Y-123611966D01*
X163991966Y-123467219D01*
X163991968Y-123467215D01*
X163991971Y-123467213D01*
X164063537Y-123368709D01*
X164112287Y-123301610D01*
X164205220Y-123119219D01*
X164268477Y-122924534D01*
X164300500Y-122722352D01*
X164300500Y-122517648D01*
X164278567Y-122379172D01*
X164268477Y-122315465D01*
X164235391Y-122213638D01*
X164205220Y-122120781D01*
X164205218Y-122120778D01*
X164205218Y-122120776D01*
X164171503Y-122054607D01*
X164112287Y-121938390D01*
X164080092Y-121894077D01*
X163991971Y-121772786D01*
X163847213Y-121628028D01*
X163681614Y-121507715D01*
X163646271Y-121489707D01*
X163588917Y-121460483D01*
X163538123Y-121412511D01*
X163521328Y-121344690D01*
X163543865Y-121278555D01*
X163588917Y-121239516D01*
X163681610Y-121192287D01*
X163702770Y-121176913D01*
X163847213Y-121071971D01*
X163847215Y-121071968D01*
X163847219Y-121071966D01*
X163991966Y-120927219D01*
X163991968Y-120927215D01*
X163991971Y-120927213D01*
X164044732Y-120854590D01*
X164112287Y-120761610D01*
X164205220Y-120579219D01*
X164268477Y-120384534D01*
X164300500Y-120182352D01*
X164300500Y-119977648D01*
X164268477Y-119775466D01*
X164205220Y-119580781D01*
X164205218Y-119580778D01*
X164205218Y-119580776D01*
X164112286Y-119398389D01*
X164099945Y-119381403D01*
X164050530Y-119313389D01*
X200099500Y-119313389D01*
X200099500Y-119486611D01*
X200126598Y-119657701D01*
X200180127Y-119822445D01*
X200258768Y-119976788D01*
X200360586Y-120116928D01*
X200483072Y-120239414D01*
X200623212Y-120341232D01*
X200777555Y-120419873D01*
X200942299Y-120473402D01*
X201113389Y-120500500D01*
X201113390Y-120500500D01*
X201886610Y-120500500D01*
X201886611Y-120500500D01*
X202057701Y-120473402D01*
X202222445Y-120419873D01*
X202376788Y-120341232D01*
X202516928Y-120239414D01*
X202639414Y-120116928D01*
X202741232Y-119976788D01*
X202819873Y-119822445D01*
X202873402Y-119657701D01*
X202900500Y-119486611D01*
X202900500Y-119313389D01*
X202873402Y-119142299D01*
X202819873Y-118977555D01*
X202741232Y-118823212D01*
X202639414Y-118683072D01*
X202516928Y-118560586D01*
X202376788Y-118458768D01*
X202222445Y-118380127D01*
X202057701Y-118326598D01*
X202057699Y-118326597D01*
X202057698Y-118326597D01*
X201926271Y-118305781D01*
X201886611Y-118299500D01*
X201113389Y-118299500D01*
X201073728Y-118305781D01*
X200942302Y-118326597D01*
X200777552Y-118380128D01*
X200623211Y-118458768D01*
X200543256Y-118516859D01*
X200483072Y-118560586D01*
X200483070Y-118560588D01*
X200483069Y-118560588D01*
X200360588Y-118683069D01*
X200360588Y-118683070D01*
X200360586Y-118683072D01*
X200346255Y-118702797D01*
X200258768Y-118823211D01*
X200180128Y-118977552D01*
X200126597Y-119142302D01*
X200116706Y-119204755D01*
X200099500Y-119313389D01*
X164050530Y-119313389D01*
X163991966Y-119232781D01*
X163847219Y-119088034D01*
X163847213Y-119088028D01*
X163681614Y-118967715D01*
X163675006Y-118964348D01*
X163588917Y-118920483D01*
X163538123Y-118872511D01*
X163521328Y-118804690D01*
X163543865Y-118738555D01*
X163588917Y-118699516D01*
X163681610Y-118652287D01*
X163723591Y-118621786D01*
X163847213Y-118531971D01*
X163847215Y-118531968D01*
X163847219Y-118531966D01*
X163991966Y-118387219D01*
X163991968Y-118387215D01*
X163991971Y-118387213D01*
X164055697Y-118299500D01*
X164112287Y-118221610D01*
X164205220Y-118039219D01*
X164268477Y-117844534D01*
X164300500Y-117642352D01*
X164300500Y-117437648D01*
X164275009Y-117276706D01*
X164268477Y-117235465D01*
X164205218Y-117040776D01*
X164171503Y-116974607D01*
X164112287Y-116858390D01*
X164104556Y-116847749D01*
X163991971Y-116692786D01*
X163847213Y-116548028D01*
X163681614Y-116427715D01*
X163675006Y-116424348D01*
X163588917Y-116380483D01*
X163538123Y-116332511D01*
X163521328Y-116264690D01*
X163543865Y-116198555D01*
X163588917Y-116159516D01*
X163681610Y-116112287D01*
X163810482Y-116018657D01*
X163847213Y-115991971D01*
X163847215Y-115991968D01*
X163847219Y-115991966D01*
X163991966Y-115847219D01*
X163991968Y-115847215D01*
X163991971Y-115847213D01*
X164065065Y-115746606D01*
X164112287Y-115681610D01*
X164205220Y-115499219D01*
X164268477Y-115304534D01*
X164300500Y-115102352D01*
X164300500Y-114897648D01*
X164282532Y-114784204D01*
X164268477Y-114695465D01*
X164224625Y-114560504D01*
X164205220Y-114500781D01*
X164205218Y-114500778D01*
X164205218Y-114500776D01*
X164180940Y-114453129D01*
X164153861Y-114399983D01*
X167199500Y-114399983D01*
X167199500Y-115600001D01*
X167199501Y-115600018D01*
X167210000Y-115702796D01*
X167210001Y-115702799D01*
X167251840Y-115829059D01*
X167265186Y-115869334D01*
X167357288Y-116018656D01*
X167481344Y-116142712D01*
X167630666Y-116234814D01*
X167797203Y-116289999D01*
X167899991Y-116300500D01*
X169100008Y-116300499D01*
X169202797Y-116289999D01*
X169369334Y-116234814D01*
X169518656Y-116142712D01*
X169642712Y-116018656D01*
X169734814Y-115869334D01*
X169758102Y-115799054D01*
X169762110Y-115791050D01*
X169780060Y-115771772D01*
X169795055Y-115750116D01*
X169803495Y-115746606D01*
X169809725Y-115739917D01*
X169835249Y-115733404D01*
X169859571Y-115723292D01*
X169875834Y-115723048D01*
X169877425Y-115722643D01*
X169878523Y-115723008D01*
X169882719Y-115722946D01*
X169920525Y-115725921D01*
X170600000Y-115046446D01*
X170600000Y-115052661D01*
X170627259Y-115154394D01*
X170679920Y-115245606D01*
X170754394Y-115320080D01*
X170845606Y-115372741D01*
X170947339Y-115400000D01*
X170953553Y-115400000D01*
X170274076Y-116079474D01*
X170318650Y-116111859D01*
X170500968Y-116204755D01*
X170695582Y-116267990D01*
X170897683Y-116300000D01*
X171102317Y-116300000D01*
X171304417Y-116267990D01*
X171499031Y-116204755D01*
X171681349Y-116111859D01*
X171725921Y-116079474D01*
X171046447Y-115400000D01*
X171052661Y-115400000D01*
X171154394Y-115372741D01*
X171245606Y-115320080D01*
X171320080Y-115245606D01*
X171372741Y-115154394D01*
X171400000Y-115052661D01*
X171400000Y-115046447D01*
X172079474Y-115725921D01*
X172111859Y-115681349D01*
X172204755Y-115499031D01*
X172267990Y-115304417D01*
X172300000Y-115102317D01*
X172300000Y-114897682D01*
X172267990Y-114695582D01*
X172204755Y-114500968D01*
X172111859Y-114318650D01*
X172079474Y-114274077D01*
X172079474Y-114274076D01*
X171400000Y-114953551D01*
X171400000Y-114947339D01*
X171372741Y-114845606D01*
X171320080Y-114754394D01*
X171245606Y-114679920D01*
X171154394Y-114627259D01*
X171052661Y-114600000D01*
X171046446Y-114600000D01*
X171725922Y-113920524D01*
X171725921Y-113920523D01*
X171681359Y-113888147D01*
X171681350Y-113888141D01*
X171499031Y-113795244D01*
X171304417Y-113732009D01*
X171102317Y-113700000D01*
X170897683Y-113700000D01*
X170695582Y-113732009D01*
X170500968Y-113795244D01*
X170318644Y-113888143D01*
X170274077Y-113920523D01*
X170274077Y-113920524D01*
X170953554Y-114600000D01*
X170947339Y-114600000D01*
X170845606Y-114627259D01*
X170754394Y-114679920D01*
X170679920Y-114754394D01*
X170627259Y-114845606D01*
X170600000Y-114947339D01*
X170600000Y-114953553D01*
X169920524Y-114274077D01*
X169882719Y-114277053D01*
X169814341Y-114262689D01*
X169764584Y-114213638D01*
X169762110Y-114208949D01*
X169758101Y-114200942D01*
X169734814Y-114130666D01*
X169642712Y-113981344D01*
X169518656Y-113857288D01*
X169369334Y-113765186D01*
X169202797Y-113710001D01*
X169202795Y-113710000D01*
X169100010Y-113699500D01*
X167899998Y-113699500D01*
X167899981Y-113699501D01*
X167797203Y-113710000D01*
X167797200Y-113710001D01*
X167630668Y-113765185D01*
X167630663Y-113765187D01*
X167481342Y-113857289D01*
X167357289Y-113981342D01*
X167265187Y-114130663D01*
X167265186Y-114130666D01*
X167210001Y-114297203D01*
X167210001Y-114297204D01*
X167210000Y-114297204D01*
X167199500Y-114399983D01*
X164153861Y-114399983D01*
X164128393Y-114350000D01*
X164112287Y-114318390D01*
X164112285Y-114318387D01*
X164112284Y-114318385D01*
X163991971Y-114152786D01*
X163847213Y-114008028D01*
X163681613Y-113887715D01*
X163681612Y-113887714D01*
X163681610Y-113887713D01*
X163621898Y-113857288D01*
X163499223Y-113794781D01*
X163304534Y-113731522D01*
X163129995Y-113703878D01*
X163102352Y-113699500D01*
X162897648Y-113699500D01*
X162873329Y-113703351D01*
X162695465Y-113731522D01*
X162500776Y-113794781D01*
X162318386Y-113887715D01*
X162152786Y-114008028D01*
X162008028Y-114152786D01*
X161887715Y-114318386D01*
X161794781Y-114500776D01*
X161731522Y-114695465D01*
X161699500Y-114897648D01*
X156680499Y-114897648D01*
X156680499Y-114399992D01*
X156674617Y-114342415D01*
X156669999Y-114297203D01*
X156669998Y-114297200D01*
X156630414Y-114177744D01*
X156614814Y-114130666D01*
X156522712Y-113981344D01*
X156398656Y-113857288D01*
X156249334Y-113765186D01*
X156082797Y-113710001D01*
X156082795Y-113710000D01*
X155980010Y-113699500D01*
X154779998Y-113699500D01*
X154779981Y-113699501D01*
X154677203Y-113710000D01*
X154677200Y-113710001D01*
X154510668Y-113765185D01*
X154510663Y-113765187D01*
X154361342Y-113857289D01*
X154237289Y-113981342D01*
X154145187Y-114130663D01*
X154145186Y-114130666D01*
X154090001Y-114297203D01*
X154090001Y-114297204D01*
X154090000Y-114297204D01*
X154079500Y-114399983D01*
X124500500Y-114399983D01*
X124500500Y-108900639D01*
X125737500Y-108900639D01*
X125737500Y-109099360D01*
X125768587Y-109295637D01*
X125829993Y-109484629D01*
X125829994Y-109484632D01*
X125904402Y-109630663D01*
X125920213Y-109661694D01*
X126037019Y-109822464D01*
X126177536Y-109962981D01*
X126338306Y-110079787D01*
X126425149Y-110124035D01*
X126515367Y-110170005D01*
X126515370Y-110170006D01*
X126609866Y-110200709D01*
X126704364Y-110231413D01*
X126900639Y-110262500D01*
X126900640Y-110262500D01*
X127099360Y-110262500D01*
X127099361Y-110262500D01*
X127295636Y-110231413D01*
X127484632Y-110170005D01*
X127661694Y-110079787D01*
X127822464Y-109962981D01*
X127962981Y-109822464D01*
X128079787Y-109661694D01*
X128159796Y-109504667D01*
X128207769Y-109453872D01*
X128275590Y-109437077D01*
X128341725Y-109459614D01*
X128380765Y-109504668D01*
X128460641Y-109661432D01*
X128487730Y-109698715D01*
X128487731Y-109698716D01*
X129102352Y-109084094D01*
X129125792Y-109171571D01*
X129184311Y-109272930D01*
X129267070Y-109355689D01*
X129368429Y-109414208D01*
X129455905Y-109437647D01*
X128841283Y-110052268D01*
X128841283Y-110052269D01*
X128878567Y-110079358D01*
X129055562Y-110169542D01*
X129244477Y-110230924D01*
X129440679Y-110262000D01*
X129639321Y-110262000D01*
X129835520Y-110230924D01*
X129835523Y-110230924D01*
X130024437Y-110169542D01*
X130201425Y-110079362D01*
X130238716Y-110052268D01*
X129624095Y-109437647D01*
X129711571Y-109414208D01*
X129812930Y-109355689D01*
X129895689Y-109272930D01*
X129954208Y-109171571D01*
X129977647Y-109084094D01*
X130592268Y-109698715D01*
X130619364Y-109661422D01*
X130699234Y-109504669D01*
X130747208Y-109453872D01*
X130815029Y-109437077D01*
X130881164Y-109459614D01*
X130920203Y-109504667D01*
X131000213Y-109661694D01*
X131117019Y-109822464D01*
X131257536Y-109962981D01*
X131418306Y-110079787D01*
X131505149Y-110124035D01*
X131595367Y-110170005D01*
X131595370Y-110170006D01*
X131689866Y-110200709D01*
X131784364Y-110231413D01*
X131980639Y-110262500D01*
X131980640Y-110262500D01*
X132179360Y-110262500D01*
X132179361Y-110262500D01*
X132375636Y-110231413D01*
X132564632Y-110170005D01*
X132741694Y-110079787D01*
X132902464Y-109962981D01*
X133042981Y-109822464D01*
X133159787Y-109661694D01*
X133239515Y-109505218D01*
X133287490Y-109454423D01*
X133355311Y-109437628D01*
X133421446Y-109460165D01*
X133460484Y-109505218D01*
X133540213Y-109661694D01*
X133657019Y-109822464D01*
X133797536Y-109962981D01*
X133958306Y-110079787D01*
X134045149Y-110124035D01*
X134135367Y-110170005D01*
X134135370Y-110170006D01*
X134229866Y-110200709D01*
X134324364Y-110231413D01*
X134520639Y-110262500D01*
X134520640Y-110262500D01*
X134719360Y-110262500D01*
X134719361Y-110262500D01*
X134915636Y-110231413D01*
X135104632Y-110170005D01*
X135281694Y-110079787D01*
X135442464Y-109962981D01*
X135582981Y-109822464D01*
X135699787Y-109661694D01*
X135779515Y-109505218D01*
X135827490Y-109454423D01*
X135895311Y-109437628D01*
X135961446Y-109460165D01*
X136000484Y-109505218D01*
X136080213Y-109661694D01*
X136197019Y-109822464D01*
X136337536Y-109962981D01*
X136498306Y-110079787D01*
X136585149Y-110124035D01*
X136675367Y-110170005D01*
X136675370Y-110170006D01*
X136769866Y-110200709D01*
X136864364Y-110231413D01*
X137060639Y-110262500D01*
X137060640Y-110262500D01*
X137259360Y-110262500D01*
X137259361Y-110262500D01*
X137455636Y-110231413D01*
X137644632Y-110170005D01*
X137821694Y-110079787D01*
X137982464Y-109962981D01*
X138122981Y-109822464D01*
X138239787Y-109661694D01*
X138319515Y-109505218D01*
X138367490Y-109454423D01*
X138435311Y-109437628D01*
X138501446Y-109460165D01*
X138540484Y-109505218D01*
X138620213Y-109661694D01*
X138737019Y-109822464D01*
X138877536Y-109962981D01*
X139038306Y-110079787D01*
X139125149Y-110124035D01*
X139215367Y-110170005D01*
X139215370Y-110170006D01*
X139309866Y-110200709D01*
X139404364Y-110231413D01*
X139600639Y-110262500D01*
X139600640Y-110262500D01*
X139799360Y-110262500D01*
X139799361Y-110262500D01*
X139995636Y-110231413D01*
X140184632Y-110170005D01*
X140361694Y-110079787D01*
X140522464Y-109962981D01*
X140662981Y-109822464D01*
X140779787Y-109661694D01*
X140859515Y-109505218D01*
X140907490Y-109454423D01*
X140975311Y-109437628D01*
X141041446Y-109460165D01*
X141080484Y-109505218D01*
X141160213Y-109661694D01*
X141277019Y-109822464D01*
X141417536Y-109962981D01*
X141578306Y-110079787D01*
X141665149Y-110124035D01*
X141755367Y-110170005D01*
X141755370Y-110170006D01*
X141849866Y-110200709D01*
X141944364Y-110231413D01*
X142140639Y-110262500D01*
X142140640Y-110262500D01*
X142339360Y-110262500D01*
X142339361Y-110262500D01*
X142535636Y-110231413D01*
X142724632Y-110170005D01*
X142901694Y-110079787D01*
X143062464Y-109962981D01*
X143202981Y-109822464D01*
X143319787Y-109661694D01*
X143410005Y-109484632D01*
X143471413Y-109295636D01*
X143502500Y-109099361D01*
X143502500Y-108900639D01*
X143471413Y-108704364D01*
X143410005Y-108515368D01*
X143410005Y-108515367D01*
X143364035Y-108425149D01*
X143319787Y-108338306D01*
X143202981Y-108177536D01*
X143062464Y-108037019D01*
X142939569Y-107947731D01*
X142901697Y-107920215D01*
X142901696Y-107920214D01*
X142901694Y-107920213D01*
X142857409Y-107897648D01*
X153699500Y-107897648D01*
X153699500Y-108102351D01*
X153731522Y-108304534D01*
X153794781Y-108499223D01*
X153887715Y-108681613D01*
X154008028Y-108847213D01*
X154152782Y-108991967D01*
X154152787Y-108991971D01*
X154208640Y-109032551D01*
X154251306Y-109087881D01*
X154257285Y-109157494D01*
X154224679Y-109219289D01*
X154174761Y-109250574D01*
X154130669Y-109265185D01*
X154130666Y-109265186D01*
X154130663Y-109265187D01*
X153981342Y-109357289D01*
X153857289Y-109481342D01*
X153765187Y-109630663D01*
X153765186Y-109630666D01*
X153710001Y-109797203D01*
X153710001Y-109797204D01*
X153710000Y-109797204D01*
X153699500Y-109899983D01*
X153699500Y-111100001D01*
X153699501Y-111100018D01*
X153710000Y-111202796D01*
X153710001Y-111202799D01*
X153765185Y-111369331D01*
X153765186Y-111369334D01*
X153857288Y-111518656D01*
X153981344Y-111642712D01*
X154130666Y-111734814D01*
X154297203Y-111789999D01*
X154399991Y-111800500D01*
X155600008Y-111800499D01*
X155702797Y-111789999D01*
X155869334Y-111734814D01*
X156018656Y-111642712D01*
X156142712Y-111518656D01*
X156234814Y-111369334D01*
X156289999Y-111202797D01*
X156300500Y-111100009D01*
X156300499Y-109899992D01*
X156289999Y-109797203D01*
X156234814Y-109630666D01*
X156142712Y-109481344D01*
X156018656Y-109357288D01*
X155869334Y-109265186D01*
X155825239Y-109250574D01*
X155767795Y-109210802D01*
X155740972Y-109146286D01*
X155753287Y-109077510D01*
X155791359Y-109032550D01*
X155847219Y-108991966D01*
X155991966Y-108847219D01*
X155991968Y-108847215D01*
X155991971Y-108847213D01*
X156044732Y-108774590D01*
X156112287Y-108681610D01*
X156205220Y-108499219D01*
X156268477Y-108304534D01*
X156300500Y-108102352D01*
X156300500Y-107897648D01*
X161699500Y-107897648D01*
X161699500Y-108102351D01*
X161731522Y-108304534D01*
X161794781Y-108499223D01*
X161887715Y-108681613D01*
X162008028Y-108847213D01*
X162152782Y-108991967D01*
X162152787Y-108991971D01*
X162208640Y-109032551D01*
X162251306Y-109087881D01*
X162257285Y-109157494D01*
X162224679Y-109219289D01*
X162174761Y-109250574D01*
X162130669Y-109265185D01*
X162130666Y-109265186D01*
X162130663Y-109265187D01*
X161981342Y-109357289D01*
X161857289Y-109481342D01*
X161765187Y-109630663D01*
X161765186Y-109630666D01*
X161710001Y-109797203D01*
X161710001Y-109797204D01*
X161710000Y-109797204D01*
X161699500Y-109899983D01*
X161699500Y-111100001D01*
X161699501Y-111100018D01*
X161710000Y-111202796D01*
X161710001Y-111202799D01*
X161765185Y-111369331D01*
X161765186Y-111369334D01*
X161857288Y-111518656D01*
X161981344Y-111642712D01*
X162130666Y-111734814D01*
X162297203Y-111789999D01*
X162399991Y-111800500D01*
X163600008Y-111800499D01*
X163702797Y-111789999D01*
X163869334Y-111734814D01*
X164018656Y-111642712D01*
X164142712Y-111518656D01*
X164234814Y-111369334D01*
X164289999Y-111202797D01*
X164300500Y-111100009D01*
X164300499Y-109899992D01*
X164289999Y-109797203D01*
X164234814Y-109630666D01*
X164142712Y-109481344D01*
X164018656Y-109357288D01*
X163869334Y-109265186D01*
X163825239Y-109250574D01*
X163767795Y-109210802D01*
X163740972Y-109146286D01*
X163753287Y-109077510D01*
X163791359Y-109032550D01*
X163847219Y-108991966D01*
X163991966Y-108847219D01*
X163991968Y-108847215D01*
X163991971Y-108847213D01*
X164044732Y-108774590D01*
X164112287Y-108681610D01*
X164205220Y-108499219D01*
X164268477Y-108304534D01*
X164300500Y-108102352D01*
X164300500Y-107897648D01*
X164289785Y-107829995D01*
X164268477Y-107695465D01*
X164220907Y-107549060D01*
X164205220Y-107500781D01*
X164205218Y-107500778D01*
X164205218Y-107500776D01*
X164171503Y-107434607D01*
X164112287Y-107318390D01*
X164104556Y-107307749D01*
X163991971Y-107152786D01*
X163847213Y-107008028D01*
X163681613Y-106887715D01*
X163681612Y-106887714D01*
X163681610Y-106887713D01*
X163624653Y-106858691D01*
X163499223Y-106794781D01*
X163304534Y-106731522D01*
X163129995Y-106703878D01*
X163102352Y-106699500D01*
X162897648Y-106699500D01*
X162873329Y-106703351D01*
X162695465Y-106731522D01*
X162500776Y-106794781D01*
X162318386Y-106887715D01*
X162152786Y-107008028D01*
X162008028Y-107152786D01*
X161887715Y-107318386D01*
X161794781Y-107500776D01*
X161731522Y-107695465D01*
X161699500Y-107897648D01*
X156300500Y-107897648D01*
X156289785Y-107829995D01*
X156268477Y-107695465D01*
X156220907Y-107549060D01*
X156205220Y-107500781D01*
X156205218Y-107500778D01*
X156205218Y-107500776D01*
X156171503Y-107434607D01*
X156112287Y-107318390D01*
X156104556Y-107307749D01*
X155991971Y-107152786D01*
X155847213Y-107008028D01*
X155681613Y-106887715D01*
X155681612Y-106887714D01*
X155681610Y-106887713D01*
X155624653Y-106858691D01*
X155499223Y-106794781D01*
X155304534Y-106731522D01*
X155129995Y-106703878D01*
X155102352Y-106699500D01*
X154897648Y-106699500D01*
X154873329Y-106703351D01*
X154695465Y-106731522D01*
X154500776Y-106794781D01*
X154318386Y-106887715D01*
X154152786Y-107008028D01*
X154008028Y-107152786D01*
X153887715Y-107318386D01*
X153794781Y-107500776D01*
X153731522Y-107695465D01*
X153699500Y-107897648D01*
X142857409Y-107897648D01*
X142844968Y-107891309D01*
X142724632Y-107829994D01*
X142724629Y-107829993D01*
X142535637Y-107768587D01*
X142437498Y-107753043D01*
X142339361Y-107737500D01*
X142140639Y-107737500D01*
X142075214Y-107747862D01*
X141944362Y-107768587D01*
X141755370Y-107829993D01*
X141755367Y-107829994D01*
X141578305Y-107920213D01*
X141417533Y-108037021D01*
X141277021Y-108177533D01*
X141160213Y-108338305D01*
X141080485Y-108494780D01*
X141032510Y-108545576D01*
X140964689Y-108562371D01*
X140898554Y-108539833D01*
X140859515Y-108494780D01*
X140840179Y-108456832D01*
X140779787Y-108338306D01*
X140662981Y-108177536D01*
X140522464Y-108037019D01*
X140361694Y-107920213D01*
X140317408Y-107897648D01*
X140184632Y-107829994D01*
X140184629Y-107829993D01*
X139995637Y-107768587D01*
X139897498Y-107753043D01*
X139799361Y-107737500D01*
X139600639Y-107737500D01*
X139535214Y-107747862D01*
X139404362Y-107768587D01*
X139215370Y-107829993D01*
X139215367Y-107829994D01*
X139038305Y-107920213D01*
X138877533Y-108037021D01*
X138737021Y-108177533D01*
X138620213Y-108338305D01*
X138540485Y-108494780D01*
X138492510Y-108545576D01*
X138424689Y-108562371D01*
X138358554Y-108539833D01*
X138319515Y-108494780D01*
X138300179Y-108456832D01*
X138239787Y-108338306D01*
X138122981Y-108177536D01*
X137982464Y-108037019D01*
X137821694Y-107920213D01*
X137777408Y-107897648D01*
X137644632Y-107829994D01*
X137644629Y-107829993D01*
X137455637Y-107768587D01*
X137357498Y-107753043D01*
X137259361Y-107737500D01*
X137060639Y-107737500D01*
X136995214Y-107747862D01*
X136864362Y-107768587D01*
X136675370Y-107829993D01*
X136675367Y-107829994D01*
X136498305Y-107920213D01*
X136337533Y-108037021D01*
X136197021Y-108177533D01*
X136080213Y-108338305D01*
X136000485Y-108494780D01*
X135952510Y-108545576D01*
X135884689Y-108562371D01*
X135818554Y-108539833D01*
X135779515Y-108494780D01*
X135760179Y-108456832D01*
X135699787Y-108338306D01*
X135582981Y-108177536D01*
X135442464Y-108037019D01*
X135281694Y-107920213D01*
X135237408Y-107897648D01*
X135104632Y-107829994D01*
X135104629Y-107829993D01*
X134915637Y-107768587D01*
X134817498Y-107753043D01*
X134719361Y-107737500D01*
X134520639Y-107737500D01*
X134455214Y-107747862D01*
X134324362Y-107768587D01*
X134135370Y-107829993D01*
X134135367Y-107829994D01*
X133958305Y-107920213D01*
X133797533Y-108037021D01*
X133657021Y-108177533D01*
X133540213Y-108338305D01*
X133460485Y-108494780D01*
X133412510Y-108545576D01*
X133344689Y-108562371D01*
X133278554Y-108539833D01*
X133239515Y-108494780D01*
X133220179Y-108456832D01*
X133159787Y-108338306D01*
X133042981Y-108177536D01*
X132902464Y-108037019D01*
X132741694Y-107920213D01*
X132697408Y-107897648D01*
X132564632Y-107829994D01*
X132564629Y-107829993D01*
X132375637Y-107768587D01*
X132277498Y-107753043D01*
X132179361Y-107737500D01*
X131980639Y-107737500D01*
X131915214Y-107747862D01*
X131784362Y-107768587D01*
X131595370Y-107829993D01*
X131595367Y-107829994D01*
X131418305Y-107920213D01*
X131257533Y-108037021D01*
X131117021Y-108177533D01*
X131000213Y-108338305D01*
X130920204Y-108495331D01*
X130872229Y-108546127D01*
X130804408Y-108562922D01*
X130738273Y-108540384D01*
X130699234Y-108495331D01*
X130619358Y-108338567D01*
X130592268Y-108301283D01*
X129977647Y-108915904D01*
X129954208Y-108828429D01*
X129895689Y-108727070D01*
X129812930Y-108644311D01*
X129711571Y-108585792D01*
X129624094Y-108562352D01*
X130238716Y-107947731D01*
X130238715Y-107947730D01*
X130201432Y-107920641D01*
X130024437Y-107830457D01*
X129835522Y-107769075D01*
X129639321Y-107738000D01*
X129440679Y-107738000D01*
X129244479Y-107769075D01*
X129244476Y-107769075D01*
X129055562Y-107830457D01*
X128878564Y-107920643D01*
X128841283Y-107947729D01*
X128841282Y-107947730D01*
X129455906Y-108562352D01*
X129368429Y-108585792D01*
X129267070Y-108644311D01*
X129184311Y-108727070D01*
X129125792Y-108828429D01*
X129102352Y-108915905D01*
X128487730Y-108301282D01*
X128487729Y-108301283D01*
X128460641Y-108338566D01*
X128380764Y-108495332D01*
X128332790Y-108546127D01*
X128264969Y-108562922D01*
X128198834Y-108540384D01*
X128159796Y-108495332D01*
X128079787Y-108338306D01*
X127962981Y-108177536D01*
X127822464Y-108037019D01*
X127661694Y-107920213D01*
X127617408Y-107897648D01*
X127484632Y-107829994D01*
X127484629Y-107829993D01*
X127295637Y-107768587D01*
X127197498Y-107753043D01*
X127099361Y-107737500D01*
X126900639Y-107737500D01*
X126835214Y-107747862D01*
X126704362Y-107768587D01*
X126515370Y-107829993D01*
X126515367Y-107829994D01*
X126338305Y-107920213D01*
X126177533Y-108037021D01*
X126037021Y-108177533D01*
X125920213Y-108338305D01*
X125829994Y-108515367D01*
X125829993Y-108515370D01*
X125768587Y-108704362D01*
X125737500Y-108900639D01*
X124500500Y-108900639D01*
X124500500Y-104897648D01*
X173619500Y-104897648D01*
X173619500Y-105102351D01*
X173651522Y-105304534D01*
X173714781Y-105499223D01*
X173778691Y-105624653D01*
X173807585Y-105681359D01*
X173807715Y-105681613D01*
X173928028Y-105847213D01*
X174072786Y-105991971D01*
X174193226Y-106079474D01*
X174238390Y-106112287D01*
X174354607Y-106171503D01*
X174420776Y-106205218D01*
X174420778Y-106205218D01*
X174420781Y-106205220D01*
X174525137Y-106239127D01*
X174615465Y-106268477D01*
X174716557Y-106284488D01*
X174817648Y-106300500D01*
X174817649Y-106300500D01*
X175022351Y-106300500D01*
X175022352Y-106300500D01*
X175224534Y-106268477D01*
X175419219Y-106205220D01*
X175601610Y-106112287D01*
X175694590Y-106044732D01*
X175767213Y-105991971D01*
X175767215Y-105991968D01*
X175767219Y-105991966D01*
X175911966Y-105847219D01*
X175911968Y-105847215D01*
X175911971Y-105847213D01*
X175964732Y-105774590D01*
X176032287Y-105681610D01*
X176125220Y-105499219D01*
X176188477Y-105304534D01*
X176220500Y-105102352D01*
X176220500Y-104897648D01*
X176208712Y-104823223D01*
X176188477Y-104695465D01*
X176132527Y-104523269D01*
X176125220Y-104500781D01*
X176125218Y-104500778D01*
X176125218Y-104500776D01*
X176032419Y-104318650D01*
X176032287Y-104318390D01*
X176000092Y-104274077D01*
X175911971Y-104152786D01*
X175767213Y-104008028D01*
X175601613Y-103887715D01*
X175601612Y-103887714D01*
X175601610Y-103887713D01*
X175537490Y-103855042D01*
X175419223Y-103794781D01*
X175224534Y-103731522D01*
X175049995Y-103703878D01*
X175022352Y-103699500D01*
X174817648Y-103699500D01*
X174793329Y-103703351D01*
X174615465Y-103731522D01*
X174420776Y-103794781D01*
X174238386Y-103887715D01*
X174072786Y-104008028D01*
X173928028Y-104152786D01*
X173807715Y-104318386D01*
X173714781Y-104500776D01*
X173651522Y-104695465D01*
X173619500Y-104897648D01*
X124500500Y-104897648D01*
X124500500Y-101874038D01*
X127399500Y-101874038D01*
X127399500Y-102125962D01*
X127426082Y-102293793D01*
X127438910Y-102374785D01*
X127516760Y-102614383D01*
X127631132Y-102838848D01*
X127779201Y-103042649D01*
X127779205Y-103042654D01*
X127957345Y-103220794D01*
X127957350Y-103220798D01*
X128135117Y-103349952D01*
X128161155Y-103368870D01*
X128304184Y-103441747D01*
X128385616Y-103483239D01*
X128385618Y-103483239D01*
X128385621Y-103483241D01*
X128625215Y-103561090D01*
X128874038Y-103600500D01*
X128874039Y-103600500D01*
X129125961Y-103600500D01*
X129125962Y-103600500D01*
X129374785Y-103561090D01*
X129614379Y-103483241D01*
X129838845Y-103368870D01*
X130042656Y-103220793D01*
X130220793Y-103042656D01*
X130368870Y-102838845D01*
X130483241Y-102614379D01*
X130561090Y-102374785D01*
X130600500Y-102125962D01*
X130600500Y-101874038D01*
X130561090Y-101625215D01*
X130483241Y-101385621D01*
X130483239Y-101385618D01*
X130483239Y-101385616D01*
X130385092Y-101192993D01*
X130368870Y-101161155D01*
X130329006Y-101106287D01*
X130224007Y-100961766D01*
X130220796Y-100957347D01*
X130157202Y-100893753D01*
X138110000Y-100893753D01*
X138110000Y-101106246D01*
X138143242Y-101316127D01*
X138143242Y-101316130D01*
X138208904Y-101518217D01*
X138305375Y-101707550D01*
X138344728Y-101761716D01*
X138977037Y-101129408D01*
X138994075Y-101192993D01*
X139059901Y-101307007D01*
X139152993Y-101400099D01*
X139267007Y-101465925D01*
X139330590Y-101482962D01*
X138698282Y-102115269D01*
X138698282Y-102115270D01*
X138752449Y-102154624D01*
X138941782Y-102251095D01*
X139143870Y-102316757D01*
X139353754Y-102350000D01*
X139566246Y-102350000D01*
X139776127Y-102316757D01*
X139776130Y-102316757D01*
X139978217Y-102251095D01*
X140167554Y-102154622D01*
X140221716Y-102115270D01*
X140221717Y-102115270D01*
X139589408Y-101482962D01*
X139652993Y-101465925D01*
X139767007Y-101400099D01*
X139860099Y-101307007D01*
X139925925Y-101192993D01*
X139942962Y-101129408D01*
X140613181Y-101799628D01*
X140646666Y-101860951D01*
X140649500Y-101887300D01*
X140649500Y-101897865D01*
X140649501Y-101897876D01*
X140655908Y-101957483D01*
X140706202Y-102092328D01*
X140706206Y-102092335D01*
X140792452Y-102207544D01*
X140792455Y-102207547D01*
X140907664Y-102293793D01*
X140907671Y-102293797D01*
X141042517Y-102344091D01*
X141042516Y-102344091D01*
X141049444Y-102344835D01*
X141102127Y-102350500D01*
X142897872Y-102350499D01*
X142957483Y-102344091D01*
X143092331Y-102293796D01*
X143207546Y-102207546D01*
X143293796Y-102092331D01*
X143344091Y-101957483D01*
X143350500Y-101897873D01*
X143350499Y-100893753D01*
X148110000Y-100893753D01*
X148110000Y-101106246D01*
X148143242Y-101316127D01*
X148143242Y-101316130D01*
X148208904Y-101518217D01*
X148305375Y-101707550D01*
X148344728Y-101761716D01*
X148977037Y-101129408D01*
X148994075Y-101192993D01*
X149059901Y-101307007D01*
X149152993Y-101400099D01*
X149267007Y-101465925D01*
X149330590Y-101482962D01*
X148698282Y-102115269D01*
X148698282Y-102115270D01*
X148752449Y-102154624D01*
X148941782Y-102251095D01*
X149143870Y-102316757D01*
X149353754Y-102350000D01*
X149566246Y-102350000D01*
X149776127Y-102316757D01*
X149776130Y-102316757D01*
X149978217Y-102251095D01*
X150167554Y-102154622D01*
X150221716Y-102115270D01*
X150221717Y-102115270D01*
X149589408Y-101482962D01*
X149652993Y-101465925D01*
X149767007Y-101400099D01*
X149860099Y-101307007D01*
X149925925Y-101192993D01*
X149942962Y-101129409D01*
X150613181Y-101799628D01*
X150646666Y-101860951D01*
X150649500Y-101887300D01*
X150649500Y-101897865D01*
X150649501Y-101897876D01*
X150655908Y-101957483D01*
X150706202Y-102092328D01*
X150706206Y-102092335D01*
X150792452Y-102207544D01*
X150792455Y-102207547D01*
X150907664Y-102293793D01*
X150907671Y-102293797D01*
X151042517Y-102344091D01*
X151042516Y-102344091D01*
X151049444Y-102344835D01*
X151102127Y-102350500D01*
X152897872Y-102350499D01*
X152957483Y-102344091D01*
X153092331Y-102293796D01*
X153207546Y-102207546D01*
X153293796Y-102092331D01*
X153344091Y-101957483D01*
X153350500Y-101897873D01*
X153350499Y-100893753D01*
X157110000Y-100893753D01*
X157110000Y-101106246D01*
X157143242Y-101316127D01*
X157143242Y-101316130D01*
X157208904Y-101518217D01*
X157305375Y-101707550D01*
X157344728Y-101761716D01*
X157977037Y-101129408D01*
X157994075Y-101192993D01*
X158059901Y-101307007D01*
X158152993Y-101400099D01*
X158267007Y-101465925D01*
X158330590Y-101482962D01*
X157698282Y-102115269D01*
X157698282Y-102115270D01*
X157752449Y-102154624D01*
X157941782Y-102251095D01*
X158143870Y-102316757D01*
X158353754Y-102350000D01*
X158566246Y-102350000D01*
X158776127Y-102316757D01*
X158776130Y-102316757D01*
X158978217Y-102251095D01*
X159167554Y-102154622D01*
X159221716Y-102115270D01*
X159221717Y-102115270D01*
X158589408Y-101482962D01*
X158652993Y-101465925D01*
X158767007Y-101400099D01*
X158860099Y-101307007D01*
X158925925Y-101192993D01*
X158942962Y-101129409D01*
X159613181Y-101799628D01*
X159646666Y-101860951D01*
X159649500Y-101887300D01*
X159649500Y-101897865D01*
X159649501Y-101897876D01*
X159655908Y-101957483D01*
X159706202Y-102092328D01*
X159706206Y-102092335D01*
X159792452Y-102207544D01*
X159792455Y-102207547D01*
X159907664Y-102293793D01*
X159907671Y-102293797D01*
X160042517Y-102344091D01*
X160042516Y-102344091D01*
X160049444Y-102344835D01*
X160102127Y-102350500D01*
X161897872Y-102350499D01*
X161957483Y-102344091D01*
X162092331Y-102293796D01*
X162207546Y-102207546D01*
X162293796Y-102092331D01*
X162344091Y-101957483D01*
X162350500Y-101897873D01*
X162350499Y-100893753D01*
X175110000Y-100893753D01*
X175110000Y-101106246D01*
X175143242Y-101316127D01*
X175143242Y-101316130D01*
X175208904Y-101518217D01*
X175305375Y-101707550D01*
X175344728Y-101761716D01*
X175977037Y-101129408D01*
X175994075Y-101192993D01*
X176059901Y-101307007D01*
X176152993Y-101400099D01*
X176267007Y-101465925D01*
X176330590Y-101482962D01*
X175698282Y-102115269D01*
X175698282Y-102115270D01*
X175752449Y-102154624D01*
X175941782Y-102251095D01*
X176143870Y-102316757D01*
X176353754Y-102350000D01*
X176566246Y-102350000D01*
X176776127Y-102316757D01*
X176776130Y-102316757D01*
X176978217Y-102251095D01*
X177167554Y-102154622D01*
X177221716Y-102115270D01*
X177221717Y-102115270D01*
X176589408Y-101482962D01*
X176652993Y-101465925D01*
X176767007Y-101400099D01*
X176860099Y-101307007D01*
X176925925Y-101192993D01*
X176942962Y-101129409D01*
X177575270Y-101761717D01*
X177575270Y-101761716D01*
X177614622Y-101707555D01*
X177619232Y-101698507D01*
X177667205Y-101647709D01*
X177735025Y-101630912D01*
X177801161Y-101653447D01*
X177840204Y-101698504D01*
X177844949Y-101707817D01*
X177969890Y-101879786D01*
X178120213Y-102030109D01*
X178292179Y-102155048D01*
X178292181Y-102155049D01*
X178292184Y-102155051D01*
X178481588Y-102251557D01*
X178683757Y-102317246D01*
X178893713Y-102350500D01*
X178893714Y-102350500D01*
X179106286Y-102350500D01*
X179106287Y-102350500D01*
X179316243Y-102317246D01*
X179518412Y-102251557D01*
X179707816Y-102155051D01*
X179879792Y-102030104D01*
X179993329Y-101916566D01*
X180054648Y-101883084D01*
X180124340Y-101888068D01*
X180180274Y-101929939D01*
X180197189Y-101960917D01*
X180246202Y-102092328D01*
X180246206Y-102092335D01*
X180332452Y-102207544D01*
X180332455Y-102207547D01*
X180447664Y-102293793D01*
X180447671Y-102293797D01*
X180582517Y-102344091D01*
X180582516Y-102344091D01*
X180589444Y-102344835D01*
X180642127Y-102350500D01*
X181989902Y-102350499D01*
X182056941Y-102370184D01*
X182077583Y-102386818D01*
X183414792Y-103724027D01*
X183448277Y-103785350D01*
X183443293Y-103855042D01*
X183401421Y-103910975D01*
X183335957Y-103935392D01*
X183267684Y-103920540D01*
X183254225Y-103912026D01*
X183221349Y-103888140D01*
X183039031Y-103795244D01*
X182844417Y-103732009D01*
X182642317Y-103700000D01*
X182437683Y-103700000D01*
X182235582Y-103732009D01*
X182040968Y-103795244D01*
X181858644Y-103888143D01*
X181814077Y-103920523D01*
X181814077Y-103920524D01*
X182493554Y-104600000D01*
X182487339Y-104600000D01*
X182385606Y-104627259D01*
X182294394Y-104679920D01*
X182219920Y-104754394D01*
X182167259Y-104845606D01*
X182140000Y-104947339D01*
X182140000Y-104953553D01*
X181460524Y-104274077D01*
X181460523Y-104274077D01*
X181428143Y-104318644D01*
X181335244Y-104500968D01*
X181272009Y-104695582D01*
X181240000Y-104897682D01*
X181240000Y-105102317D01*
X181272009Y-105304417D01*
X181335244Y-105499031D01*
X181428141Y-105681350D01*
X181428147Y-105681359D01*
X181460523Y-105725921D01*
X181460524Y-105725922D01*
X182140000Y-105046446D01*
X182140000Y-105052661D01*
X182167259Y-105154394D01*
X182219920Y-105245606D01*
X182294394Y-105320080D01*
X182385606Y-105372741D01*
X182487339Y-105400000D01*
X182493553Y-105400000D01*
X181814076Y-106079474D01*
X181858650Y-106111859D01*
X182040968Y-106204755D01*
X182235582Y-106267990D01*
X182437683Y-106300000D01*
X182642317Y-106300000D01*
X182844417Y-106267990D01*
X183039031Y-106204755D01*
X183221349Y-106111859D01*
X183265921Y-106079474D01*
X182586447Y-105400000D01*
X182592661Y-105400000D01*
X182694394Y-105372741D01*
X182785606Y-105320080D01*
X182860080Y-105245606D01*
X182912741Y-105154394D01*
X182940000Y-105052661D01*
X182940000Y-105046446D01*
X183619474Y-105725921D01*
X183651859Y-105681349D01*
X183744755Y-105499031D01*
X183807990Y-105304417D01*
X183840000Y-105102317D01*
X183840000Y-104897682D01*
X183807990Y-104695582D01*
X183744755Y-104500968D01*
X183651859Y-104318650D01*
X183627973Y-104285774D01*
X183604493Y-104219968D01*
X183620318Y-104151914D01*
X183670423Y-104103219D01*
X183738901Y-104089343D01*
X183804011Y-104114692D01*
X183815972Y-104125207D01*
X187363181Y-107672416D01*
X187396666Y-107733739D01*
X187399500Y-107760097D01*
X187399500Y-117420234D01*
X187379815Y-117487273D01*
X187378602Y-117489125D01*
X187290609Y-117620814D01*
X187290602Y-117620827D01*
X187230264Y-117766498D01*
X187230261Y-117766510D01*
X187199500Y-117921153D01*
X187199500Y-118078846D01*
X187230261Y-118233489D01*
X187230264Y-118233501D01*
X187290602Y-118379172D01*
X187290609Y-118379185D01*
X187378210Y-118510288D01*
X187378213Y-118510292D01*
X187489707Y-118621786D01*
X187489711Y-118621789D01*
X187620814Y-118709390D01*
X187620827Y-118709397D01*
X187766498Y-118769735D01*
X187766503Y-118769737D01*
X187921153Y-118800499D01*
X187921156Y-118800500D01*
X187921158Y-118800500D01*
X188078844Y-118800500D01*
X188078845Y-118800499D01*
X188233497Y-118769737D01*
X188379179Y-118709394D01*
X188510289Y-118621789D01*
X188621789Y-118510289D01*
X188709394Y-118379179D01*
X188769737Y-118233497D01*
X188800500Y-118078842D01*
X188800500Y-117921158D01*
X188800500Y-117921155D01*
X188800499Y-117921153D01*
X188795830Y-117897682D01*
X188769737Y-117766503D01*
X188740361Y-117695582D01*
X188709397Y-117620827D01*
X188709390Y-117620814D01*
X188621398Y-117489125D01*
X188600520Y-117422447D01*
X188600500Y-117420234D01*
X188600500Y-114513389D01*
X195099500Y-114513389D01*
X195099500Y-114686611D01*
X195100921Y-114695582D01*
X195123803Y-114840059D01*
X195126598Y-114857701D01*
X195180127Y-115022445D01*
X195258768Y-115176788D01*
X195360586Y-115316928D01*
X195483072Y-115439414D01*
X195623212Y-115541232D01*
X195777555Y-115619873D01*
X195942299Y-115673402D01*
X196113389Y-115700500D01*
X196113390Y-115700500D01*
X196889586Y-115700500D01*
X196956625Y-115720185D01*
X197002380Y-115772989D01*
X197012324Y-115842147D01*
X196983299Y-115905703D01*
X196945881Y-115934985D01*
X196870800Y-115973240D01*
X196808290Y-116018657D01*
X196717927Y-116084310D01*
X196717925Y-116084312D01*
X196717924Y-116084312D01*
X196584312Y-116217924D01*
X196584312Y-116217925D01*
X196584310Y-116217927D01*
X196550335Y-116264690D01*
X196473240Y-116370800D01*
X196387454Y-116539163D01*
X196329059Y-116718881D01*
X196299500Y-116905513D01*
X196299500Y-117094486D01*
X196329059Y-117281118D01*
X196387454Y-117460836D01*
X196458362Y-117600000D01*
X196473240Y-117629199D01*
X196584310Y-117782073D01*
X196717927Y-117915690D01*
X196870801Y-118026760D01*
X196921635Y-118052661D01*
X197039163Y-118112545D01*
X197039165Y-118112545D01*
X197039168Y-118112547D01*
X197135497Y-118143846D01*
X197218881Y-118170940D01*
X197405514Y-118200500D01*
X197405519Y-118200500D01*
X197594486Y-118200500D01*
X197781118Y-118170940D01*
X197960832Y-118112547D01*
X198129199Y-118026760D01*
X198282073Y-117915690D01*
X198415690Y-117782073D01*
X198526760Y-117629199D01*
X198612547Y-117460832D01*
X198670940Y-117281118D01*
X198675887Y-117249883D01*
X198700500Y-117094486D01*
X198700500Y-116905513D01*
X198670940Y-116718881D01*
X198643846Y-116635497D01*
X198612547Y-116539168D01*
X198612545Y-116539165D01*
X198612545Y-116539163D01*
X198526759Y-116370800D01*
X198500589Y-116334780D01*
X198415690Y-116217927D01*
X198282073Y-116084310D01*
X198129199Y-115973240D01*
X198126355Y-115971791D01*
X197960836Y-115887454D01*
X197781118Y-115829059D01*
X197594486Y-115799500D01*
X197594481Y-115799500D01*
X197405519Y-115799500D01*
X197405516Y-115799500D01*
X197401582Y-115800123D01*
X197332289Y-115791166D01*
X197278838Y-115746169D01*
X197258200Y-115679416D01*
X197276927Y-115612103D01*
X197325893Y-115567164D01*
X197376786Y-115541233D01*
X197376785Y-115541233D01*
X197376788Y-115541232D01*
X197516928Y-115439414D01*
X197639414Y-115316928D01*
X197741232Y-115176788D01*
X197819873Y-115022445D01*
X197873402Y-114857701D01*
X197900500Y-114686611D01*
X197900500Y-114513389D01*
X197898503Y-114500781D01*
X197883565Y-114406462D01*
X197883565Y-114406460D01*
X197876196Y-114359941D01*
X197874621Y-114349999D01*
X202125884Y-114349999D01*
X202125885Y-114350000D01*
X203033014Y-114350000D01*
X203015796Y-114359941D01*
X202959941Y-114415796D01*
X202920445Y-114484205D01*
X202900001Y-114560504D01*
X202900001Y-114639496D01*
X202920445Y-114715795D01*
X202959941Y-114784204D01*
X203015796Y-114840059D01*
X203033014Y-114850000D01*
X202125885Y-114850000D01*
X202127085Y-114857584D01*
X202180591Y-115022255D01*
X202259195Y-115176524D01*
X202360967Y-115316602D01*
X202483397Y-115439032D01*
X202623475Y-115540804D01*
X202777742Y-115619408D01*
X202942409Y-115672912D01*
X202960498Y-115675777D01*
X203023633Y-115705706D01*
X203060565Y-115765018D01*
X203059567Y-115834880D01*
X203020958Y-115893113D01*
X202997396Y-115908736D01*
X202870800Y-115973240D01*
X202808290Y-116018657D01*
X202717927Y-116084310D01*
X202717925Y-116084312D01*
X202717924Y-116084312D01*
X202584312Y-116217924D01*
X202584312Y-116217925D01*
X202584310Y-116217927D01*
X202550335Y-116264690D01*
X202473240Y-116370800D01*
X202387454Y-116539163D01*
X202329059Y-116718881D01*
X202299500Y-116905513D01*
X202299500Y-117094486D01*
X202329059Y-117281118D01*
X202387454Y-117460836D01*
X202458362Y-117600000D01*
X202473240Y-117629199D01*
X202584310Y-117782073D01*
X202717927Y-117915690D01*
X202870801Y-118026760D01*
X202921635Y-118052661D01*
X203039163Y-118112545D01*
X203039165Y-118112545D01*
X203039168Y-118112547D01*
X203135497Y-118143846D01*
X203218881Y-118170940D01*
X203405514Y-118200500D01*
X203405519Y-118200500D01*
X203594486Y-118200500D01*
X203781118Y-118170940D01*
X203960832Y-118112547D01*
X204129199Y-118026760D01*
X204282073Y-117915690D01*
X204415690Y-117782073D01*
X204526760Y-117629199D01*
X204612547Y-117460832D01*
X204670940Y-117281118D01*
X204675887Y-117249883D01*
X204700500Y-117094486D01*
X204700500Y-116905513D01*
X204670940Y-116718881D01*
X204643846Y-116635497D01*
X204612547Y-116539168D01*
X204612545Y-116539165D01*
X204612545Y-116539163D01*
X204526759Y-116370800D01*
X204500589Y-116334780D01*
X204415690Y-116217927D01*
X204282073Y-116084310D01*
X204129199Y-115973240D01*
X204054119Y-115934985D01*
X204002603Y-115908736D01*
X203951807Y-115860761D01*
X203935012Y-115792940D01*
X203957549Y-115726805D01*
X204012265Y-115683354D01*
X204039502Y-115675777D01*
X204057589Y-115672912D01*
X204222257Y-115619408D01*
X204376524Y-115540804D01*
X204516602Y-115439032D01*
X204639032Y-115316602D01*
X204740804Y-115176524D01*
X204819408Y-115022255D01*
X204872914Y-114857584D01*
X204874115Y-114850000D01*
X203966986Y-114850000D01*
X203984204Y-114840059D01*
X204040059Y-114784204D01*
X204079555Y-114715795D01*
X204099999Y-114639496D01*
X204099999Y-114560504D01*
X204079555Y-114484205D01*
X204040059Y-114415796D01*
X203984204Y-114359941D01*
X203966986Y-114350000D01*
X204874115Y-114350000D01*
X204874115Y-114349999D01*
X204872914Y-114342415D01*
X204819408Y-114177744D01*
X204740804Y-114023475D01*
X204639032Y-113883397D01*
X204516602Y-113760967D01*
X204376524Y-113659195D01*
X204222257Y-113580591D01*
X204057584Y-113527085D01*
X203886571Y-113500000D01*
X203750000Y-113500000D01*
X203750000Y-114300001D01*
X203250000Y-114300001D01*
X203250000Y-113500000D01*
X203113429Y-113500000D01*
X202942415Y-113527085D01*
X202777742Y-113580591D01*
X202623475Y-113659195D01*
X202483397Y-113760967D01*
X202360967Y-113883397D01*
X202259195Y-114023475D01*
X202180591Y-114177744D01*
X202127085Y-114342415D01*
X202125884Y-114349999D01*
X197874621Y-114349999D01*
X197873402Y-114342299D01*
X197819873Y-114177555D01*
X197741232Y-114023212D01*
X197639414Y-113883072D01*
X197516928Y-113760586D01*
X197376788Y-113658768D01*
X197222445Y-113580127D01*
X197057701Y-113526598D01*
X197057699Y-113526597D01*
X197057698Y-113526597D01*
X196926271Y-113505781D01*
X196886611Y-113499500D01*
X196113389Y-113499500D01*
X196073728Y-113505781D01*
X195942302Y-113526597D01*
X195777552Y-113580128D01*
X195623211Y-113658768D01*
X195567149Y-113699500D01*
X195483072Y-113760586D01*
X195483070Y-113760588D01*
X195483069Y-113760588D01*
X195360588Y-113883069D01*
X195360588Y-113883070D01*
X195360586Y-113883072D01*
X195316859Y-113943256D01*
X195258768Y-114023211D01*
X195180128Y-114177552D01*
X195126597Y-114342302D01*
X195114957Y-114415796D01*
X195099500Y-114513389D01*
X188600500Y-114513389D01*
X188600500Y-107549060D01*
X188600501Y-107549047D01*
X188600501Y-107380944D01*
X188600501Y-107380943D01*
X188559577Y-107228216D01*
X188516025Y-107152781D01*
X188480524Y-107091290D01*
X188480518Y-107091282D01*
X187807372Y-106418136D01*
X187773887Y-106356813D01*
X187778871Y-106287121D01*
X187820743Y-106231188D01*
X187856730Y-106212527D01*
X187879219Y-106205220D01*
X188061610Y-106112287D01*
X188154590Y-106044732D01*
X188227213Y-105991971D01*
X188227215Y-105991968D01*
X188227219Y-105991966D01*
X188371966Y-105847219D01*
X188371968Y-105847215D01*
X188371971Y-105847213D01*
X188424732Y-105774590D01*
X188492287Y-105681610D01*
X188585220Y-105499219D01*
X188648477Y-105304534D01*
X188680500Y-105102352D01*
X188680500Y-104897682D01*
X193700000Y-104897682D01*
X193700000Y-105102317D01*
X193732009Y-105304417D01*
X193795244Y-105499031D01*
X193888141Y-105681350D01*
X193888147Y-105681359D01*
X193920523Y-105725921D01*
X193920524Y-105725922D01*
X194600000Y-105046446D01*
X194600000Y-105052661D01*
X194627259Y-105154394D01*
X194679920Y-105245606D01*
X194754394Y-105320080D01*
X194845606Y-105372741D01*
X194947339Y-105400000D01*
X194953553Y-105400000D01*
X194274076Y-106079474D01*
X194318650Y-106111859D01*
X194500968Y-106204755D01*
X194695582Y-106267990D01*
X194897683Y-106300000D01*
X195102317Y-106300000D01*
X195304417Y-106267990D01*
X195499031Y-106204755D01*
X195681349Y-106111859D01*
X195725921Y-106079474D01*
X195046447Y-105400000D01*
X195052661Y-105400000D01*
X195154394Y-105372741D01*
X195245606Y-105320080D01*
X195320080Y-105245606D01*
X195372741Y-105154394D01*
X195400000Y-105052661D01*
X195400000Y-105046447D01*
X196079474Y-105725921D01*
X196111859Y-105681349D01*
X196204755Y-105499031D01*
X196267990Y-105304417D01*
X196300000Y-105102317D01*
X196300000Y-104897682D01*
X196267990Y-104695582D01*
X196204755Y-104500968D01*
X196111859Y-104318650D01*
X196079474Y-104274077D01*
X196079474Y-104274076D01*
X195400000Y-104953551D01*
X195400000Y-104947339D01*
X195372741Y-104845606D01*
X195320080Y-104754394D01*
X195245606Y-104679920D01*
X195154394Y-104627259D01*
X195052661Y-104600000D01*
X195046446Y-104600000D01*
X195725922Y-103920524D01*
X195725921Y-103920523D01*
X195681359Y-103888147D01*
X195681350Y-103888141D01*
X195499031Y-103795244D01*
X195304417Y-103732009D01*
X195102317Y-103700000D01*
X194897683Y-103700000D01*
X194695582Y-103732009D01*
X194500968Y-103795244D01*
X194318644Y-103888143D01*
X194274077Y-103920523D01*
X194274077Y-103920524D01*
X194953554Y-104600000D01*
X194947339Y-104600000D01*
X194845606Y-104627259D01*
X194754394Y-104679920D01*
X194679920Y-104754394D01*
X194627259Y-104845606D01*
X194600000Y-104947339D01*
X194600000Y-104953553D01*
X193920524Y-104274077D01*
X193920523Y-104274077D01*
X193888143Y-104318644D01*
X193795244Y-104500968D01*
X193732009Y-104695582D01*
X193700000Y-104897682D01*
X188680500Y-104897682D01*
X188680500Y-104897648D01*
X188668712Y-104823223D01*
X188648477Y-104695465D01*
X188592527Y-104523269D01*
X188585220Y-104500781D01*
X188585218Y-104500778D01*
X188585218Y-104500776D01*
X188492419Y-104318650D01*
X188492287Y-104318390D01*
X188460092Y-104274077D01*
X188371971Y-104152786D01*
X188227213Y-104008028D01*
X188061613Y-103887715D01*
X188061612Y-103887714D01*
X188061610Y-103887713D01*
X187997490Y-103855042D01*
X187879223Y-103794781D01*
X187684534Y-103731522D01*
X187509995Y-103703878D01*
X187482352Y-103699500D01*
X187277648Y-103699500D01*
X187253329Y-103703351D01*
X187075465Y-103731522D01*
X186880776Y-103794781D01*
X186698386Y-103887715D01*
X186532786Y-104008028D01*
X186388028Y-104152786D01*
X186267715Y-104318386D01*
X186174782Y-104500776D01*
X186174781Y-104500778D01*
X186174780Y-104500781D01*
X186170053Y-104515328D01*
X186167473Y-104523269D01*
X186128033Y-104580943D01*
X186063673Y-104608138D01*
X185994827Y-104596221D01*
X185961862Y-104572627D01*
X182926818Y-101537583D01*
X182893333Y-101476260D01*
X182890499Y-101449902D01*
X182890499Y-100893753D01*
X186110000Y-100893753D01*
X186110000Y-101106246D01*
X186143242Y-101316127D01*
X186143242Y-101316130D01*
X186208904Y-101518217D01*
X186305375Y-101707550D01*
X186344728Y-101761716D01*
X186977037Y-101129408D01*
X186994075Y-101192993D01*
X187059901Y-101307007D01*
X187152993Y-101400099D01*
X187267007Y-101465925D01*
X187330590Y-101482962D01*
X186698282Y-102115269D01*
X186698282Y-102115270D01*
X186752449Y-102154624D01*
X186941782Y-102251095D01*
X187143870Y-102316757D01*
X187353754Y-102350000D01*
X187566246Y-102350000D01*
X187776127Y-102316757D01*
X187776130Y-102316757D01*
X187978217Y-102251095D01*
X188167554Y-102154622D01*
X188221716Y-102115270D01*
X188221717Y-102115270D01*
X187589408Y-101482962D01*
X187652993Y-101465925D01*
X187767007Y-101400099D01*
X187860099Y-101307007D01*
X187925925Y-101192993D01*
X187942962Y-101129408D01*
X188575270Y-101761717D01*
X188575270Y-101761716D01*
X188614622Y-101707555D01*
X188619232Y-101698507D01*
X188667205Y-101647709D01*
X188735025Y-101630912D01*
X188801161Y-101653447D01*
X188840204Y-101698504D01*
X188844949Y-101707817D01*
X188969890Y-101879786D01*
X189120213Y-102030109D01*
X189292179Y-102155048D01*
X189292181Y-102155049D01*
X189292184Y-102155051D01*
X189481588Y-102251557D01*
X189683757Y-102317246D01*
X189893713Y-102350500D01*
X189893714Y-102350500D01*
X190106286Y-102350500D01*
X190106287Y-102350500D01*
X190316243Y-102317246D01*
X190518412Y-102251557D01*
X190707816Y-102155051D01*
X190879792Y-102030104D01*
X190993329Y-101916566D01*
X191054648Y-101883084D01*
X191124340Y-101888068D01*
X191180274Y-101929939D01*
X191197189Y-101960917D01*
X191246202Y-102092328D01*
X191246206Y-102092335D01*
X191332452Y-102207544D01*
X191332455Y-102207547D01*
X191447664Y-102293793D01*
X191447671Y-102293797D01*
X191582517Y-102344091D01*
X191582516Y-102344091D01*
X191589444Y-102344835D01*
X191642127Y-102350500D01*
X193437872Y-102350499D01*
X193497483Y-102344091D01*
X193632331Y-102293796D01*
X193747546Y-102207546D01*
X193833796Y-102092331D01*
X193884091Y-101957483D01*
X193890500Y-101897873D01*
X193890500Y-101874038D01*
X202399500Y-101874038D01*
X202399500Y-102125962D01*
X202426082Y-102293793D01*
X202438910Y-102374785D01*
X202516760Y-102614383D01*
X202631132Y-102838848D01*
X202779201Y-103042649D01*
X202779205Y-103042654D01*
X202957345Y-103220794D01*
X202957350Y-103220798D01*
X203135117Y-103349952D01*
X203161155Y-103368870D01*
X203304184Y-103441747D01*
X203385616Y-103483239D01*
X203385618Y-103483239D01*
X203385621Y-103483241D01*
X203625215Y-103561090D01*
X203874038Y-103600500D01*
X203874039Y-103600500D01*
X204125961Y-103600500D01*
X204125962Y-103600500D01*
X204374785Y-103561090D01*
X204614379Y-103483241D01*
X204838845Y-103368870D01*
X205042656Y-103220793D01*
X205220793Y-103042656D01*
X205368870Y-102838845D01*
X205483241Y-102614379D01*
X205561090Y-102374785D01*
X205600500Y-102125962D01*
X205600500Y-101874038D01*
X205561090Y-101625215D01*
X205483241Y-101385621D01*
X205483239Y-101385618D01*
X205483239Y-101385616D01*
X205385092Y-101192993D01*
X205368870Y-101161155D01*
X205299610Y-101065826D01*
X205220798Y-100957350D01*
X205220794Y-100957345D01*
X205042654Y-100779205D01*
X205042649Y-100779201D01*
X204838848Y-100631132D01*
X204838847Y-100631131D01*
X204838845Y-100631130D01*
X204768747Y-100595413D01*
X204614383Y-100516760D01*
X204374785Y-100438910D01*
X204125962Y-100399500D01*
X203874038Y-100399500D01*
X203749626Y-100419205D01*
X203625214Y-100438910D01*
X203385616Y-100516760D01*
X203161151Y-100631132D01*
X202957350Y-100779201D01*
X202957345Y-100779205D01*
X202779205Y-100957345D01*
X202779201Y-100957350D01*
X202631132Y-101161151D01*
X202516760Y-101385616D01*
X202438910Y-101625214D01*
X202425827Y-101707816D01*
X202399500Y-101874038D01*
X193890500Y-101874038D01*
X193890499Y-101000000D01*
X193890499Y-100102129D01*
X193890498Y-100102123D01*
X193890497Y-100102116D01*
X193884091Y-100042517D01*
X193882810Y-100039083D01*
X193833797Y-99907671D01*
X193833793Y-99907664D01*
X193747547Y-99792455D01*
X193747544Y-99792452D01*
X193632335Y-99706206D01*
X193632328Y-99706202D01*
X193497482Y-99655908D01*
X193497483Y-99655908D01*
X193437883Y-99649501D01*
X193437881Y-99649500D01*
X193437873Y-99649500D01*
X193437864Y-99649500D01*
X191642129Y-99649500D01*
X191642123Y-99649501D01*
X191582516Y-99655908D01*
X191447671Y-99706202D01*
X191447664Y-99706206D01*
X191332455Y-99792452D01*
X191332452Y-99792455D01*
X191246206Y-99907664D01*
X191246203Y-99907669D01*
X191197189Y-100039083D01*
X191155317Y-100095016D01*
X191089853Y-100119433D01*
X191021580Y-100104581D01*
X190993326Y-100083430D01*
X190879786Y-99969890D01*
X190707820Y-99844951D01*
X190518414Y-99748444D01*
X190518413Y-99748443D01*
X190518412Y-99748443D01*
X190316243Y-99682754D01*
X190316241Y-99682753D01*
X190316240Y-99682753D01*
X190154957Y-99657208D01*
X190106287Y-99649500D01*
X189893713Y-99649500D01*
X189845042Y-99657208D01*
X189683760Y-99682753D01*
X189481585Y-99748444D01*
X189292179Y-99844951D01*
X189120213Y-99969890D01*
X188969890Y-100120213D01*
X188844949Y-100292182D01*
X188840202Y-100301499D01*
X188792227Y-100352293D01*
X188724405Y-100369087D01*
X188658271Y-100346548D01*
X188619234Y-100301495D01*
X188614626Y-100292452D01*
X188575270Y-100238282D01*
X188575269Y-100238282D01*
X187942962Y-100870590D01*
X187925925Y-100807007D01*
X187860099Y-100692993D01*
X187767007Y-100599901D01*
X187652993Y-100534075D01*
X187589409Y-100517037D01*
X188221716Y-99884728D01*
X188167550Y-99845375D01*
X187978217Y-99748904D01*
X187776129Y-99683242D01*
X187566246Y-99650000D01*
X187353754Y-99650000D01*
X187143872Y-99683242D01*
X187143869Y-99683242D01*
X186941782Y-99748904D01*
X186752439Y-99845380D01*
X186698282Y-99884727D01*
X186698282Y-99884728D01*
X187330591Y-100517037D01*
X187267007Y-100534075D01*
X187152993Y-100599901D01*
X187059901Y-100692993D01*
X186994075Y-100807007D01*
X186977037Y-100870590D01*
X186344728Y-100238282D01*
X186344727Y-100238282D01*
X186305380Y-100292439D01*
X186208904Y-100481782D01*
X186143242Y-100683869D01*
X186143242Y-100683872D01*
X186110000Y-100893753D01*
X182890499Y-100893753D01*
X182890499Y-100102129D01*
X182890498Y-100102123D01*
X182890497Y-100102116D01*
X182884091Y-100042517D01*
X182839567Y-99923141D01*
X182833798Y-99907673D01*
X182833793Y-99907664D01*
X182747547Y-99792455D01*
X182747544Y-99792452D01*
X182632335Y-99706206D01*
X182632328Y-99706202D01*
X182497482Y-99655908D01*
X182497483Y-99655908D01*
X182437883Y-99649501D01*
X182437881Y-99649500D01*
X182437873Y-99649500D01*
X182437864Y-99649500D01*
X180642129Y-99649500D01*
X180642123Y-99649501D01*
X180582516Y-99655908D01*
X180447671Y-99706202D01*
X180447664Y-99706206D01*
X180332455Y-99792452D01*
X180332452Y-99792455D01*
X180246206Y-99907664D01*
X180246203Y-99907669D01*
X180197189Y-100039083D01*
X180155317Y-100095016D01*
X180089853Y-100119433D01*
X180021580Y-100104581D01*
X179993326Y-100083430D01*
X179879786Y-99969890D01*
X179707820Y-99844951D01*
X179518414Y-99748444D01*
X179518413Y-99748443D01*
X179518412Y-99748443D01*
X179316243Y-99682754D01*
X179316241Y-99682753D01*
X179316240Y-99682753D01*
X179154957Y-99657208D01*
X179106287Y-99649500D01*
X178893713Y-99649500D01*
X178845042Y-99657208D01*
X178683760Y-99682753D01*
X178481585Y-99748444D01*
X178292179Y-99844951D01*
X178120213Y-99969890D01*
X177969890Y-100120213D01*
X177844949Y-100292182D01*
X177840202Y-100301499D01*
X177792227Y-100352293D01*
X177724405Y-100369087D01*
X177658271Y-100346548D01*
X177619234Y-100301495D01*
X177614626Y-100292452D01*
X177575270Y-100238282D01*
X177575269Y-100238282D01*
X176942962Y-100870590D01*
X176925925Y-100807007D01*
X176860099Y-100692993D01*
X176767007Y-100599901D01*
X176652993Y-100534075D01*
X176589409Y-100517037D01*
X177221716Y-99884728D01*
X177167550Y-99845375D01*
X176978217Y-99748904D01*
X176776129Y-99683242D01*
X176566246Y-99650000D01*
X176353754Y-99650000D01*
X176143872Y-99683242D01*
X176143869Y-99683242D01*
X175941782Y-99748904D01*
X175752439Y-99845380D01*
X175698282Y-99884727D01*
X175698282Y-99884728D01*
X176330591Y-100517037D01*
X176267007Y-100534075D01*
X176152993Y-100599901D01*
X176059901Y-100692993D01*
X175994075Y-100807007D01*
X175977037Y-100870591D01*
X175344728Y-100238282D01*
X175344727Y-100238282D01*
X175305380Y-100292439D01*
X175208904Y-100481782D01*
X175143242Y-100683869D01*
X175143242Y-100683872D01*
X175110000Y-100893753D01*
X162350499Y-100893753D01*
X162350499Y-100102128D01*
X162344091Y-100042517D01*
X162299567Y-99923141D01*
X162293798Y-99907673D01*
X162293793Y-99907664D01*
X162207547Y-99792455D01*
X162207544Y-99792452D01*
X162092335Y-99706206D01*
X162092328Y-99706202D01*
X161957482Y-99655908D01*
X161957483Y-99655908D01*
X161897883Y-99649501D01*
X161897881Y-99649500D01*
X161897873Y-99649500D01*
X161897864Y-99649500D01*
X160102129Y-99649500D01*
X160102123Y-99649501D01*
X160042516Y-99655908D01*
X159907671Y-99706202D01*
X159907664Y-99706206D01*
X159792455Y-99792452D01*
X159792452Y-99792455D01*
X159706206Y-99907664D01*
X159706202Y-99907671D01*
X159655908Y-100042517D01*
X159649501Y-100102116D01*
X159649501Y-100102123D01*
X159649500Y-100102135D01*
X159649500Y-100112690D01*
X159629815Y-100179729D01*
X159613181Y-100200371D01*
X158942962Y-100870590D01*
X158925925Y-100807007D01*
X158860099Y-100692993D01*
X158767007Y-100599901D01*
X158652993Y-100534075D01*
X158589409Y-100517037D01*
X159221716Y-99884728D01*
X159167550Y-99845375D01*
X158978217Y-99748904D01*
X158776129Y-99683242D01*
X158566246Y-99650000D01*
X158353754Y-99650000D01*
X158143872Y-99683242D01*
X158143869Y-99683242D01*
X157941782Y-99748904D01*
X157752439Y-99845380D01*
X157698282Y-99884727D01*
X157698282Y-99884728D01*
X158330591Y-100517037D01*
X158267007Y-100534075D01*
X158152993Y-100599901D01*
X158059901Y-100692993D01*
X157994075Y-100807007D01*
X157977037Y-100870591D01*
X157344728Y-100238282D01*
X157344727Y-100238282D01*
X157305380Y-100292439D01*
X157208904Y-100481782D01*
X157143242Y-100683869D01*
X157143242Y-100683872D01*
X157110000Y-100893753D01*
X153350499Y-100893753D01*
X153350499Y-100102128D01*
X153344091Y-100042517D01*
X153299567Y-99923141D01*
X153293798Y-99907673D01*
X153293793Y-99907664D01*
X153207547Y-99792455D01*
X153207544Y-99792452D01*
X153092335Y-99706206D01*
X153092328Y-99706202D01*
X152957482Y-99655908D01*
X152957483Y-99655908D01*
X152897883Y-99649501D01*
X152897881Y-99649500D01*
X152897873Y-99649500D01*
X152897864Y-99649500D01*
X151102129Y-99649500D01*
X151102123Y-99649501D01*
X151042516Y-99655908D01*
X150907671Y-99706202D01*
X150907664Y-99706206D01*
X150792455Y-99792452D01*
X150792452Y-99792455D01*
X150706206Y-99907664D01*
X150706202Y-99907671D01*
X150655908Y-100042517D01*
X150649501Y-100102116D01*
X150649501Y-100102123D01*
X150649500Y-100102135D01*
X150649500Y-100112690D01*
X150629815Y-100179729D01*
X150613181Y-100200371D01*
X149942962Y-100870590D01*
X149925925Y-100807007D01*
X149860099Y-100692993D01*
X149767007Y-100599901D01*
X149652993Y-100534075D01*
X149589409Y-100517037D01*
X150221716Y-99884728D01*
X150167550Y-99845375D01*
X149978217Y-99748904D01*
X149776129Y-99683242D01*
X149566246Y-99650000D01*
X149353754Y-99650000D01*
X149143872Y-99683242D01*
X149143869Y-99683242D01*
X148941782Y-99748904D01*
X148752439Y-99845380D01*
X148698282Y-99884727D01*
X148698282Y-99884728D01*
X149330591Y-100517037D01*
X149267007Y-100534075D01*
X149152993Y-100599901D01*
X149059901Y-100692993D01*
X148994075Y-100807007D01*
X148977037Y-100870591D01*
X148344728Y-100238282D01*
X148344727Y-100238282D01*
X148305380Y-100292439D01*
X148208904Y-100481782D01*
X148143242Y-100683869D01*
X148143242Y-100683872D01*
X148110000Y-100893753D01*
X143350499Y-100893753D01*
X143350499Y-100102128D01*
X143344091Y-100042517D01*
X143299567Y-99923141D01*
X143293798Y-99907673D01*
X143293793Y-99907664D01*
X143207547Y-99792455D01*
X143207544Y-99792452D01*
X143092335Y-99706206D01*
X143092328Y-99706202D01*
X142957482Y-99655908D01*
X142957483Y-99655908D01*
X142897883Y-99649501D01*
X142897881Y-99649500D01*
X142897873Y-99649500D01*
X142897864Y-99649500D01*
X141102129Y-99649500D01*
X141102123Y-99649501D01*
X141042516Y-99655908D01*
X140907671Y-99706202D01*
X140907664Y-99706206D01*
X140792455Y-99792452D01*
X140792452Y-99792455D01*
X140706206Y-99907664D01*
X140706202Y-99907671D01*
X140655908Y-100042517D01*
X140649501Y-100102116D01*
X140649501Y-100102123D01*
X140649500Y-100102135D01*
X140649500Y-100112690D01*
X140629815Y-100179729D01*
X140613181Y-100200371D01*
X139942962Y-100870590D01*
X139925925Y-100807007D01*
X139860099Y-100692993D01*
X139767007Y-100599901D01*
X139652993Y-100534075D01*
X139589409Y-100517037D01*
X140221716Y-99884728D01*
X140167550Y-99845375D01*
X139978217Y-99748904D01*
X139776129Y-99683242D01*
X139566246Y-99650000D01*
X139353754Y-99650000D01*
X139143872Y-99683242D01*
X139143869Y-99683242D01*
X138941782Y-99748904D01*
X138752439Y-99845380D01*
X138698282Y-99884727D01*
X138698282Y-99884728D01*
X139330591Y-100517037D01*
X139267007Y-100534075D01*
X139152993Y-100599901D01*
X139059901Y-100692993D01*
X138994075Y-100807007D01*
X138977037Y-100870591D01*
X138344728Y-100238282D01*
X138344727Y-100238282D01*
X138305380Y-100292439D01*
X138208904Y-100481782D01*
X138143242Y-100683869D01*
X138143242Y-100683872D01*
X138110000Y-100893753D01*
X130157202Y-100893753D01*
X130042654Y-100779205D01*
X130042649Y-100779201D01*
X129838848Y-100631132D01*
X129838847Y-100631131D01*
X129838845Y-100631130D01*
X129768747Y-100595413D01*
X129614383Y-100516760D01*
X129374785Y-100438910D01*
X129125962Y-100399500D01*
X128874038Y-100399500D01*
X128749626Y-100419205D01*
X128625214Y-100438910D01*
X128385616Y-100516760D01*
X128161151Y-100631132D01*
X127957350Y-100779201D01*
X127957345Y-100779205D01*
X127779205Y-100957345D01*
X127779201Y-100957350D01*
X127631132Y-101161151D01*
X127516760Y-101385616D01*
X127438910Y-101625214D01*
X127425827Y-101707816D01*
X127399500Y-101874038D01*
X124500500Y-101874038D01*
X124500500Y-100004427D01*
X124500816Y-99995581D01*
X124502653Y-99969896D01*
X124515130Y-99795436D01*
X124517646Y-99777938D01*
X124559356Y-99586200D01*
X124564335Y-99569242D01*
X124632911Y-99385382D01*
X124640251Y-99369310D01*
X124734294Y-99197083D01*
X124743850Y-99182214D01*
X124861443Y-99025128D01*
X124873017Y-99011771D01*
X125011771Y-98873017D01*
X125025128Y-98861443D01*
X125182214Y-98743850D01*
X125197083Y-98734294D01*
X125369310Y-98640251D01*
X125385382Y-98632911D01*
X125569242Y-98564335D01*
X125586200Y-98559356D01*
X125777938Y-98517646D01*
X125795436Y-98515130D01*
X125995582Y-98500816D01*
X126004428Y-98500500D01*
X126065892Y-98500500D01*
X205934108Y-98500500D01*
X205995572Y-98500500D01*
X206004418Y-98500816D01*
G37*
%TD.AperFunction*%
%TD*%
M02*
