ISO-10303-21;
HEADER;
/* Generated by software containing ST-Developer
 * from STEP Tools, Inc. (www.steptools.com) 
 */
/* OPTION: using custom renumber hook */

FILE_DESCRIPTION(
/* description */ ('STEP AP242 Edition 2',
'CAx-IF Rec.Pracs.---Representation and Presentation of Product Manufa
cturing Information (PMI)---4.0---2014-10-13',
'CAx-IF Rec.Pracs.---3D Tessellated Geometry---0.4---2014-09-14','2;1',
'CAx-IF Rec.Pracs.---User Defined Attributes---1.5---2016-08-15'),
/* implementation_level */ '2;1');

FILE_NAME(
/* name */ '6aa8c2664c1d95707dbc05a7',
/* time_stamp */ '2026-09-15T03:58:30Z',
/* author */ (''),
/* organization */ (''),
/* preprocessor_version */ 'ST-DEVELOPER v20',
/* originating_system */ 'ONSHAPE BY PTC INC, 1.220',
/* authorisation */ '  ');

FILE_SCHEMA (('AP242_MANAGED_MODEL_BASED_3D_ENGINEERING_MIM_LF { 1 0 10303 442 3 1 4 }'));
ENDSEC;

DATA;
#10=CONTEXT_DEPENDENT_SHAPE_REPRESENTATION(#38,#1415);
#11=CONTEXT_DEPENDENT_SHAPE_REPRESENTATION(#39,#1417);
#12=CONTEXT_DEPENDENT_SHAPE_REPRESENTATION(#40,#1418);
#13=CONTEXT_DEPENDENT_SHAPE_REPRESENTATION(#41,#1419);
#14=CONTEXT_DEPENDENT_SHAPE_REPRESENTATION(#42,#1421);
#15=CONTEXT_DEPENDENT_SHAPE_REPRESENTATION(#43,#1423);
#16=CONTEXT_DEPENDENT_SHAPE_REPRESENTATION(#44,#1425);
#17=CONTEXT_DEPENDENT_SHAPE_REPRESENTATION(#45,#1426);
#18=CONTEXT_DEPENDENT_SHAPE_REPRESENTATION(#46,#1428);
#19=CONTEXT_DEPENDENT_SHAPE_REPRESENTATION(#47,#1429);
#20=CONTEXT_DEPENDENT_SHAPE_REPRESENTATION(#48,#1431);
#21=CONTEXT_DEPENDENT_SHAPE_REPRESENTATION(#49,#1432);
#22=CONTEXT_DEPENDENT_SHAPE_REPRESENTATION(#50,#1433);
#23=CONTEXT_DEPENDENT_SHAPE_REPRESENTATION(#51,#1434);
#24=NEXT_ASSEMBLY_USAGE_OCCURRENCE('NAUO1','Part 1','Part 1',#1435,#1436,
'');
#25=NEXT_ASSEMBLY_USAGE_OCCURRENCE('NAUO2','Part 2','Part 2',#1435,#1437,
'');
#26=NEXT_ASSEMBLY_USAGE_OCCURRENCE('NAUO3','Part 1','Part 1',#1435,#1436,
'');
#27=NEXT_ASSEMBLY_USAGE_OCCURRENCE('NAUO4','Part 2','Part 2',#1435,#1437,
'');
#28=NEXT_ASSEMBLY_USAGE_OCCURRENCE('NAUO5','Part 3','Part 3',#1435,#1438,
'');
#29=NEXT_ASSEMBLY_USAGE_OCCURRENCE('NAUO6','Part 8','Part 8',#1435,#1439,
'');
#30=NEXT_ASSEMBLY_USAGE_OCCURRENCE('NAUO7','Part 5','Part 5',#1435,#1440,
'');
#31=NEXT_ASSEMBLY_USAGE_OCCURRENCE('NAUO8','Part 8','Part 8',#1435,#1439,
'');
#32=NEXT_ASSEMBLY_USAGE_OCCURRENCE('NAUO9','Part 9','Part 9',#1435,#1441,
'');
#33=NEXT_ASSEMBLY_USAGE_OCCURRENCE('NAUO10','Part 9','Part 9',#1435,#1441,
'');
#34=NEXT_ASSEMBLY_USAGE_OCCURRENCE('NAUO11','Part 4','Part 4',#1435,#1442,
'');
#35=NEXT_ASSEMBLY_USAGE_OCCURRENCE('NAUO12','Part 4','Part 4',#1435,#1442,
'');
#36=NEXT_ASSEMBLY_USAGE_OCCURRENCE('NAUO13','Part 5','Part 5',#1435,#1440,
'');
#37=NEXT_ASSEMBLY_USAGE_OCCURRENCE('NAUO14','Part 3','Part 3',#1435,#1438,
'');
#38=(
REPRESENTATION_RELATIONSHIP(' ',' ',#878,#877)
REPRESENTATION_RELATIONSHIP_WITH_TRANSFORMATION(#52)
SHAPE_REPRESENTATION_RELATIONSHIP()
);
#39=(
REPRESENTATION_RELATIONSHIP(' ',' ',#879,#877)
REPRESENTATION_RELATIONSHIP_WITH_TRANSFORMATION(#53)
SHAPE_REPRESENTATION_RELATIONSHIP()
);
#40=(
REPRESENTATION_RELATIONSHIP(' ',' ',#878,#877)
REPRESENTATION_RELATIONSHIP_WITH_TRANSFORMATION(#54)
SHAPE_REPRESENTATION_RELATIONSHIP()
);
#41=(
REPRESENTATION_RELATIONSHIP(' ',' ',#879,#877)
REPRESENTATION_RELATIONSHIP_WITH_TRANSFORMATION(#55)
SHAPE_REPRESENTATION_RELATIONSHIP()
);
#42=(
REPRESENTATION_RELATIONSHIP(' ',' ',#880,#877)
REPRESENTATION_RELATIONSHIP_WITH_TRANSFORMATION(#56)
SHAPE_REPRESENTATION_RELATIONSHIP()
);
#43=(
REPRESENTATION_RELATIONSHIP(' ',' ',#881,#877)
REPRESENTATION_RELATIONSHIP_WITH_TRANSFORMATION(#57)
SHAPE_REPRESENTATION_RELATIONSHIP()
);
#44=(
REPRESENTATION_RELATIONSHIP(' ',' ',#882,#877)
REPRESENTATION_RELATIONSHIP_WITH_TRANSFORMATION(#58)
SHAPE_REPRESENTATION_RELATIONSHIP()
);
#45=(
REPRESENTATION_RELATIONSHIP(' ',' ',#881,#877)
REPRESENTATION_RELATIONSHIP_WITH_TRANSFORMATION(#59)
SHAPE_REPRESENTATION_RELATIONSHIP()
);
#46=(
REPRESENTATION_RELATIONSHIP(' ',' ',#883,#877)
REPRESENTATION_RELATIONSHIP_WITH_TRANSFORMATION(#60)
SHAPE_REPRESENTATION_RELATIONSHIP()
);
#47=(
REPRESENTATION_RELATIONSHIP(' ',' ',#883,#877)
REPRESENTATION_RELATIONSHIP_WITH_TRANSFORMATION(#61)
SHAPE_REPRESENTATION_RELATIONSHIP()
);
#48=(
REPRESENTATION_RELATIONSHIP(' ',' ',#884,#877)
REPRESENTATION_RELATIONSHIP_WITH_TRANSFORMATION(#62)
SHAPE_REPRESENTATION_RELATIONSHIP()
);
#49=(
REPRESENTATION_RELATIONSHIP(' ',' ',#884,#877)
REPRESENTATION_RELATIONSHIP_WITH_TRANSFORMATION(#63)
SHAPE_REPRESENTATION_RELATIONSHIP()
);
#50=(
REPRESENTATION_RELATIONSHIP(' ',' ',#882,#877)
REPRESENTATION_RELATIONSHIP_WITH_TRANSFORMATION(#64)
SHAPE_REPRESENTATION_RELATIONSHIP()
);
#51=(
REPRESENTATION_RELATIONSHIP(' ',' ',#880,#877)
REPRESENTATION_RELATIONSHIP_WITH_TRANSFORMATION(#65)
SHAPE_REPRESENTATION_RELATIONSHIP()
);
#52=ITEM_DEFINED_TRANSFORMATION(' ',' ',#885,#895);
#53=ITEM_DEFINED_TRANSFORMATION(' ',' ',#885,#905);
#54=ITEM_DEFINED_TRANSFORMATION(' ',' ',#885,#906);
#55=ITEM_DEFINED_TRANSFORMATION(' ',' ',#885,#907);
#56=ITEM_DEFINED_TRANSFORMATION(' ',' ',#885,#917);
#57=ITEM_DEFINED_TRANSFORMATION(' ',' ',#885,#924);
#58=ITEM_DEFINED_TRANSFORMATION(' ',' ',#885,#931);
#59=ITEM_DEFINED_TRANSFORMATION(' ',' ',#885,#932);
#60=ITEM_DEFINED_TRANSFORMATION(' ',' ',#885,#939);
#61=ITEM_DEFINED_TRANSFORMATION(' ',' ',#885,#940);
#62=ITEM_DEFINED_TRANSFORMATION(' ',' ',#885,#950);
#63=ITEM_DEFINED_TRANSFORMATION(' ',' ',#885,#951);
#64=ITEM_DEFINED_TRANSFORMATION(' ',' ',#885,#952);
#65=ITEM_DEFINED_TRANSFORMATION(' ',' ',#885,#953);
#66=SHAPE_REPRESENTATION_RELATIONSHIP('','',#878,#73);
#67=SHAPE_REPRESENTATION_RELATIONSHIP('','',#879,#74);
#68=SHAPE_REPRESENTATION_RELATIONSHIP('','',#880,#75);
#69=SHAPE_REPRESENTATION_RELATIONSHIP('','',#881,#76);
#70=SHAPE_REPRESENTATION_RELATIONSHIP('','',#882,#77);
#71=SHAPE_REPRESENTATION_RELATIONSHIP('','',#883,#78);
#72=SHAPE_REPRESENTATION_RELATIONSHIP('','',#884,#79);
#73=ADVANCED_BREP_SHAPE_REPRESENTATION('',(#862),#1395);
#74=ADVANCED_BREP_SHAPE_REPRESENTATION('',(#863),#1396);
#75=ADVANCED_BREP_SHAPE_REPRESENTATION('',(#864),#1397);
#76=ADVANCED_BREP_SHAPE_REPRESENTATION('',(#865),#1398);
#77=ADVANCED_BREP_SHAPE_REPRESENTATION('',(#866),#1399);
#78=ADVANCED_BREP_SHAPE_REPRESENTATION('',(#867),#1400);
#79=ADVANCED_BREP_SHAPE_REPRESENTATION('',(#868),#1401);
#80=CIRCLE('',#891,0.00152229286894833);
#81=CIRCLE('',#892,0.00152229286894833);
#82=CIRCLE('',#900,0.00152229286894833);
#83=CIRCLE('',#901,0.00152229286894833);
#84=CIRCLE('',#913,0.00152229286894833);
#85=CIRCLE('',#914,0.00152229286894833);
#86=CIRCLE('',#945,0.00152229286894833);
#87=CIRCLE('',#946,0.00152229286894833);
#88=CYLINDRICAL_SURFACE('',#890,0.00152229286894833);
#89=CYLINDRICAL_SURFACE('',#899,0.00152229286894833);
#90=CYLINDRICAL_SURFACE('',#912,0.00152229286894833);
#91=CYLINDRICAL_SURFACE('',#944,0.00152229286894833);
#92=ORIENTED_EDGE('',*,*,#276,.F.);
#93=ORIENTED_EDGE('',*,*,#277,.F.);
#94=ORIENTED_EDGE('',*,*,#278,.T.);
#95=ORIENTED_EDGE('',*,*,#279,.T.);
#96=ORIENTED_EDGE('',*,*,#280,.T.);
#97=ORIENTED_EDGE('',*,*,#281,.F.);
#98=ORIENTED_EDGE('',*,*,#282,.F.);
#99=ORIENTED_EDGE('',*,*,#277,.T.);
#100=ORIENTED_EDGE('',*,*,#283,.T.);
#101=ORIENTED_EDGE('',*,*,#284,.F.);
#102=ORIENTED_EDGE('',*,*,#285,.F.);
#103=ORIENTED_EDGE('',*,*,#281,.T.);
#104=ORIENTED_EDGE('',*,*,#286,.F.);
#105=ORIENTED_EDGE('',*,*,#279,.F.);
#106=ORIENTED_EDGE('',*,*,#287,.T.);
#107=ORIENTED_EDGE('',*,*,#284,.T.);
#108=ORIENTED_EDGE('',*,*,#288,.T.);
#109=ORIENTED_EDGE('',*,*,#289,.F.);
#110=ORIENTED_EDGE('',*,*,#278,.F.);
#111=ORIENTED_EDGE('',*,*,#282,.T.);
#112=ORIENTED_EDGE('',*,*,#285,.T.);
#113=ORIENTED_EDGE('',*,*,#287,.F.);
#114=ORIENTED_EDGE('',*,*,#288,.F.);
#115=ORIENTED_EDGE('',*,*,#276,.T.);
#116=ORIENTED_EDGE('',*,*,#286,.T.);
#117=ORIENTED_EDGE('',*,*,#283,.F.);
#118=ORIENTED_EDGE('',*,*,#280,.F.);
#119=ORIENTED_EDGE('',*,*,#289,.T.);
#120=ORIENTED_EDGE('',*,*,#290,.F.);
#121=ORIENTED_EDGE('',*,*,#291,.F.);
#122=ORIENTED_EDGE('',*,*,#292,.T.);
#123=ORIENTED_EDGE('',*,*,#293,.T.);
#124=ORIENTED_EDGE('',*,*,#294,.T.);
#125=ORIENTED_EDGE('',*,*,#295,.F.);
#126=ORIENTED_EDGE('',*,*,#296,.F.);
#127=ORIENTED_EDGE('',*,*,#291,.T.);
#128=ORIENTED_EDGE('',*,*,#297,.T.);
#129=ORIENTED_EDGE('',*,*,#298,.F.);
#130=ORIENTED_EDGE('',*,*,#299,.F.);
#131=ORIENTED_EDGE('',*,*,#295,.T.);
#132=ORIENTED_EDGE('',*,*,#300,.T.);
#133=ORIENTED_EDGE('',*,*,#301,.F.);
#134=ORIENTED_EDGE('',*,*,#302,.F.);
#135=ORIENTED_EDGE('',*,*,#293,.F.);
#136=ORIENTED_EDGE('',*,*,#303,.T.);
#137=ORIENTED_EDGE('',*,*,#298,.T.);
#138=ORIENTED_EDGE('',*,*,#300,.F.);
#139=ORIENTED_EDGE('',*,*,#292,.F.);
#140=ORIENTED_EDGE('',*,*,#296,.T.);
#141=ORIENTED_EDGE('',*,*,#299,.T.);
#142=ORIENTED_EDGE('',*,*,#303,.F.);
#143=ORIENTED_EDGE('',*,*,#301,.T.);
#144=ORIENTED_EDGE('',*,*,#290,.T.);
#145=ORIENTED_EDGE('',*,*,#302,.T.);
#146=ORIENTED_EDGE('',*,*,#297,.F.);
#147=ORIENTED_EDGE('',*,*,#294,.F.);
#148=ORIENTED_EDGE('',*,*,#304,.F.);
#149=ORIENTED_EDGE('',*,*,#305,.F.);
#150=ORIENTED_EDGE('',*,*,#306,.T.);
#151=ORIENTED_EDGE('',*,*,#307,.T.);
#152=ORIENTED_EDGE('',*,*,#308,.T.);
#153=ORIENTED_EDGE('',*,*,#309,.F.);
#154=ORIENTED_EDGE('',*,*,#310,.F.);
#155=ORIENTED_EDGE('',*,*,#305,.T.);
#156=ORIENTED_EDGE('',*,*,#311,.T.);
#157=ORIENTED_EDGE('',*,*,#312,.F.);
#158=ORIENTED_EDGE('',*,*,#313,.F.);
#159=ORIENTED_EDGE('',*,*,#309,.T.);
#160=ORIENTED_EDGE('',*,*,#314,.F.);
#161=ORIENTED_EDGE('',*,*,#307,.F.);
#162=ORIENTED_EDGE('',*,*,#315,.T.);
#163=ORIENTED_EDGE('',*,*,#312,.T.);
#164=ORIENTED_EDGE('',*,*,#316,.T.);
#165=ORIENTED_EDGE('',*,*,#317,.F.);
#166=ORIENTED_EDGE('',*,*,#306,.F.);
#167=ORIENTED_EDGE('',*,*,#310,.T.);
#168=ORIENTED_EDGE('',*,*,#313,.T.);
#169=ORIENTED_EDGE('',*,*,#315,.F.);
#170=ORIENTED_EDGE('',*,*,#316,.F.);
#171=ORIENTED_EDGE('',*,*,#304,.T.);
#172=ORIENTED_EDGE('',*,*,#314,.T.);
#173=ORIENTED_EDGE('',*,*,#311,.F.);
#174=ORIENTED_EDGE('',*,*,#308,.F.);
#175=ORIENTED_EDGE('',*,*,#317,.T.);
#176=ORIENTED_EDGE('',*,*,#318,.T.);
#177=ORIENTED_EDGE('',*,*,#319,.F.);
#178=ORIENTED_EDGE('',*,*,#320,.F.);
#179=ORIENTED_EDGE('',*,*,#321,.T.);
#180=ORIENTED_EDGE('',*,*,#322,.F.);
#181=ORIENTED_EDGE('',*,*,#321,.F.);
#182=ORIENTED_EDGE('',*,*,#323,.T.);
#183=ORIENTED_EDGE('',*,*,#324,.T.);
#184=ORIENTED_EDGE('',*,*,#325,.F.);
#185=ORIENTED_EDGE('',*,*,#324,.F.);
#186=ORIENTED_EDGE('',*,*,#326,.T.);
#187=ORIENTED_EDGE('',*,*,#327,.T.);
#188=ORIENTED_EDGE('',*,*,#328,.T.);
#189=ORIENTED_EDGE('',*,*,#327,.F.);
#190=ORIENTED_EDGE('',*,*,#329,.F.);
#191=ORIENTED_EDGE('',*,*,#319,.T.);
#192=ORIENTED_EDGE('',*,*,#320,.T.);
#193=ORIENTED_EDGE('',*,*,#329,.T.);
#194=ORIENTED_EDGE('',*,*,#326,.F.);
#195=ORIENTED_EDGE('',*,*,#323,.F.);
#196=ORIENTED_EDGE('',*,*,#318,.F.);
#197=ORIENTED_EDGE('',*,*,#322,.T.);
#198=ORIENTED_EDGE('',*,*,#325,.T.);
#199=ORIENTED_EDGE('',*,*,#328,.F.);
#200=ORIENTED_EDGE('',*,*,#330,.F.);
#201=ORIENTED_EDGE('',*,*,#331,.F.);
#202=ORIENTED_EDGE('',*,*,#332,.T.);
#203=ORIENTED_EDGE('',*,*,#333,.T.);
#204=ORIENTED_EDGE('',*,*,#334,.T.);
#205=ORIENTED_EDGE('',*,*,#335,.F.);
#206=ORIENTED_EDGE('',*,*,#336,.F.);
#207=ORIENTED_EDGE('',*,*,#331,.T.);
#208=ORIENTED_EDGE('',*,*,#337,.T.);
#209=ORIENTED_EDGE('',*,*,#338,.F.);
#210=ORIENTED_EDGE('',*,*,#339,.F.);
#211=ORIENTED_EDGE('',*,*,#335,.T.);
#212=ORIENTED_EDGE('',*,*,#340,.F.);
#213=ORIENTED_EDGE('',*,*,#333,.F.);
#214=ORIENTED_EDGE('',*,*,#341,.T.);
#215=ORIENTED_EDGE('',*,*,#338,.T.);
#216=ORIENTED_EDGE('',*,*,#332,.F.);
#217=ORIENTED_EDGE('',*,*,#336,.T.);
#218=ORIENTED_EDGE('',*,*,#339,.T.);
#219=ORIENTED_EDGE('',*,*,#341,.F.);
#220=ORIENTED_EDGE('',*,*,#330,.T.);
#221=ORIENTED_EDGE('',*,*,#340,.T.);
#222=ORIENTED_EDGE('',*,*,#337,.F.);
#223=ORIENTED_EDGE('',*,*,#334,.F.);
#224=ORIENTED_EDGE('',*,*,#342,.F.);
#225=ORIENTED_EDGE('',*,*,#343,.F.);
#226=ORIENTED_EDGE('',*,*,#344,.T.);
#227=ORIENTED_EDGE('',*,*,#345,.T.);
#228=ORIENTED_EDGE('',*,*,#346,.T.);
#229=ORIENTED_EDGE('',*,*,#347,.F.);
#230=ORIENTED_EDGE('',*,*,#348,.F.);
#231=ORIENTED_EDGE('',*,*,#343,.T.);
#232=ORIENTED_EDGE('',*,*,#349,.T.);
#233=ORIENTED_EDGE('',*,*,#350,.F.);
#234=ORIENTED_EDGE('',*,*,#351,.F.);
#235=ORIENTED_EDGE('',*,*,#347,.T.);
#236=ORIENTED_EDGE('',*,*,#352,.F.);
#237=ORIENTED_EDGE('',*,*,#345,.F.);
#238=ORIENTED_EDGE('',*,*,#353,.T.);
#239=ORIENTED_EDGE('',*,*,#350,.T.);
#240=ORIENTED_EDGE('',*,*,#344,.F.);
#241=ORIENTED_EDGE('',*,*,#348,.T.);
#242=ORIENTED_EDGE('',*,*,#351,.T.);
#243=ORIENTED_EDGE('',*,*,#353,.F.);
#244=ORIENTED_EDGE('',*,*,#342,.T.);
#245=ORIENTED_EDGE('',*,*,#352,.T.);
#246=ORIENTED_EDGE('',*,*,#349,.F.);
#247=ORIENTED_EDGE('',*,*,#346,.F.);
#248=ORIENTED_EDGE('',*,*,#354,.F.);
#249=ORIENTED_EDGE('',*,*,#355,.F.);
#250=ORIENTED_EDGE('',*,*,#356,.T.);
#251=ORIENTED_EDGE('',*,*,#357,.T.);
#252=ORIENTED_EDGE('',*,*,#358,.T.);
#253=ORIENTED_EDGE('',*,*,#359,.F.);
#254=ORIENTED_EDGE('',*,*,#360,.F.);
#255=ORIENTED_EDGE('',*,*,#355,.T.);
#256=ORIENTED_EDGE('',*,*,#361,.T.);
#257=ORIENTED_EDGE('',*,*,#362,.F.);
#258=ORIENTED_EDGE('',*,*,#363,.F.);
#259=ORIENTED_EDGE('',*,*,#359,.T.);
#260=ORIENTED_EDGE('',*,*,#364,.T.);
#261=ORIENTED_EDGE('',*,*,#365,.F.);
#262=ORIENTED_EDGE('',*,*,#366,.F.);
#263=ORIENTED_EDGE('',*,*,#357,.F.);
#264=ORIENTED_EDGE('',*,*,#367,.T.);
#265=ORIENTED_EDGE('',*,*,#362,.T.);
#266=ORIENTED_EDGE('',*,*,#364,.F.);
#267=ORIENTED_EDGE('',*,*,#356,.F.);
#268=ORIENTED_EDGE('',*,*,#360,.T.);
#269=ORIENTED_EDGE('',*,*,#363,.T.);
#270=ORIENTED_EDGE('',*,*,#367,.F.);
#271=ORIENTED_EDGE('',*,*,#365,.T.);
#272=ORIENTED_EDGE('',*,*,#354,.T.);
#273=ORIENTED_EDGE('',*,*,#366,.T.);
#274=ORIENTED_EDGE('',*,*,#361,.F.);
#275=ORIENTED_EDGE('',*,*,#358,.F.);
#276=EDGE_CURVE('',#368,#369,#432,.T.);
#277=EDGE_CURVE('',#370,#368,#433,.T.);
#278=EDGE_CURVE('',#370,#371,#434,.T.);
#279=EDGE_CURVE('',#371,#369,#435,.T.);
#280=EDGE_CURVE('',#368,#372,#436,.T.);
#281=EDGE_CURVE('',#373,#372,#437,.T.);
#282=EDGE_CURVE('',#370,#373,#438,.T.);
#283=EDGE_CURVE('',#372,#374,#439,.T.);
#284=EDGE_CURVE('',#375,#374,#440,.T.);
#285=EDGE_CURVE('',#373,#375,#441,.T.);
#286=EDGE_CURVE('',#369,#374,#442,.T.);
#287=EDGE_CURVE('',#371,#375,#443,.T.);
#288=EDGE_CURVE('',#376,#376,#80,.T.);
#289=EDGE_CURVE('',#377,#377,#81,.T.);
#290=EDGE_CURVE('',#378,#379,#444,.T.);
#291=EDGE_CURVE('',#380,#378,#445,.T.);
#292=EDGE_CURVE('',#380,#381,#446,.T.);
#293=EDGE_CURVE('',#381,#379,#447,.T.);
#294=EDGE_CURVE('',#378,#382,#448,.T.);
#295=EDGE_CURVE('',#383,#382,#449,.T.);
#296=EDGE_CURVE('',#380,#383,#450,.T.);
#297=EDGE_CURVE('',#382,#384,#451,.T.);
#298=EDGE_CURVE('',#385,#384,#452,.T.);
#299=EDGE_CURVE('',#383,#385,#453,.T.);
#300=EDGE_CURVE('',#386,#386,#82,.T.);
#301=EDGE_CURVE('',#387,#387,#83,.T.);
#302=EDGE_CURVE('',#379,#384,#454,.T.);
#303=EDGE_CURVE('',#381,#385,#455,.T.);
#304=EDGE_CURVE('',#388,#389,#456,.T.);
#305=EDGE_CURVE('',#390,#388,#457,.T.);
#306=EDGE_CURVE('',#390,#391,#458,.T.);
#307=EDGE_CURVE('',#391,#389,#459,.T.);
#308=EDGE_CURVE('',#388,#392,#460,.T.);
#309=EDGE_CURVE('',#393,#392,#461,.T.);
#310=EDGE_CURVE('',#390,#393,#462,.T.);
#311=EDGE_CURVE('',#392,#394,#463,.T.);
#312=EDGE_CURVE('',#395,#394,#464,.T.);
#313=EDGE_CURVE('',#393,#395,#465,.T.);
#314=EDGE_CURVE('',#389,#394,#466,.T.);
#315=EDGE_CURVE('',#391,#395,#467,.T.);
#316=EDGE_CURVE('',#396,#396,#84,.T.);
#317=EDGE_CURVE('',#397,#397,#85,.T.);
#318=EDGE_CURVE('',#398,#399,#468,.T.);
#319=EDGE_CURVE('',#400,#399,#469,.T.);
#320=EDGE_CURVE('',#401,#400,#470,.T.);
#321=EDGE_CURVE('',#401,#398,#471,.T.);
#322=EDGE_CURVE('',#398,#402,#472,.T.);
#323=EDGE_CURVE('',#401,#403,#473,.T.);
#324=EDGE_CURVE('',#403,#402,#474,.T.);
#325=EDGE_CURVE('',#402,#404,#475,.T.);
#326=EDGE_CURVE('',#403,#405,#476,.T.);
#327=EDGE_CURVE('',#405,#404,#477,.T.);
#328=EDGE_CURVE('',#399,#404,#478,.T.);
#329=EDGE_CURVE('',#400,#405,#479,.T.);
#330=EDGE_CURVE('',#406,#407,#480,.T.);
#331=EDGE_CURVE('',#408,#406,#481,.T.);
#332=EDGE_CURVE('',#408,#409,#482,.T.);
#333=EDGE_CURVE('',#409,#407,#483,.T.);
#334=EDGE_CURVE('',#406,#410,#484,.T.);
#335=EDGE_CURVE('',#411,#410,#485,.T.);
#336=EDGE_CURVE('',#408,#411,#486,.T.);
#337=EDGE_CURVE('',#410,#412,#487,.T.);
#338=EDGE_CURVE('',#413,#412,#488,.T.);
#339=EDGE_CURVE('',#411,#413,#489,.T.);
#340=EDGE_CURVE('',#407,#412,#490,.T.);
#341=EDGE_CURVE('',#409,#413,#491,.T.);
#342=EDGE_CURVE('',#414,#415,#492,.T.);
#343=EDGE_CURVE('',#416,#414,#493,.T.);
#344=EDGE_CURVE('',#416,#417,#494,.T.);
#345=EDGE_CURVE('',#417,#415,#495,.T.);
#346=EDGE_CURVE('',#414,#418,#496,.T.);
#347=EDGE_CURVE('',#419,#418,#497,.T.);
#348=EDGE_CURVE('',#416,#419,#498,.T.);
#349=EDGE_CURVE('',#418,#420,#499,.T.);
#350=EDGE_CURVE('',#421,#420,#500,.T.);
#351=EDGE_CURVE('',#419,#421,#501,.T.);
#352=EDGE_CURVE('',#415,#420,#502,.T.);
#353=EDGE_CURVE('',#417,#421,#503,.T.);
#354=EDGE_CURVE('',#422,#423,#504,.T.);
#355=EDGE_CURVE('',#424,#422,#505,.T.);
#356=EDGE_CURVE('',#424,#425,#506,.T.);
#357=EDGE_CURVE('',#425,#423,#507,.T.);
#358=EDGE_CURVE('',#422,#426,#508,.T.);
#359=EDGE_CURVE('',#427,#426,#509,.T.);
#360=EDGE_CURVE('',#424,#427,#510,.T.);
#361=EDGE_CURVE('',#426,#428,#511,.T.);
#362=EDGE_CURVE('',#429,#428,#512,.T.);
#363=EDGE_CURVE('',#427,#429,#513,.T.);
#364=EDGE_CURVE('',#430,#430,#86,.T.);
#365=EDGE_CURVE('',#431,#431,#87,.T.);
#366=EDGE_CURVE('',#423,#428,#514,.T.);
#367=EDGE_CURVE('',#425,#429,#515,.T.);
#368=VERTEX_POINT('',#1179);
#369=VERTEX_POINT('',#1180);
#370=VERTEX_POINT('',#1182);
#371=VERTEX_POINT('',#1184);
#372=VERTEX_POINT('',#1188);
#373=VERTEX_POINT('',#1190);
#374=VERTEX_POINT('',#1194);
#375=VERTEX_POINT('',#1196);
#376=VERTEX_POINT('',#1203);
#377=VERTEX_POINT('',#1205);
#378=VERTEX_POINT('',#1211);
#379=VERTEX_POINT('',#1212);
#380=VERTEX_POINT('',#1214);
#381=VERTEX_POINT('',#1216);
#382=VERTEX_POINT('',#1220);
#383=VERTEX_POINT('',#1222);
#384=VERTEX_POINT('',#1226);
#385=VERTEX_POINT('',#1228);
#386=VERTEX_POINT('',#1232);
#387=VERTEX_POINT('',#1234);
#388=VERTEX_POINT('',#1245);
#389=VERTEX_POINT('',#1246);
#390=VERTEX_POINT('',#1248);
#391=VERTEX_POINT('',#1250);
#392=VERTEX_POINT('',#1254);
#393=VERTEX_POINT('',#1256);
#394=VERTEX_POINT('',#1260);
#395=VERTEX_POINT('',#1262);
#396=VERTEX_POINT('',#1269);
#397=VERTEX_POINT('',#1271);
#398=VERTEX_POINT('',#1277);
#399=VERTEX_POINT('',#1278);
#400=VERTEX_POINT('',#1280);
#401=VERTEX_POINT('',#1282);
#402=VERTEX_POINT('',#1286);
#403=VERTEX_POINT('',#1288);
#404=VERTEX_POINT('',#1292);
#405=VERTEX_POINT('',#1294);
#406=VERTEX_POINT('',#1304);
#407=VERTEX_POINT('',#1305);
#408=VERTEX_POINT('',#1307);
#409=VERTEX_POINT('',#1309);
#410=VERTEX_POINT('',#1313);
#411=VERTEX_POINT('',#1315);
#412=VERTEX_POINT('',#1319);
#413=VERTEX_POINT('',#1321);
#414=VERTEX_POINT('',#1332);
#415=VERTEX_POINT('',#1333);
#416=VERTEX_POINT('',#1335);
#417=VERTEX_POINT('',#1337);
#418=VERTEX_POINT('',#1341);
#419=VERTEX_POINT('',#1343);
#420=VERTEX_POINT('',#1347);
#421=VERTEX_POINT('',#1349);
#422=VERTEX_POINT('',#1360);
#423=VERTEX_POINT('',#1361);
#424=VERTEX_POINT('',#1363);
#425=VERTEX_POINT('',#1365);
#426=VERTEX_POINT('',#1369);
#427=VERTEX_POINT('',#1371);
#428=VERTEX_POINT('',#1375);
#429=VERTEX_POINT('',#1377);
#430=VERTEX_POINT('',#1381);
#431=VERTEX_POINT('',#1383);
#432=LINE('',#1178,#516);
#433=LINE('',#1181,#517);
#434=LINE('',#1183,#518);
#435=LINE('',#1185,#519);
#436=LINE('',#1187,#520);
#437=LINE('',#1189,#521);
#438=LINE('',#1191,#522);
#439=LINE('',#1193,#523);
#440=LINE('',#1195,#524);
#441=LINE('',#1197,#525);
#442=LINE('',#1199,#526);
#443=LINE('',#1200,#527);
#444=LINE('',#1210,#528);
#445=LINE('',#1213,#529);
#446=LINE('',#1215,#530);
#447=LINE('',#1217,#531);
#448=LINE('',#1219,#532);
#449=LINE('',#1221,#533);
#450=LINE('',#1223,#534);
#451=LINE('',#1225,#535);
#452=LINE('',#1227,#536);
#453=LINE('',#1229,#537);
#454=LINE('',#1236,#538);
#455=LINE('',#1237,#539);
#456=LINE('',#1244,#540);
#457=LINE('',#1247,#541);
#458=LINE('',#1249,#542);
#459=LINE('',#1251,#543);
#460=LINE('',#1253,#544);
#461=LINE('',#1255,#545);
#462=LINE('',#1257,#546);
#463=LINE('',#1259,#547);
#464=LINE('',#1261,#548);
#465=LINE('',#1263,#549);
#466=LINE('',#1265,#550);
#467=LINE('',#1266,#551);
#468=LINE('',#1276,#552);
#469=LINE('',#1279,#553);
#470=LINE('',#1281,#554);
#471=LINE('',#1283,#555);
#472=LINE('',#1285,#556);
#473=LINE('',#1287,#557);
#474=LINE('',#1289,#558);
#475=LINE('',#1291,#559);
#476=LINE('',#1293,#560);
#477=LINE('',#1295,#561);
#478=LINE('',#1297,#562);
#479=LINE('',#1298,#563);
#480=LINE('',#1303,#564);
#481=LINE('',#1306,#565);
#482=LINE('',#1308,#566);
#483=LINE('',#1310,#567);
#484=LINE('',#1312,#568);
#485=LINE('',#1314,#569);
#486=LINE('',#1316,#570);
#487=LINE('',#1318,#571);
#488=LINE('',#1320,#572);
#489=LINE('',#1322,#573);
#490=LINE('',#1324,#574);
#491=LINE('',#1325,#575);
#492=LINE('',#1331,#576);
#493=LINE('',#1334,#577);
#494=LINE('',#1336,#578);
#495=LINE('',#1338,#579);
#496=LINE('',#1340,#580);
#497=LINE('',#1342,#581);
#498=LINE('',#1344,#582);
#499=LINE('',#1346,#583);
#500=LINE('',#1348,#584);
#501=LINE('',#1350,#585);
#502=LINE('',#1352,#586);
#503=LINE('',#1353,#587);
#504=LINE('',#1359,#588);
#505=LINE('',#1362,#589);
#506=LINE('',#1364,#590);
#507=LINE('',#1366,#591);
#508=LINE('',#1368,#592);
#509=LINE('',#1370,#593);
#510=LINE('',#1372,#594);
#511=LINE('',#1374,#595);
#512=LINE('',#1376,#596);
#513=LINE('',#1378,#597);
#514=LINE('',#1385,#598);
#515=LINE('',#1386,#599);
#516=VECTOR('',#958,1.);
#517=VECTOR('',#959,1.);
#518=VECTOR('',#960,1.);
#519=VECTOR('',#961,1.);
#520=VECTOR('',#964,1.);
#521=VECTOR('',#965,1.);
#522=VECTOR('',#966,1.);
#523=VECTOR('',#969,1.);
#524=VECTOR('',#970,1.);
#525=VECTOR('',#971,1.);
#526=VECTOR('',#974,1.);
#527=VECTOR('',#975,1.);
#528=VECTOR('',#990,1.);
#529=VECTOR('',#991,1.);
#530=VECTOR('',#992,1.);
#531=VECTOR('',#993,1.);
#532=VECTOR('',#996,1.);
#533=VECTOR('',#997,1.);
#534=VECTOR('',#998,1.);
#535=VECTOR('',#1001,1.);
#536=VECTOR('',#1002,1.);
#537=VECTOR('',#1003,1.);
#538=VECTOR('',#1012,1.);
#539=VECTOR('',#1013,1.);
#540=VECTOR('',#1026,1.);
#541=VECTOR('',#1027,1.);
#542=VECTOR('',#1028,1.);
#543=VECTOR('',#1029,1.);
#544=VECTOR('',#1032,1.);
#545=VECTOR('',#1033,1.);
#546=VECTOR('',#1034,1.);
#547=VECTOR('',#1037,1.);
#548=VECTOR('',#1038,1.);
#549=VECTOR('',#1039,1.);
#550=VECTOR('',#1042,1.);
#551=VECTOR('',#1043,1.);
#552=VECTOR('',#1058,1.);
#553=VECTOR('',#1059,1.);
#554=VECTOR('',#1060,1.);
#555=VECTOR('',#1061,1.);
#556=VECTOR('',#1064,1.);
#557=VECTOR('',#1065,1.);
#558=VECTOR('',#1066,1.);
#559=VECTOR('',#1069,1.);
#560=VECTOR('',#1070,1.);
#561=VECTOR('',#1071,1.);
#562=VECTOR('',#1074,1.);
#563=VECTOR('',#1075,1.);
#564=VECTOR('',#1084,1.);
#565=VECTOR('',#1085,1.);
#566=VECTOR('',#1086,1.);
#567=VECTOR('',#1087,1.);
#568=VECTOR('',#1090,1.);
#569=VECTOR('',#1091,1.);
#570=VECTOR('',#1092,1.);
#571=VECTOR('',#1095,1.);
#572=VECTOR('',#1096,1.);
#573=VECTOR('',#1097,1.);
#574=VECTOR('',#1100,1.);
#575=VECTOR('',#1101,1.);
#576=VECTOR('',#1112,1.);
#577=VECTOR('',#1113,1.);
#578=VECTOR('',#1114,1.);
#579=VECTOR('',#1115,1.);
#580=VECTOR('',#1118,1.);
#581=VECTOR('',#1119,1.);
#582=VECTOR('',#1120,1.);
#583=VECTOR('',#1123,1.);
#584=VECTOR('',#1124,1.);
#585=VECTOR('',#1125,1.);
#586=VECTOR('',#1128,1.);
#587=VECTOR('',#1129,1.);
#588=VECTOR('',#1140,1.);
#589=VECTOR('',#1141,1.);
#590=VECTOR('',#1142,1.);
#591=VECTOR('',#1143,1.);
#592=VECTOR('',#1146,1.);
#593=VECTOR('',#1147,1.);
#594=VECTOR('',#1148,1.);
#595=VECTOR('',#1151,1.);
#596=VECTOR('',#1152,1.);
#597=VECTOR('',#1153,1.);
#598=VECTOR('',#1162,1.);
#599=VECTOR('',#1163,1.);
#600=EDGE_LOOP('',(#92,#93,#94,#95));
#601=EDGE_LOOP('',(#96,#97,#98,#99));
#602=EDGE_LOOP('',(#100,#101,#102,#103));
#603=EDGE_LOOP('',(#104,#105,#106,#107));
#604=EDGE_LOOP('',(#108));
#605=EDGE_LOOP('',(#109));
#606=EDGE_LOOP('',(#110,#111,#112,#113));
#607=EDGE_LOOP('',(#114));
#608=EDGE_LOOP('',(#115,#116,#117,#118));
#609=EDGE_LOOP('',(#119));
#610=EDGE_LOOP('',(#120,#121,#122,#123));
#611=EDGE_LOOP('',(#124,#125,#126,#127));
#612=EDGE_LOOP('',(#128,#129,#130,#131));
#613=EDGE_LOOP('',(#132));
#614=EDGE_LOOP('',(#133));
#615=EDGE_LOOP('',(#134,#135,#136,#137));
#616=EDGE_LOOP('',(#138));
#617=EDGE_LOOP('',(#139,#140,#141,#142));
#618=EDGE_LOOP('',(#143));
#619=EDGE_LOOP('',(#144,#145,#146,#147));
#620=EDGE_LOOP('',(#148,#149,#150,#151));
#621=EDGE_LOOP('',(#152,#153,#154,#155));
#622=EDGE_LOOP('',(#156,#157,#158,#159));
#623=EDGE_LOOP('',(#160,#161,#162,#163));
#624=EDGE_LOOP('',(#164));
#625=EDGE_LOOP('',(#165));
#626=EDGE_LOOP('',(#166,#167,#168,#169));
#627=EDGE_LOOP('',(#170));
#628=EDGE_LOOP('',(#171,#172,#173,#174));
#629=EDGE_LOOP('',(#175));
#630=EDGE_LOOP('',(#176,#177,#178,#179));
#631=EDGE_LOOP('',(#180,#181,#182,#183));
#632=EDGE_LOOP('',(#184,#185,#186,#187));
#633=EDGE_LOOP('',(#188,#189,#190,#191));
#634=EDGE_LOOP('',(#192,#193,#194,#195));
#635=EDGE_LOOP('',(#196,#197,#198,#199));
#636=EDGE_LOOP('',(#200,#201,#202,#203));
#637=EDGE_LOOP('',(#204,#205,#206,#207));
#638=EDGE_LOOP('',(#208,#209,#210,#211));
#639=EDGE_LOOP('',(#212,#213,#214,#215));
#640=EDGE_LOOP('',(#216,#217,#218,#219));
#641=EDGE_LOOP('',(#220,#221,#222,#223));
#642=EDGE_LOOP('',(#224,#225,#226,#227));
#643=EDGE_LOOP('',(#228,#229,#230,#231));
#644=EDGE_LOOP('',(#232,#233,#234,#235));
#645=EDGE_LOOP('',(#236,#237,#238,#239));
#646=EDGE_LOOP('',(#240,#241,#242,#243));
#647=EDGE_LOOP('',(#244,#245,#246,#247));
#648=EDGE_LOOP('',(#248,#249,#250,#251));
#649=EDGE_LOOP('',(#252,#253,#254,#255));
#650=EDGE_LOOP('',(#256,#257,#258,#259));
#651=EDGE_LOOP('',(#260));
#652=EDGE_LOOP('',(#261));
#653=EDGE_LOOP('',(#262,#263,#264,#265));
#654=EDGE_LOOP('',(#266));
#655=EDGE_LOOP('',(#267,#268,#269,#270));
#656=EDGE_LOOP('',(#271));
#657=EDGE_LOOP('',(#272,#273,#274,#275));
#658=FACE_BOUND('',#600,.T.);
#659=FACE_BOUND('',#601,.T.);
#660=FACE_BOUND('',#602,.T.);
#661=FACE_BOUND('',#603,.T.);
#662=FACE_BOUND('',#604,.T.);
#663=FACE_BOUND('',#605,.T.);
#664=FACE_BOUND('',#606,.T.);
#665=FACE_BOUND('',#607,.T.);
#666=FACE_BOUND('',#608,.T.);
#667=FACE_BOUND('',#609,.T.);
#668=FACE_BOUND('',#610,.T.);
#669=FACE_BOUND('',#611,.T.);
#670=FACE_BOUND('',#612,.T.);
#671=FACE_BOUND('',#613,.T.);
#672=FACE_BOUND('',#614,.T.);
#673=FACE_BOUND('',#615,.T.);
#674=FACE_BOUND('',#616,.T.);
#675=FACE_BOUND('',#617,.T.);
#676=FACE_BOUND('',#618,.T.);
#677=FACE_BOUND('',#619,.T.);
#678=FACE_BOUND('',#620,.T.);
#679=FACE_BOUND('',#621,.T.);
#680=FACE_BOUND('',#622,.T.);
#681=FACE_BOUND('',#623,.T.);
#682=FACE_BOUND('',#624,.T.);
#683=FACE_BOUND('',#625,.T.);
#684=FACE_BOUND('',#626,.T.);
#685=FACE_BOUND('',#627,.T.);
#686=FACE_BOUND('',#628,.T.);
#687=FACE_BOUND('',#629,.T.);
#688=FACE_BOUND('',#630,.T.);
#689=FACE_BOUND('',#631,.T.);
#690=FACE_BOUND('',#632,.T.);
#691=FACE_BOUND('',#633,.T.);
#692=FACE_BOUND('',#634,.T.);
#693=FACE_BOUND('',#635,.T.);
#694=FACE_BOUND('',#636,.T.);
#695=FACE_BOUND('',#637,.T.);
#696=FACE_BOUND('',#638,.T.);
#697=FACE_BOUND('',#639,.T.);
#698=FACE_BOUND('',#640,.T.);
#699=FACE_BOUND('',#641,.T.);
#700=FACE_BOUND('',#642,.T.);
#701=FACE_BOUND('',#643,.T.);
#702=FACE_BOUND('',#644,.T.);
#703=FACE_BOUND('',#645,.T.);
#704=FACE_BOUND('',#646,.T.);
#705=FACE_BOUND('',#647,.T.);
#706=FACE_BOUND('',#648,.T.);
#707=FACE_BOUND('',#649,.T.);
#708=FACE_BOUND('',#650,.T.);
#709=FACE_BOUND('',#651,.T.);
#710=FACE_BOUND('',#652,.T.);
#711=FACE_BOUND('',#653,.T.);
#712=FACE_BOUND('',#654,.T.);
#713=FACE_BOUND('',#655,.T.);
#714=FACE_BOUND('',#656,.T.);
#715=FACE_BOUND('',#657,.T.);
#716=PLANE('',#886);
#717=PLANE('',#887);
#718=PLANE('',#888);
#719=PLANE('',#889);
#720=PLANE('',#893);
#721=PLANE('',#894);
#722=PLANE('',#896);
#723=PLANE('',#897);
#724=PLANE('',#898);
#725=PLANE('',#902);
#726=PLANE('',#903);
#727=PLANE('',#904);
#728=PLANE('',#908);
#729=PLANE('',#909);
#730=PLANE('',#910);
#731=PLANE('',#911);
#732=PLANE('',#915);
#733=PLANE('',#916);
#734=PLANE('',#918);
#735=PLANE('',#919);
#736=PLANE('',#920);
#737=PLANE('',#921);
#738=PLANE('',#922);
#739=PLANE('',#923);
#740=PLANE('',#925);
#741=PLANE('',#926);
#742=PLANE('',#927);
#743=PLANE('',#928);
#744=PLANE('',#929);
#745=PLANE('',#930);
#746=PLANE('',#933);
#747=PLANE('',#934);
#748=PLANE('',#935);
#749=PLANE('',#936);
#750=PLANE('',#937);
#751=PLANE('',#938);
#752=PLANE('',#941);
#753=PLANE('',#942);
#754=PLANE('',#943);
#755=PLANE('',#947);
#756=PLANE('',#948);
#757=PLANE('',#949);
#758=ADVANCED_FACE('',(#658),#716,.T.);
#759=ADVANCED_FACE('',(#659),#717,.F.);
#760=ADVANCED_FACE('',(#660),#718,.F.);
#761=ADVANCED_FACE('',(#661),#719,.T.);
#762=ADVANCED_FACE('',(#662,#663),#88,.F.);
#763=ADVANCED_FACE('',(#664,#665),#720,.T.);
#764=ADVANCED_FACE('',(#666,#667),#721,.F.);
#765=ADVANCED_FACE('',(#668),#722,.T.);
#766=ADVANCED_FACE('',(#669),#723,.F.);
#767=ADVANCED_FACE('',(#670),#724,.F.);
#768=ADVANCED_FACE('',(#671,#672),#89,.F.);
#769=ADVANCED_FACE('',(#673),#725,.T.);
#770=ADVANCED_FACE('',(#674,#675),#726,.T.);
#771=ADVANCED_FACE('',(#676,#677),#727,.F.);
#772=ADVANCED_FACE('',(#678),#728,.T.);
#773=ADVANCED_FACE('',(#679),#729,.F.);
#774=ADVANCED_FACE('',(#680),#730,.F.);
#775=ADVANCED_FACE('',(#681),#731,.T.);
#776=ADVANCED_FACE('',(#682,#683),#90,.F.);
#777=ADVANCED_FACE('',(#684,#685),#732,.T.);
#778=ADVANCED_FACE('',(#686,#687),#733,.F.);
#779=ADVANCED_FACE('',(#688),#734,.F.);
#780=ADVANCED_FACE('',(#689),#735,.T.);
#781=ADVANCED_FACE('',(#690),#736,.T.);
#782=ADVANCED_FACE('',(#691),#737,.F.);
#783=ADVANCED_FACE('',(#692),#738,.F.);
#784=ADVANCED_FACE('',(#693),#739,.T.);
#785=ADVANCED_FACE('',(#694),#740,.T.);
#786=ADVANCED_FACE('',(#695),#741,.F.);
#787=ADVANCED_FACE('',(#696),#742,.F.);
#788=ADVANCED_FACE('',(#697),#743,.T.);
#789=ADVANCED_FACE('',(#698),#744,.T.);
#790=ADVANCED_FACE('',(#699),#745,.F.);
#791=ADVANCED_FACE('',(#700),#746,.T.);
#792=ADVANCED_FACE('',(#701),#747,.F.);
#793=ADVANCED_FACE('',(#702),#748,.F.);
#794=ADVANCED_FACE('',(#703),#749,.T.);
#795=ADVANCED_FACE('',(#704),#750,.T.);
#796=ADVANCED_FACE('',(#705),#751,.F.);
#797=ADVANCED_FACE('',(#706),#752,.T.);
#798=ADVANCED_FACE('',(#707),#753,.F.);
#799=ADVANCED_FACE('',(#708),#754,.F.);
#800=ADVANCED_FACE('',(#709,#710),#91,.F.);
#801=ADVANCED_FACE('',(#711),#755,.T.);
#802=ADVANCED_FACE('',(#712,#713),#756,.T.);
#803=ADVANCED_FACE('',(#714,#715),#757,.F.);
#804=CLOSED_SHELL('',(#758,#759,#760,#761,#762,#763,#764));
#805=CLOSED_SHELL('',(#765,#766,#767,#768,#769,#770,#771));
#806=CLOSED_SHELL('',(#772,#773,#774,#775,#776,#777,#778));
#807=CLOSED_SHELL('',(#779,#780,#781,#782,#783,#784));
#808=CLOSED_SHELL('',(#785,#786,#787,#788,#789,#790));
#809=CLOSED_SHELL('',(#791,#792,#793,#794,#795,#796));
#810=CLOSED_SHELL('',(#797,#798,#799,#800,#801,#802,#803));
#811=STYLED_ITEM('',(#818),#862);
#812=STYLED_ITEM('',(#819),#863);
#813=STYLED_ITEM('',(#820),#864);
#814=STYLED_ITEM('',(#821),#865);
#815=STYLED_ITEM('',(#822),#866);
#816=STYLED_ITEM('',(#823),#867);
#817=STYLED_ITEM('',(#824),#868);
#818=PRESENTATION_STYLE_ASSIGNMENT((#825));
#819=PRESENTATION_STYLE_ASSIGNMENT((#826));
#820=PRESENTATION_STYLE_ASSIGNMENT((#827));
#821=PRESENTATION_STYLE_ASSIGNMENT((#828));
#822=PRESENTATION_STYLE_ASSIGNMENT((#829));
#823=PRESENTATION_STYLE_ASSIGNMENT((#830));
#824=PRESENTATION_STYLE_ASSIGNMENT((#831));
#825=SURFACE_STYLE_USAGE(.BOTH.,#832);
#826=SURFACE_STYLE_USAGE(.BOTH.,#833);
#827=SURFACE_STYLE_USAGE(.BOTH.,#834);
#828=SURFACE_STYLE_USAGE(.BOTH.,#835);
#829=SURFACE_STYLE_USAGE(.BOTH.,#836);
#830=SURFACE_STYLE_USAGE(.BOTH.,#837);
#831=SURFACE_STYLE_USAGE(.BOTH.,#838);
#832=SURFACE_SIDE_STYLE('',(#839));
#833=SURFACE_SIDE_STYLE('',(#840));
#834=SURFACE_SIDE_STYLE('',(#841));
#835=SURFACE_SIDE_STYLE('',(#842));
#836=SURFACE_SIDE_STYLE('',(#843));
#837=SURFACE_SIDE_STYLE('',(#844));
#838=SURFACE_SIDE_STYLE('',(#845));
#839=SURFACE_STYLE_FILL_AREA(#846);
#840=SURFACE_STYLE_FILL_AREA(#847);
#841=SURFACE_STYLE_FILL_AREA(#848);
#842=SURFACE_STYLE_FILL_AREA(#849);
#843=SURFACE_STYLE_FILL_AREA(#850);
#844=SURFACE_STYLE_FILL_AREA(#851);
#845=SURFACE_STYLE_FILL_AREA(#852);
#846=FILL_AREA_STYLE('',(#853));
#847=FILL_AREA_STYLE('',(#854));
#848=FILL_AREA_STYLE('',(#855));
#849=FILL_AREA_STYLE('',(#856));
#850=FILL_AREA_STYLE('',(#857));
#851=FILL_AREA_STYLE('',(#858));
#852=FILL_AREA_STYLE('',(#859));
#853=FILL_AREA_STYLE_COLOUR('',#860);
#854=FILL_AREA_STYLE_COLOUR('',#860);
#855=FILL_AREA_STYLE_COLOUR('',#860);
#856=FILL_AREA_STYLE_COLOUR('',#861);
#857=FILL_AREA_STYLE_COLOUR('',#861);
#858=FILL_AREA_STYLE_COLOUR('',#861);
#859=FILL_AREA_STYLE_COLOUR('',#860);
#860=COLOUR_RGB('',0.647058823529412,0.647058823529412,0.647058823529412);
#861=COLOUR_RGB('',0.713725490196078,0.76078431372549,0.8);
#862=MANIFOLD_SOLID_BREP('Part 1',#804);
#863=MANIFOLD_SOLID_BREP('Part 2',#805);
#864=MANIFOLD_SOLID_BREP('Part 3',#806);
#865=MANIFOLD_SOLID_BREP('Part 8',#807);
#866=MANIFOLD_SOLID_BREP('Part 5',#808);
#867=MANIFOLD_SOLID_BREP('Part 9',#809);
#868=MANIFOLD_SOLID_BREP('Part 4',#810);
#869=SHAPE_DEFINITION_REPRESENTATION(#1413,#877);
#870=SHAPE_DEFINITION_REPRESENTATION(#1414,#878);
#871=SHAPE_DEFINITION_REPRESENTATION(#1416,#879);
#872=SHAPE_DEFINITION_REPRESENTATION(#1420,#880);
#873=SHAPE_DEFINITION_REPRESENTATION(#1422,#881);
#874=SHAPE_DEFINITION_REPRESENTATION(#1424,#882);
#875=SHAPE_DEFINITION_REPRESENTATION(#1427,#883);
#876=SHAPE_DEFINITION_REPRESENTATION(#1430,#884);
#877=SHAPE_REPRESENTATION('Assembly 1 Copy 1',(#885,#895,#905,#906,#907,
#917,#924,#931,#932,#939,#940,#950,#951,#952,#953),#1394);
#878=SHAPE_REPRESENTATION('Part 1',(#885),#1395);
#879=SHAPE_REPRESENTATION('Part 2',(#885),#1396);
#880=SHAPE_REPRESENTATION('Part 3',(#885),#1397);
#881=SHAPE_REPRESENTATION('Part 8',(#885),#1398);
#882=SHAPE_REPRESENTATION('Part 5',(#885),#1399);
#883=SHAPE_REPRESENTATION('Part 9',(#885),#1400);
#884=SHAPE_REPRESENTATION('Part 4',(#885),#1401);
#885=AXIS2_PLACEMENT_3D('',#1176,#954,#955);
#886=AXIS2_PLACEMENT_3D('',#1177,#956,#957);
#887=AXIS2_PLACEMENT_3D('',#1186,#962,#963);
#888=AXIS2_PLACEMENT_3D('',#1192,#967,#968);
#889=AXIS2_PLACEMENT_3D('',#1198,#972,#973);
#890=AXIS2_PLACEMENT_3D('',#1201,#976,#977);
#891=AXIS2_PLACEMENT_3D('',#1202,#978,#979);
#892=AXIS2_PLACEMENT_3D('',#1204,#980,#981);
#893=AXIS2_PLACEMENT_3D('',#1206,#982,#983);
#894=AXIS2_PLACEMENT_3D('',#1207,#984,#985);
#895=AXIS2_PLACEMENT_3D('',#1208,#986,#987);
#896=AXIS2_PLACEMENT_3D('',#1209,#988,#989);
#897=AXIS2_PLACEMENT_3D('',#1218,#994,#995);
#898=AXIS2_PLACEMENT_3D('',#1224,#999,#1000);
#899=AXIS2_PLACEMENT_3D('',#1230,#1004,#1005);
#900=AXIS2_PLACEMENT_3D('',#1231,#1006,#1007);
#901=AXIS2_PLACEMENT_3D('',#1233,#1008,#1009);
#902=AXIS2_PLACEMENT_3D('',#1235,#1010,#1011);
#903=AXIS2_PLACEMENT_3D('',#1238,#1014,#1015);
#904=AXIS2_PLACEMENT_3D('',#1239,#1016,#1017);
#905=AXIS2_PLACEMENT_3D('',#1240,#1018,#1019);
#906=AXIS2_PLACEMENT_3D('',#1241,#1020,#1021);
#907=AXIS2_PLACEMENT_3D('',#1242,#1022,#1023);
#908=AXIS2_PLACEMENT_3D('',#1243,#1024,#1025);
#909=AXIS2_PLACEMENT_3D('',#1252,#1030,#1031);
#910=AXIS2_PLACEMENT_3D('',#1258,#1035,#1036);
#911=AXIS2_PLACEMENT_3D('',#1264,#1040,#1041);
#912=AXIS2_PLACEMENT_3D('',#1267,#1044,#1045);
#913=AXIS2_PLACEMENT_3D('',#1268,#1046,#1047);
#914=AXIS2_PLACEMENT_3D('',#1270,#1048,#1049);
#915=AXIS2_PLACEMENT_3D('',#1272,#1050,#1051);
#916=AXIS2_PLACEMENT_3D('',#1273,#1052,#1053);
#917=AXIS2_PLACEMENT_3D('',#1274,#1054,#1055);
#918=AXIS2_PLACEMENT_3D('',#1275,#1056,#1057);
#919=AXIS2_PLACEMENT_3D('',#1284,#1062,#1063);
#920=AXIS2_PLACEMENT_3D('',#1290,#1067,#1068);
#921=AXIS2_PLACEMENT_3D('',#1296,#1072,#1073);
#922=AXIS2_PLACEMENT_3D('',#1299,#1076,#1077);
#923=AXIS2_PLACEMENT_3D('',#1300,#1078,#1079);
#924=AXIS2_PLACEMENT_3D('',#1301,#1080,#1081);
#925=AXIS2_PLACEMENT_3D('',#1302,#1082,#1083);
#926=AXIS2_PLACEMENT_3D('',#1311,#1088,#1089);
#927=AXIS2_PLACEMENT_3D('',#1317,#1093,#1094);
#928=AXIS2_PLACEMENT_3D('',#1323,#1098,#1099);
#929=AXIS2_PLACEMENT_3D('',#1326,#1102,#1103);
#930=AXIS2_PLACEMENT_3D('',#1327,#1104,#1105);
#931=AXIS2_PLACEMENT_3D('',#1328,#1106,#1107);
#932=AXIS2_PLACEMENT_3D('',#1329,#1108,#1109);
#933=AXIS2_PLACEMENT_3D('',#1330,#1110,#1111);
#934=AXIS2_PLACEMENT_3D('',#1339,#1116,#1117);
#935=AXIS2_PLACEMENT_3D('',#1345,#1121,#1122);
#936=AXIS2_PLACEMENT_3D('',#1351,#1126,#1127);
#937=AXIS2_PLACEMENT_3D('',#1354,#1130,#1131);
#938=AXIS2_PLACEMENT_3D('',#1355,#1132,#1133);
#939=AXIS2_PLACEMENT_3D('',#1356,#1134,#1135);
#940=AXIS2_PLACEMENT_3D('',#1357,#1136,#1137);
#941=AXIS2_PLACEMENT_3D('',#1358,#1138,#1139);
#942=AXIS2_PLACEMENT_3D('',#1367,#1144,#1145);
#943=AXIS2_PLACEMENT_3D('',#1373,#1149,#1150);
#944=AXIS2_PLACEMENT_3D('',#1379,#1154,#1155);
#945=AXIS2_PLACEMENT_3D('',#1380,#1156,#1157);
#946=AXIS2_PLACEMENT_3D('',#1382,#1158,#1159);
#947=AXIS2_PLACEMENT_3D('',#1384,#1160,#1161);
#948=AXIS2_PLACEMENT_3D('',#1387,#1164,#1165);
#949=AXIS2_PLACEMENT_3D('',#1388,#1166,#1167);
#950=AXIS2_PLACEMENT_3D('',#1389,#1168,#1169);
#951=AXIS2_PLACEMENT_3D('',#1390,#1170,#1171);
#952=AXIS2_PLACEMENT_3D('',#1391,#1172,#1173);
#953=AXIS2_PLACEMENT_3D('',#1392,#1174,#1175);
#954=DIRECTION('',(0.,0.,1.));
#955=DIRECTION('',(1.,0.,0.));
#956=DIRECTION('',(-1.,0.,0.));
#957=DIRECTION('',(0.,0.,1.));
#958=DIRECTION('',(0.,1.,0.));
#959=DIRECTION('',(0.,0.,-1.));
#960=DIRECTION('',(0.,1.,0.));
#961=DIRECTION('',(0.,0.,-1.));
#962=DIRECTION('',(0.,1.,0.));
#963=DIRECTION('',(0.,0.,1.));
#964=DIRECTION('',(1.,0.,0.));
#965=DIRECTION('',(0.,0.,-1.));
#966=DIRECTION('',(1.,0.,0.));
#967=DIRECTION('',(-1.,0.,0.));
#968=DIRECTION('',(0.,0.,1.));
#969=DIRECTION('',(0.,1.,0.));
#970=DIRECTION('',(0.,0.,-1.));
#971=DIRECTION('',(0.,1.,0.));
#972=DIRECTION('',(0.,1.,0.));
#973=DIRECTION('',(0.,0.,1.));
#974=DIRECTION('',(1.,0.,0.));
#975=DIRECTION('',(1.,0.,0.));
#976=DIRECTION('',(0.,0.,-1.));
#977=DIRECTION('',(-1.,0.,0.));
#978=DIRECTION('',(0.,0.,1.));
#979=DIRECTION('',(1.,0.,0.));
#980=DIRECTION('',(0.,0.,1.));
#981=DIRECTION('',(1.,0.,0.));
#982=DIRECTION('',(0.,0.,1.));
#983=DIRECTION('',(1.,0.,0.));
#984=DIRECTION('',(0.,0.,1.));
#985=DIRECTION('',(1.,0.,0.));
#986=DIRECTION('',(0.,0.,1.));
#987=DIRECTION('',(1.,0.,0.));
#988=DIRECTION('',(0.,1.,0.));
#989=DIRECTION('',(0.,0.,1.));
#990=DIRECTION('',(1.,0.,0.));
#991=DIRECTION('',(0.,0.,-1.));
#992=DIRECTION('',(1.,0.,0.));
#993=DIRECTION('',(0.,0.,-1.));
#994=DIRECTION('',(1.,0.,0.));
#995=DIRECTION('',(0.,0.,-1.));
#996=DIRECTION('',(0.,-1.,0.));
#997=DIRECTION('',(0.,0.,-1.));
#998=DIRECTION('',(0.,-1.,0.));
#999=DIRECTION('',(0.,1.,0.));
#1000=DIRECTION('',(0.,0.,1.));
#1001=DIRECTION('',(1.,0.,0.));
#1002=DIRECTION('',(0.,0.,-1.));
#1003=DIRECTION('',(1.,0.,0.));
#1004=DIRECTION('',(0.,0.,-1.));
#1005=DIRECTION('',(-1.,0.,0.));
#1006=DIRECTION('',(0.,0.,1.));
#1007=DIRECTION('',(1.,0.,0.));
#1008=DIRECTION('',(0.,0.,1.));
#1009=DIRECTION('',(1.,0.,0.));
#1010=DIRECTION('',(1.,0.,0.));
#1011=DIRECTION('',(0.,0.,-1.));
#1012=DIRECTION('',(0.,-1.,0.));
#1013=DIRECTION('',(0.,-1.,0.));
#1014=DIRECTION('',(0.,0.,1.));
#1015=DIRECTION('',(1.,0.,0.));
#1016=DIRECTION('',(0.,0.,1.));
#1017=DIRECTION('',(1.,0.,0.));
#1018=DIRECTION('',(0.,0.,1.));
#1019=DIRECTION('',(1.,0.,0.));
#1020=DIRECTION('',(0.,0.,1.));
#1021=DIRECTION('',(1.,0.,0.));
#1022=DIRECTION('',(0.,0.,1.));
#1023=DIRECTION('',(1.,0.,0.));
#1024=DIRECTION('',(-1.,0.,0.));
#1025=DIRECTION('',(0.,0.,1.));
#1026=DIRECTION('',(0.,1.,0.));
#1027=DIRECTION('',(0.,0.,-1.));
#1028=DIRECTION('',(0.,1.,0.));
#1029=DIRECTION('',(0.,0.,-1.));
#1030=DIRECTION('',(0.,1.,0.));
#1031=DIRECTION('',(0.,0.,1.));
#1032=DIRECTION('',(1.,0.,0.));
#1033=DIRECTION('',(0.,0.,-1.));
#1034=DIRECTION('',(1.,0.,0.));
#1035=DIRECTION('',(-1.,0.,0.));
#1036=DIRECTION('',(0.,0.,1.));
#1037=DIRECTION('',(0.,1.,0.));
#1038=DIRECTION('',(0.,0.,-1.));
#1039=DIRECTION('',(0.,1.,0.));
#1040=DIRECTION('',(0.,1.,0.));
#1041=DIRECTION('',(0.,0.,1.));
#1042=DIRECTION('',(1.,0.,0.));
#1043=DIRECTION('',(1.,0.,0.));
#1044=DIRECTION('',(0.,0.,-1.));
#1045=DIRECTION('',(-1.,0.,0.));
#1046=DIRECTION('',(0.,0.,1.));
#1047=DIRECTION('',(1.,0.,0.));
#1048=DIRECTION('',(0.,0.,1.));
#1049=DIRECTION('',(1.,0.,0.));
#1050=DIRECTION('',(0.,0.,1.));
#1051=DIRECTION('',(1.,0.,0.));
#1052=DIRECTION('',(0.,0.,1.));
#1053=DIRECTION('',(1.,0.,0.));
#1054=DIRECTION('',(0.,0.,1.));
#1055=DIRECTION('',(1.,0.,0.));
#1056=DIRECTION('',(0.,-1.,0.));
#1057=DIRECTION('',(0.,0.,-1.));
#1058=DIRECTION('',(1.,0.,0.));
#1059=DIRECTION('',(0.,0.,1.));
#1060=DIRECTION('',(1.,0.,0.));
#1061=DIRECTION('',(0.,0.,1.));
#1062=DIRECTION('',(-1.,0.,0.));
#1063=DIRECTION('',(0.,0.,1.));
#1064=DIRECTION('',(0.,-1.,0.));
#1065=DIRECTION('',(0.,-1.,0.));
#1066=DIRECTION('',(0.,0.,1.));
#1067=DIRECTION('',(0.,-1.,0.));
#1068=DIRECTION('',(0.,0.,-1.));
#1069=DIRECTION('',(1.,0.,0.));
#1070=DIRECTION('',(1.,0.,0.));
#1071=DIRECTION('',(0.,0.,1.));
#1072=DIRECTION('',(-1.,0.,0.));
#1073=DIRECTION('',(0.,0.,1.));
#1074=DIRECTION('',(0.,-1.,0.));
#1075=DIRECTION('',(0.,-1.,0.));
#1076=DIRECTION('',(0.,0.,1.));
#1077=DIRECTION('',(1.,0.,0.));
#1078=DIRECTION('',(0.,0.,1.));
#1079=DIRECTION('',(1.,0.,0.));
#1080=DIRECTION('',(0.,0.,1.));
#1081=DIRECTION('',(1.,0.,0.));
#1082=DIRECTION('',(0.,1.,0.));
#1083=DIRECTION('',(0.,0.,1.));
#1084=DIRECTION('',(1.,0.,0.));
#1085=DIRECTION('',(0.,0.,-1.));
#1086=DIRECTION('',(1.,0.,0.));
#1087=DIRECTION('',(0.,0.,-1.));
#1088=DIRECTION('',(1.,0.,0.));
#1089=DIRECTION('',(0.,0.,-1.));
#1090=DIRECTION('',(0.,-1.,0.));
#1091=DIRECTION('',(0.,0.,-1.));
#1092=DIRECTION('',(0.,-1.,0.));
#1093=DIRECTION('',(0.,1.,0.));
#1094=DIRECTION('',(0.,0.,1.));
#1095=DIRECTION('',(1.,0.,0.));
#1096=DIRECTION('',(0.,0.,-1.));
#1097=DIRECTION('',(1.,0.,0.));
#1098=DIRECTION('',(1.,0.,0.));
#1099=DIRECTION('',(0.,0.,-1.));
#1100=DIRECTION('',(0.,-1.,0.));
#1101=DIRECTION('',(0.,-1.,0.));
#1102=DIRECTION('',(0.,0.,1.));
#1103=DIRECTION('',(1.,0.,0.));
#1104=DIRECTION('',(0.,0.,1.));
#1105=DIRECTION('',(1.,0.,0.));
#1106=DIRECTION('',(0.,0.,1.));
#1107=DIRECTION('',(1.,0.,0.));
#1108=DIRECTION('',(0.,0.,1.));
#1109=DIRECTION('',(1.,0.,0.));
#1110=DIRECTION('',(-1.,0.,0.));
#1111=DIRECTION('',(0.,0.,1.));
#1112=DIRECTION('',(0.,1.,0.));
#1113=DIRECTION('',(0.,0.,-1.));
#1114=DIRECTION('',(0.,1.,0.));
#1115=DIRECTION('',(0.,0.,-1.));
#1116=DIRECTION('',(0.,1.,0.));
#1117=DIRECTION('',(0.,0.,1.));
#1118=DIRECTION('',(1.,0.,0.));
#1119=DIRECTION('',(0.,0.,-1.));
#1120=DIRECTION('',(1.,0.,0.));
#1121=DIRECTION('',(-1.,0.,0.));
#1122=DIRECTION('',(0.,0.,1.));
#1123=DIRECTION('',(0.,1.,0.));
#1124=DIRECTION('',(0.,0.,-1.));
#1125=DIRECTION('',(0.,1.,0.));
#1126=DIRECTION('',(0.,1.,0.));
#1127=DIRECTION('',(0.,0.,1.));
#1128=DIRECTION('',(1.,0.,0.));
#1129=DIRECTION('',(1.,0.,0.));
#1130=DIRECTION('',(0.,0.,1.));
#1131=DIRECTION('',(1.,0.,0.));
#1132=DIRECTION('',(0.,0.,1.));
#1133=DIRECTION('',(1.,0.,0.));
#1134=DIRECTION('',(0.,0.,1.));
#1135=DIRECTION('',(1.,0.,0.));
#1136=DIRECTION('',(0.,0.,1.));
#1137=DIRECTION('',(1.,0.,0.));
#1138=DIRECTION('',(0.,1.,0.));
#1139=DIRECTION('',(0.,0.,1.));
#1140=DIRECTION('',(1.,0.,0.));
#1141=DIRECTION('',(0.,0.,-1.));
#1142=DIRECTION('',(1.,0.,0.));
#1143=DIRECTION('',(0.,0.,-1.));
#1144=DIRECTION('',(1.,0.,0.));
#1145=DIRECTION('',(0.,0.,-1.));
#1146=DIRECTION('',(0.,-1.,0.));
#1147=DIRECTION('',(0.,0.,-1.));
#1148=DIRECTION('',(0.,-1.,0.));
#1149=DIRECTION('',(0.,1.,0.));
#1150=DIRECTION('',(0.,0.,1.));
#1151=DIRECTION('',(1.,0.,0.));
#1152=DIRECTION('',(0.,0.,-1.));
#1153=DIRECTION('',(1.,0.,0.));
#1154=DIRECTION('',(0.,0.,-1.));
#1155=DIRECTION('',(-1.,0.,0.));
#1156=DIRECTION('',(0.,0.,1.));
#1157=DIRECTION('',(1.,0.,0.));
#1158=DIRECTION('',(0.,0.,1.));
#1159=DIRECTION('',(1.,0.,0.));
#1160=DIRECTION('',(1.,0.,0.));
#1161=DIRECTION('',(0.,0.,-1.));
#1162=DIRECTION('',(0.,-1.,0.));
#1163=DIRECTION('',(0.,-1.,0.));
#1164=DIRECTION('',(0.,0.,1.));
#1165=DIRECTION('',(1.,0.,0.));
#1166=DIRECTION('',(0.,0.,1.));
#1167=DIRECTION('',(1.,0.,0.));
#1168=DIRECTION('',(0.,0.,1.));
#1169=DIRECTION('',(1.,0.,0.));
#1170=DIRECTION('',(0.,0.,1.));
#1171=DIRECTION('',(1.,0.,0.));
#1172=DIRECTION('',(0.,0.,1.));
#1173=DIRECTION('',(1.,0.,0.));
#1174=DIRECTION('',(0.,0.,1.));
#1175=DIRECTION('',(1.,0.,0.));
#1176=CARTESIAN_POINT('',(0.,0.,0.));
#1177=CARTESIAN_POINT('',(-0.0420687720179558,0.0176980518735945,0.004826));
#1178=CARTESIAN_POINT('',(-0.0420687720179558,0.0176980518735945,0.001016));
#1179=CARTESIAN_POINT('',(-0.0420687720179558,0.014467210508883,0.001016));
#1180=CARTESIAN_POINT('',(-0.0420687720179558,0.020928893238306,0.001016));
#1181=CARTESIAN_POINT('',(-0.0420687720179558,0.014467210508883,0.004826));
#1182=CARTESIAN_POINT('',(-0.0420687720179558,0.014467210508883,0.004826));
#1183=CARTESIAN_POINT('',(-0.0420687720179558,0.0176980518735945,0.004826));
#1184=CARTESIAN_POINT('',(-0.0420687720179558,0.020928893238306,0.004826));
#1185=CARTESIAN_POINT('',(-0.0420687720179558,0.020928893238306,0.004826));
#1186=CARTESIAN_POINT('',(-0.0385686960071326,0.014467210508883,0.004826));
#1187=CARTESIAN_POINT('',(-0.0385686960071326,0.014467210508883,0.001016));
#1188=CARTESIAN_POINT('',(-0.0350686199963093,0.014467210508883,0.001016));
#1189=CARTESIAN_POINT('',(-0.0350686199963093,0.014467210508883,0.004826));
#1190=CARTESIAN_POINT('',(-0.0350686199963093,0.014467210508883,0.004826));
#1191=CARTESIAN_POINT('',(-0.0385686960071326,0.014467210508883,0.004826));
#1192=CARTESIAN_POINT('',(-0.0350686199963093,0.0176980518735945,0.004826));
#1193=CARTESIAN_POINT('',(-0.0350686199963093,0.0176980518735945,0.001016));
#1194=CARTESIAN_POINT('',(-0.0350686199963093,0.020928893238306,0.001016));
#1195=CARTESIAN_POINT('',(-0.0350686199963093,0.020928893238306,0.004826));
#1196=CARTESIAN_POINT('',(-0.0350686199963093,0.020928893238306,0.004826));
#1197=CARTESIAN_POINT('',(-0.0350686199963093,0.0176980518735945,0.004826));
#1198=CARTESIAN_POINT('',(-0.0385686960071326,0.020928893238306,0.004826));
#1199=CARTESIAN_POINT('',(-0.0385686960071326,0.020928893238306,0.001016));
#1200=CARTESIAN_POINT('',(-0.0385686960071326,0.020928893238306,0.004826));
#1201=CARTESIAN_POINT('',(-0.0370475202798844,0.0169148538261652,0.004826));
#1202=CARTESIAN_POINT('',(-0.0370475202798844,0.0169148538261652,0.004826));
#1203=CARTESIAN_POINT('',(-0.035525227410936,0.0169148538261652,0.004826));
#1204=CARTESIAN_POINT('',(-0.0370475202798844,0.0169148538261652,0.001016));
#1205=CARTESIAN_POINT('',(-0.035525227410936,0.0169148538261652,0.001016));
#1206=CARTESIAN_POINT('',(-6.00144267082214E-5,0.00146260485053062,0.004826));
#1207=CARTESIAN_POINT('',(-6.00144267082214E-5,0.00146260485053062,0.001016));
#1208=CARTESIAN_POINT('',(0.,0.,0.));
#1209=CARTESIAN_POINT('',(-0.0379257835447788,-0.0100921792909503,0.004826));
#1210=CARTESIAN_POINT('',(-0.0379257835447788,-0.0100921792909503,0.001016));
#1211=CARTESIAN_POINT('',(-0.0420454107224942,-0.0100921792909503,0.001016));
#1212=CARTESIAN_POINT('',(-0.0338061563670635,-0.0100921792909503,0.001016));
#1213=CARTESIAN_POINT('',(-0.0420454107224942,-0.0100921792909503,0.004826));
#1214=CARTESIAN_POINT('',(-0.0420454107224942,-0.0100921792909503,0.004826));
#1215=CARTESIAN_POINT('',(-0.0379257835447788,-0.0100921792909503,0.004826));
#1216=CARTESIAN_POINT('',(-0.0338061563670635,-0.0100921792909503,0.004826));
#1217=CARTESIAN_POINT('',(-0.0338061563670635,-0.0100921792909503,0.004826));
#1218=CARTESIAN_POINT('',(-0.0420454107224942,-0.0140410442836583,0.004826));
#1219=CARTESIAN_POINT('',(-0.0420454107224942,-0.0140410442836583,0.001016));
#1220=CARTESIAN_POINT('',(-0.0420454107224942,-0.0179899092763663,0.001016));
#1221=CARTESIAN_POINT('',(-0.0420454107224942,-0.0179899092763663,0.004826));
#1222=CARTESIAN_POINT('',(-0.0420454107224942,-0.0179899092763663,0.004826));
#1223=CARTESIAN_POINT('',(-0.0420454107224942,-0.0140410442836583,0.004826));
#1224=CARTESIAN_POINT('',(-0.0379257835447788,-0.0179899092763663,0.004826));
#1225=CARTESIAN_POINT('',(-0.0379257835447788,-0.0179899092763663,0.001016));
#1226=CARTESIAN_POINT('',(-0.0338061563670635,-0.0179899092763663,0.001016));
#1227=CARTESIAN_POINT('',(-0.0338061563670635,-0.0179899092763663,0.004826));
#1228=CARTESIAN_POINT('',(-0.0338061563670635,-0.0179899092763663,0.004826));
#1229=CARTESIAN_POINT('',(-0.0379257835447788,-0.0179899092763663,0.004826));
#1230=CARTESIAN_POINT('',(-0.0370688661932946,-0.0130751747637987,0.004826));
#1231=CARTESIAN_POINT('',(-0.0370688661932946,-0.0130751747637987,0.004826));
#1232=CARTESIAN_POINT('',(-0.0355465733243462,-0.0130751747637987,0.004826));
#1233=CARTESIAN_POINT('',(-0.0370688661932946,-0.0130751747637987,0.001016));
#1234=CARTESIAN_POINT('',(-0.0355465733243462,-0.0130751747637987,0.001016));
#1235=CARTESIAN_POINT('',(-0.0338061563670635,-0.0140410442836583,0.004826));
#1236=CARTESIAN_POINT('',(-0.0338061563670635,-0.0140410442836583,0.001016));
#1237=CARTESIAN_POINT('',(-0.0338061563670635,-0.0140410442836583,0.004826));
#1238=CARTESIAN_POINT('',(-6.00144267082214E-5,0.00146260485053062,0.004826));
#1239=CARTESIAN_POINT('',(-6.00144267082214E-5,0.00146260485053062,0.001016));
#1240=CARTESIAN_POINT('',(0.,0.,0.));
#1241=CARTESIAN_POINT('',(0.,0.,0.));
#1242=CARTESIAN_POINT('',(0.,0.,0.));
#1243=CARTESIAN_POINT('',(0.0348400585353374,-0.0144466012716293,0.004826));
#1244=CARTESIAN_POINT('',(0.0348400585353374,-0.0144466012716293,0.001016));
#1245=CARTESIAN_POINT('',(0.0348400585353374,-0.0180325973778963,0.001016));
#1246=CARTESIAN_POINT('',(0.0348400585353374,-0.0108606051653624,0.001016));
#1247=CARTESIAN_POINT('',(0.0348400585353374,-0.0180325973778963,0.004826));
#1248=CARTESIAN_POINT('',(0.0348400585353374,-0.0180325973778963,0.004826));
#1249=CARTESIAN_POINT('',(0.0348400585353374,-0.0144466012716293,0.004826));
#1250=CARTESIAN_POINT('',(0.0348400585353374,-0.0108606051653624,0.004826));
#1251=CARTESIAN_POINT('',(0.0348400585353374,-0.0108606051653624,0.004826));
#1252=CARTESIAN_POINT('',(0.0383833646774292,-0.0180325973778963,0.004826));
#1253=CARTESIAN_POINT('',(0.0383833646774292,-0.0180325973778963,0.001016));
#1254=CARTESIAN_POINT('',(0.041926670819521,-0.0180325973778963,0.001016));
#1255=CARTESIAN_POINT('',(0.041926670819521,-0.0180325973778963,0.004826));
#1256=CARTESIAN_POINT('',(0.041926670819521,-0.0180325973778963,0.004826));
#1257=CARTESIAN_POINT('',(0.0383833646774292,-0.0180325973778963,0.004826));
#1258=CARTESIAN_POINT('',(0.041926670819521,-0.0144466012716293,0.004826));
#1259=CARTESIAN_POINT('',(0.041926670819521,-0.0144466012716293,0.001016));
#1260=CARTESIAN_POINT('',(0.041926670819521,-0.0108606051653624,0.001016));
#1261=CARTESIAN_POINT('',(0.041926670819521,-0.0108606051653624,0.004826));
#1262=CARTESIAN_POINT('',(0.041926670819521,-0.0108606051653624,0.004826));
#1263=CARTESIAN_POINT('',(0.041926670819521,-0.0144466012716293,0.004826));
#1264=CARTESIAN_POINT('',(0.0383833646774292,-0.0108606051653624,0.004826));
#1265=CARTESIAN_POINT('',(0.0383833646774292,-0.0108606051653624,0.001016));
#1266=CARTESIAN_POINT('',(0.0383833646774292,-0.0108606051653624,0.004826));
#1267=CARTESIAN_POINT('',(0.0379006899893284,-0.0131324408575892,0.004826));
#1268=CARTESIAN_POINT('',(0.0379006899893284,-0.0131324408575892,0.004826));
#1269=CARTESIAN_POINT('',(0.0394229828582767,-0.0131324408575892,0.004826));
#1270=CARTESIAN_POINT('',(0.0379006899893284,-0.0131324408575892,0.001016));
#1271=CARTESIAN_POINT('',(0.0394229828582767,-0.0131324408575892,0.001016));
#1272=CARTESIAN_POINT('',(-6.00144267082214E-5,0.00146260485053062,0.004826));
#1273=CARTESIAN_POINT('',(-6.00144267082214E-5,0.00146260485053062,0.001016));
#1274=CARTESIAN_POINT('',(0.,0.,0.));
#1275=CARTESIAN_POINT('',(-0.000129155814647737,0.0206856671720743,-0.00127));
#1276=CARTESIAN_POINT('',(-0.000129155814647737,0.0206856671720743,0.00254));
#1277=CARTESIAN_POINT('',(-0.0418972745537758,0.0206856671720743,0.00254));
#1278=CARTESIAN_POINT('',(0.0416389629244804,0.0206856671720743,0.00254));
#1279=CARTESIAN_POINT('',(0.0416389629244804,0.0206856671720743,-0.00127));
#1280=CARTESIAN_POINT('',(0.0416389629244804,0.0206856671720743,-0.00127));
#1281=CARTESIAN_POINT('',(-0.000129155814647737,0.0206856671720743,-0.00127));
#1282=CARTESIAN_POINT('',(-0.0418972745537758,0.0206856671720743,-0.00127));
#1283=CARTESIAN_POINT('',(-0.0418972745537758,0.0206856671720743,-0.00127));
#1284=CARTESIAN_POINT('',(-0.0418972745537758,0.00146026164293289,-0.00127));
#1285=CARTESIAN_POINT('',(-0.0418972745537758,0.00146026164293289,0.00254));
#1286=CARTESIAN_POINT('',(-0.0418972745537758,-0.0177651438862086,0.00254));
#1287=CARTESIAN_POINT('',(-0.0418972745537758,0.00146026164293289,-0.00127));
#1288=CARTESIAN_POINT('',(-0.0418972745537758,-0.0177651438862086,-0.00127));
#1289=CARTESIAN_POINT('',(-0.0418972745537758,-0.0177651438862086,-0.00127));
#1290=CARTESIAN_POINT('',(-0.000129155814647737,-0.0177651438862086,-0.00127));
#1291=CARTESIAN_POINT('',(-0.000129155814647737,-0.0177651438862086,0.00254));
#1292=CARTESIAN_POINT('',(0.0416389629244804,-0.0177651438862086,0.00254));
#1293=CARTESIAN_POINT('',(-0.000129155814647737,-0.0177651438862086,-0.00127));
#1294=CARTESIAN_POINT('',(0.0416389629244804,-0.0177651438862086,-0.00127));
#1295=CARTESIAN_POINT('',(0.0416389629244804,-0.0177651438862086,-0.00127));
#1296=CARTESIAN_POINT('',(0.0416389629244804,0.00146026164293289,-0.00127));
#1297=CARTESIAN_POINT('',(0.0416389629244804,0.00146026164293289,0.00254));
#1298=CARTESIAN_POINT('',(0.0416389629244804,0.00146026164293289,-0.00127));
#1299=CARTESIAN_POINT('',(-0.000129155814647737,0.00146026164293289,-0.00127));
#1300=CARTESIAN_POINT('',(-0.000129155814647737,0.00146026164293289,0.00254));
#1301=CARTESIAN_POINT('',(0.,0.,0.));
#1302=CARTESIAN_POINT('',(-0.000129155814647737,0.0206856671720743,0.00127));
#1303=CARTESIAN_POINT('',(-0.000129155814647737,0.0206856671720743,0.));
#1304=CARTESIAN_POINT('',(-0.0418972745537758,0.0206856671720743,0.));
#1305=CARTESIAN_POINT('',(0.0416389629244804,0.0206856671720743,0.));
#1306=CARTESIAN_POINT('',(-0.0418972745537758,0.0206856671720743,0.00127));
#1307=CARTESIAN_POINT('',(-0.0418972745537758,0.0206856671720743,0.00127));
#1308=CARTESIAN_POINT('',(-0.000129155814647737,0.0206856671720743,0.00127));
#1309=CARTESIAN_POINT('',(0.0416389629244804,0.0206856671720743,0.00127));
#1310=CARTESIAN_POINT('',(0.0416389629244804,0.0206856671720743,0.00127));
#1311=CARTESIAN_POINT('',(-0.0418972745537758,0.00146026164293289,0.00127));
#1312=CARTESIAN_POINT('',(-0.0418972745537758,0.00146026164293289,0.));
#1313=CARTESIAN_POINT('',(-0.0418972745537758,-0.0177651438862086,0.));
#1314=CARTESIAN_POINT('',(-0.0418972745537758,-0.0177651438862086,0.00127));
#1315=CARTESIAN_POINT('',(-0.0418972745537758,-0.0177651438862086,0.00127));
#1316=CARTESIAN_POINT('',(-0.0418972745537758,0.00146026164293289,0.00127));
#1317=CARTESIAN_POINT('',(-0.000129155814647737,-0.0177651438862086,0.00127));
#1318=CARTESIAN_POINT('',(-0.000129155814647737,-0.0177651438862086,0.));
#1319=CARTESIAN_POINT('',(0.0416389629244804,-0.0177651438862086,0.));
#1320=CARTESIAN_POINT('',(0.0416389629244804,-0.0177651438862086,0.00127));
#1321=CARTESIAN_POINT('',(0.0416389629244804,-0.0177651438862086,0.00127));
#1322=CARTESIAN_POINT('',(-0.000129155814647737,-0.0177651438862086,0.00127));
#1323=CARTESIAN_POINT('',(0.0416389629244804,0.00146026164293289,0.00127));
#1324=CARTESIAN_POINT('',(0.0416389629244804,0.00146026164293289,0.));
#1325=CARTESIAN_POINT('',(0.0416389629244804,0.00146026164293289,0.00127));
#1326=CARTESIAN_POINT('',(-0.000129155814647737,0.00146026164293289,0.00127));
#1327=CARTESIAN_POINT('',(-0.000129155814647737,0.00146026164293289,0.));
#1328=CARTESIAN_POINT('',(0.,0.,0.));
#1329=CARTESIAN_POINT('',(0.,0.,0.));
#1330=CARTESIAN_POINT('',(-0.0450413972139359,0.00156879425048828,-0.000127));
#1331=CARTESIAN_POINT('',(-0.0450413972139359,0.00156879425048828,-0.002667));
#1332=CARTESIAN_POINT('',(-0.0450413972139359,-0.0204425118863583,-0.002667));
#1333=CARTESIAN_POINT('',(-0.0450413972139359,0.0235801003873349,-0.002667));
#1334=CARTESIAN_POINT('',(-0.0450413972139359,-0.0204425118863583,-0.000127));
#1335=CARTESIAN_POINT('',(-0.0450413972139359,-0.0204425118863583,-0.000127));
#1336=CARTESIAN_POINT('',(-0.0450413972139359,0.00156879425048828,-0.000127));
#1337=CARTESIAN_POINT('',(-0.0450413972139359,0.0235801003873349,-0.000127));
#1338=CARTESIAN_POINT('',(-0.0450413972139359,0.0235801003873349,-0.000127));
#1339=CARTESIAN_POINT('',(0.000234145671129226,-0.0204425118863583,-0.000127));
#1340=CARTESIAN_POINT('',(0.000234145671129226,-0.0204425118863583,-0.002667));
#1341=CARTESIAN_POINT('',(0.0455096885561943,-0.0204425118863583,-0.002667));
#1342=CARTESIAN_POINT('',(0.0455096885561943,-0.0204425118863583,-0.000127));
#1343=CARTESIAN_POINT('',(0.0455096885561943,-0.0204425118863583,-0.000127));
#1344=CARTESIAN_POINT('',(0.000234145671129226,-0.0204425118863583,-0.000127));
#1345=CARTESIAN_POINT('',(0.0455096885561943,0.00156879425048828,-0.000127));
#1346=CARTESIAN_POINT('',(0.0455096885561943,0.00156879425048828,-0.002667));
#1347=CARTESIAN_POINT('',(0.0455096885561943,0.0235801003873349,-0.002667));
#1348=CARTESIAN_POINT('',(0.0455096885561943,0.0235801003873349,-0.000127));
#1349=CARTESIAN_POINT('',(0.0455096885561943,0.0235801003873349,-0.000127));
#1350=CARTESIAN_POINT('',(0.0455096885561943,0.00156879425048828,-0.000127));
#1351=CARTESIAN_POINT('',(0.000234145671129226,0.0235801003873349,-0.000127));
#1352=CARTESIAN_POINT('',(0.000234145671129226,0.0235801003873349,-0.002667));
#1353=CARTESIAN_POINT('',(0.000234145671129226,0.0235801003873349,-0.000127));
#1354=CARTESIAN_POINT('',(0.000234145671129226,0.00156879425048828,-0.000127));
#1355=CARTESIAN_POINT('',(0.000234145671129226,0.00156879425048828,-0.002667));
#1356=CARTESIAN_POINT('',(0.,0.,0.));
#1357=CARTESIAN_POINT('',(0.,0.,0.));
#1358=CARTESIAN_POINT('',(0.0380212236195802,0.0209578070789576,0.004826));
#1359=CARTESIAN_POINT('',(0.0380212236195802,0.0209578070789576,0.001016));
#1360=CARTESIAN_POINT('',(0.0340937040746212,0.0209578070789576,0.001016));
#1361=CARTESIAN_POINT('',(0.0419487431645394,0.0209578070789576,0.001016));
#1362=CARTESIAN_POINT('',(0.0340937040746212,0.0209578070789576,0.004826));
#1363=CARTESIAN_POINT('',(0.0340937040746212,0.0209578070789576,0.004826));
#1364=CARTESIAN_POINT('',(0.0380212236195802,0.0209578070789576,0.004826));
#1365=CARTESIAN_POINT('',(0.0419487431645394,0.0209578070789576,0.004826));
#1366=CARTESIAN_POINT('',(0.0419487431645394,0.0209578070789576,0.004826));
#1367=CARTESIAN_POINT('',(0.0340937040746212,0.0175212272442878,0.004826));
#1368=CARTESIAN_POINT('',(0.0340937040746212,0.0175212272442878,0.001016));
#1369=CARTESIAN_POINT('',(0.0340937040746212,0.0140846474096179,0.001016));
#1370=CARTESIAN_POINT('',(0.0340937040746212,0.0140846474096179,0.004826));
#1371=CARTESIAN_POINT('',(0.0340937040746212,0.0140846474096179,0.004826));
#1372=CARTESIAN_POINT('',(0.0340937040746212,0.0175212272442878,0.004826));
#1373=CARTESIAN_POINT('',(0.0380212236195802,0.0140846474096179,0.004826));
#1374=CARTESIAN_POINT('',(0.0380212236195802,0.0140846474096179,0.001016));
#1375=CARTESIAN_POINT('',(0.0419487431645394,0.0140846474096179,0.001016));
#1376=CARTESIAN_POINT('',(0.0419487431645394,0.0140846474096179,0.004826));
#1377=CARTESIAN_POINT('',(0.0419487431645394,0.0140846474096179,0.004826));
#1378=CARTESIAN_POINT('',(0.0380212236195802,0.0140846474096179,0.004826));
#1379=CARTESIAN_POINT('',(0.0379156433045864,0.0169055759906769,0.004826));
#1380=CARTESIAN_POINT('',(0.0379156433045864,0.0169055759906769,0.004826));
#1381=CARTESIAN_POINT('',(0.0394379361735347,0.0169055759906769,0.004826));
#1382=CARTESIAN_POINT('',(0.0379156433045864,0.0169055759906769,0.001016));
#1383=CARTESIAN_POINT('',(0.0394379361735347,0.0169055759906769,0.001016));
#1384=CARTESIAN_POINT('',(0.0419487431645394,0.0175212272442878,0.004826));
#1385=CARTESIAN_POINT('',(0.0419487431645394,0.0175212272442878,0.001016));
#1386=CARTESIAN_POINT('',(0.0419487431645394,0.0175212272442878,0.004826));
#1387=CARTESIAN_POINT('',(-6.00144267082214E-5,0.00146260485053062,0.004826));
#1388=CARTESIAN_POINT('',(-6.00144267082214E-5,0.00146260485053062,0.001016));
#1389=CARTESIAN_POINT('',(0.,0.,0.));
#1390=CARTESIAN_POINT('',(0.,0.,0.));
#1391=CARTESIAN_POINT('',(0.,0.,0.));
#1392=CARTESIAN_POINT('',(0.,0.,0.));
#1393=MECHANICAL_DESIGN_GEOMETRIC_PRESENTATION_REPRESENTATION('',(#811,
#812,#813,#814,#815,#816,#817),#1394);
#1394=(
GEOMETRIC_REPRESENTATION_CONTEXT(3)
GLOBAL_UNCERTAINTY_ASSIGNED_CONTEXT((#1402))
GLOBAL_UNIT_ASSIGNED_CONTEXT((#1412,#1411,#1410))
REPRESENTATION_CONTEXT('Assembly 1 Copy 1','TOP_LEVEL_ASSEMBLY_PART')
);
#1395=(
GEOMETRIC_REPRESENTATION_CONTEXT(3)
GLOBAL_UNCERTAINTY_ASSIGNED_CONTEXT((#1403))
GLOBAL_UNIT_ASSIGNED_CONTEXT((#1412,#1411,#1410))
REPRESENTATION_CONTEXT('Part 1','COMPONENT_PART')
);
#1396=(
GEOMETRIC_REPRESENTATION_CONTEXT(3)
GLOBAL_UNCERTAINTY_ASSIGNED_CONTEXT((#1404))
GLOBAL_UNIT_ASSIGNED_CONTEXT((#1412,#1411,#1410))
REPRESENTATION_CONTEXT('Part 2','COMPONENT_PART')
);
#1397=(
GEOMETRIC_REPRESENTATION_CONTEXT(3)
GLOBAL_UNCERTAINTY_ASSIGNED_CONTEXT((#1405))
GLOBAL_UNIT_ASSIGNED_CONTEXT((#1412,#1411,#1410))
REPRESENTATION_CONTEXT('Part 3','COMPONENT_PART')
);
#1398=(
GEOMETRIC_REPRESENTATION_CONTEXT(3)
GLOBAL_UNCERTAINTY_ASSIGNED_CONTEXT((#1406))
GLOBAL_UNIT_ASSIGNED_CONTEXT((#1412,#1411,#1410))
REPRESENTATION_CONTEXT('Part 8','COMPONENT_PART')
);
#1399=(
GEOMETRIC_REPRESENTATION_CONTEXT(3)
GLOBAL_UNCERTAINTY_ASSIGNED_CONTEXT((#1407))
GLOBAL_UNIT_ASSIGNED_CONTEXT((#1412,#1411,#1410))
REPRESENTATION_CONTEXT('Part 5','COMPONENT_PART')
);
#1400=(
GEOMETRIC_REPRESENTATION_CONTEXT(3)
GLOBAL_UNCERTAINTY_ASSIGNED_CONTEXT((#1408))
GLOBAL_UNIT_ASSIGNED_CONTEXT((#1412,#1411,#1410))
REPRESENTATION_CONTEXT('Part 9','COMPONENT_PART')
);
#1401=(
GEOMETRIC_REPRESENTATION_CONTEXT(3)
GLOBAL_UNCERTAINTY_ASSIGNED_CONTEXT((#1409))
GLOBAL_UNIT_ASSIGNED_CONTEXT((#1412,#1411,#1410))
REPRESENTATION_CONTEXT('Part 4','COMPONENT_PART')
);
#1402=UNCERTAINTY_MEASURE_WITH_UNIT(LENGTH_MEASURE(1.E-8),#1412,
'DISTANCE_ACCURACY_VALUE','Maximum Tolerance applied to model');
#1403=UNCERTAINTY_MEASURE_WITH_UNIT(LENGTH_MEASURE(1.E-8),#1412,
'DISTANCE_ACCURACY_VALUE','Maximum Tolerance applied to model');
#1404=UNCERTAINTY_MEASURE_WITH_UNIT(LENGTH_MEASURE(1.E-8),#1412,
'DISTANCE_ACCURACY_VALUE','Maximum Tolerance applied to model');
#1405=UNCERTAINTY_MEASURE_WITH_UNIT(LENGTH_MEASURE(1.E-8),#1412,
'DISTANCE_ACCURACY_VALUE','Maximum Tolerance applied to model');
#1406=UNCERTAINTY_MEASURE_WITH_UNIT(LENGTH_MEASURE(1.E-8),#1412,
'DISTANCE_ACCURACY_VALUE','Maximum Tolerance applied to model');
#1407=UNCERTAINTY_MEASURE_WITH_UNIT(LENGTH_MEASURE(1.E-8),#1412,
'DISTANCE_ACCURACY_VALUE','Maximum Tolerance applied to model');
#1408=UNCERTAINTY_MEASURE_WITH_UNIT(LENGTH_MEASURE(1.E-8),#1412,
'DISTANCE_ACCURACY_VALUE','Maximum Tolerance applied to model');
#1409=UNCERTAINTY_MEASURE_WITH_UNIT(LENGTH_MEASURE(1.E-8),#1412,
'DISTANCE_ACCURACY_VALUE','Maximum Tolerance applied to model');
#1410=(
NAMED_UNIT(*)
SI_UNIT($,.STERADIAN.)
SOLID_ANGLE_UNIT()
);
#1411=(
NAMED_UNIT(*)
PLANE_ANGLE_UNIT()
SI_UNIT($,.RADIAN.)
);
#1412=(
LENGTH_UNIT()
NAMED_UNIT(*)
SI_UNIT($,.METRE.)
);
#1413=PRODUCT_DEFINITION_SHAPE('','',#1435);
#1414=PRODUCT_DEFINITION_SHAPE('','',#1436);
#1415=PRODUCT_DEFINITION_SHAPE(' ','NAUO PRDDFN',#24);
#1416=PRODUCT_DEFINITION_SHAPE('','',#1437);
#1417=PRODUCT_DEFINITION_SHAPE(' ','NAUO PRDDFN',#25);
#1418=PRODUCT_DEFINITION_SHAPE(' ','NAUO PRDDFN',#26);
#1419=PRODUCT_DEFINITION_SHAPE(' ','NAUO PRDDFN',#27);
#1420=PRODUCT_DEFINITION_SHAPE('','',#1438);
#1421=PRODUCT_DEFINITION_SHAPE(' ','NAUO PRDDFN',#28);
#1422=PRODUCT_DEFINITION_SHAPE('','',#1439);
#1423=PRODUCT_DEFINITION_SHAPE(' ','NAUO PRDDFN',#29);
#1424=PRODUCT_DEFINITION_SHAPE('','',#1440);
#1425=PRODUCT_DEFINITION_SHAPE(' ','NAUO PRDDFN',#30);
#1426=PRODUCT_DEFINITION_SHAPE(' ','NAUO PRDDFN',#31);
#1427=PRODUCT_DEFINITION_SHAPE('','',#1441);
#1428=PRODUCT_DEFINITION_SHAPE(' ','NAUO PRDDFN',#32);
#1429=PRODUCT_DEFINITION_SHAPE(' ','NAUO PRDDFN',#33);
#1430=PRODUCT_DEFINITION_SHAPE('','',#1442);
#1431=PRODUCT_DEFINITION_SHAPE(' ','NAUO PRDDFN',#34);
#1432=PRODUCT_DEFINITION_SHAPE(' ','NAUO PRDDFN',#35);
#1433=PRODUCT_DEFINITION_SHAPE(' ','NAUO PRDDFN',#36);
#1434=PRODUCT_DEFINITION_SHAPE(' ','NAUO PRDDFN',#37);
#1435=PRODUCT_DEFINITION('','',#1451,#1443);
#1436=PRODUCT_DEFINITION('','',#1452,#1444);
#1437=PRODUCT_DEFINITION('','',#1453,#1445);
#1438=PRODUCT_DEFINITION('','',#1454,#1446);
#1439=PRODUCT_DEFINITION('','',#1455,#1447);
#1440=PRODUCT_DEFINITION('','',#1456,#1448);
#1441=PRODUCT_DEFINITION('','',#1457,#1449);
#1442=PRODUCT_DEFINITION('','',#1458,#1450);
#1443=PRODUCT_DEFINITION_CONTEXT('',#1492,'design');
#1444=PRODUCT_DEFINITION_CONTEXT('',#1492,'design');
#1445=PRODUCT_DEFINITION_CONTEXT('',#1492,'design');
#1446=PRODUCT_DEFINITION_CONTEXT('',#1492,'design');
#1447=PRODUCT_DEFINITION_CONTEXT('',#1492,'design');
#1448=PRODUCT_DEFINITION_CONTEXT('',#1492,'design');
#1449=PRODUCT_DEFINITION_CONTEXT('',#1492,'design');
#1450=PRODUCT_DEFINITION_CONTEXT('',#1492,'design');
#1451=PRODUCT_DEFINITION_FORMATION_WITH_SPECIFIED_SOURCE('','',#1467,
 .NOT_KNOWN.);
#1452=PRODUCT_DEFINITION_FORMATION_WITH_SPECIFIED_SOURCE('','',#1468,
 .NOT_KNOWN.);
#1453=PRODUCT_DEFINITION_FORMATION_WITH_SPECIFIED_SOURCE('','',#1469,
 .NOT_KNOWN.);
#1454=PRODUCT_DEFINITION_FORMATION_WITH_SPECIFIED_SOURCE('','',#1470,
 .NOT_KNOWN.);
#1455=PRODUCT_DEFINITION_FORMATION_WITH_SPECIFIED_SOURCE('','',#1471,
 .NOT_KNOWN.);
#1456=PRODUCT_DEFINITION_FORMATION_WITH_SPECIFIED_SOURCE('','',#1472,
 .NOT_KNOWN.);
#1457=PRODUCT_DEFINITION_FORMATION_WITH_SPECIFIED_SOURCE('','',#1473,
 .NOT_KNOWN.);
#1458=PRODUCT_DEFINITION_FORMATION_WITH_SPECIFIED_SOURCE('','',#1474,
 .NOT_KNOWN.);
#1459=PRODUCT_RELATED_PRODUCT_CATEGORY('','',(#1467));
#1460=PRODUCT_RELATED_PRODUCT_CATEGORY('','',(#1468));
#1461=PRODUCT_RELATED_PRODUCT_CATEGORY('','',(#1469));
#1462=PRODUCT_RELATED_PRODUCT_CATEGORY('','',(#1470));
#1463=PRODUCT_RELATED_PRODUCT_CATEGORY('','',(#1471));
#1464=PRODUCT_RELATED_PRODUCT_CATEGORY('','',(#1472));
#1465=PRODUCT_RELATED_PRODUCT_CATEGORY('','',(#1473));
#1466=PRODUCT_RELATED_PRODUCT_CATEGORY('','',(#1474));
#1467=PRODUCT('Assembly 1 Copy 1','Assembly 1 Copy 1',
'Assembly 1 Copy 1',(#1483));
#1468=PRODUCT('Part 1','Part 1','Part 1',(#1484));
#1469=PRODUCT('Part 2','Part 2','Part 2',(#1485));
#1470=PRODUCT('Part 3','Part 3','Part 3',(#1486));
#1471=PRODUCT('Part 8','Part 8','Part 8',(#1487));
#1472=PRODUCT('Part 5','Part 5','Part 5',(#1488));
#1473=PRODUCT('Part 9','Part 9','Part 9',(#1489));
#1474=PRODUCT('Part 4','Part 4','Part 4',(#1490));
#1475=PRODUCT_CATEGORY('','');
#1476=PRODUCT_CATEGORY('','');
#1477=PRODUCT_CATEGORY('','');
#1478=PRODUCT_CATEGORY('','');
#1479=PRODUCT_CATEGORY('','');
#1480=PRODUCT_CATEGORY('','');
#1481=PRODUCT_CATEGORY('','');
#1482=PRODUCT_CATEGORY('','');
#1483=PRODUCT_CONTEXT('',#1492,'mechanical');
#1484=PRODUCT_CONTEXT('',#1492,'mechanical');
#1485=PRODUCT_CONTEXT('',#1492,'mechanical');
#1486=PRODUCT_CONTEXT('',#1492,'mechanical');
#1487=PRODUCT_CONTEXT('',#1492,'mechanical');
#1488=PRODUCT_CONTEXT('',#1492,'mechanical');
#1489=PRODUCT_CONTEXT('',#1492,'mechanical');
#1490=PRODUCT_CONTEXT('',#1492,'mechanical');
#1491=APPLICATION_PROTOCOL_DEFINITION('international standard',
'ap242_managed_model_based_3d_engineering',2020,#1492);
#1492=APPLICATION_CONTEXT('managed model based 3d engineering');
ENDSEC;
END-ISO-10303-21;
