M48
; DRILL file KiCad 10.0.6 date 2026-09-13T20:17:20
; FORMAT={-:-/ absolute / metric / decimal}
; #@! TF.CreationDate,2026-09-13T20:17:20-06:00
; #@! TF.GenerationSoftware,Kicad,Pcbnew,10.0.6
; #@! TF.FileFunction,Plated,1,2,PTH
FMAT,2
METRIC
; #@! TA.AperFunction,Plated,PTH,ViaDrill
T1C0.300
; #@! TA.AperFunction,Plated,PTH,ComponentDrill
T2C0.600
; #@! TA.AperFunction,Plated,PTH,ComponentDrill
T3C0.800
; #@! TA.AperFunction,Plated,PTH,ComponentDrill
T4C0.889
; #@! TA.AperFunction,Plated,PTH,ComponentDrill
T5C1.000
; #@! TA.AperFunction,Plated,PTH,ComponentDrill
T6C1.400
%
G90
G05
T1
X181.0Y-118.0
X181.0Y-122.0
X188.0Y-118.0
X193.0Y-116.0
X193.0Y-122.0
T3
X148.5Y-118.0
X151.0Y-118.0
X155.0Y-108.0
X155.0Y-110.5
X155.38Y-115.0
X155.38Y-117.54
X155.38Y-120.08
X155.38Y-122.62
X163.0Y-108.0
X163.0Y-110.5
X163.0Y-115.0
X163.0Y-117.54
X163.0Y-120.08
X163.0Y-122.62
X168.5Y-115.0
X168.5Y-123.0
X171.0Y-115.0
X171.0Y-123.0
X174.92Y-105.0
X182.54Y-105.0
X187.38Y-105.0
X195.0Y-105.0
T4
X127.0Y-109.0
X127.0Y-124.24
X129.54Y-109.0
X129.54Y-124.24
X132.08Y-109.0
X132.08Y-124.24
X134.62Y-109.0
X134.62Y-124.24
X137.16Y-109.0
X137.16Y-124.24
X139.7Y-109.0
X139.7Y-124.24
X142.24Y-109.0
X142.24Y-124.24
T5
X139.46Y-101.0
X142.0Y-101.0
X149.46Y-101.0
X152.0Y-101.0
X158.46Y-101.0
X161.0Y-101.0
X176.46Y-101.0
X179.0Y-101.0
X181.54Y-101.0
X187.46Y-101.0
X190.0Y-101.0
X192.54Y-101.0
T6
X197.5Y-117.0
X203.5Y-117.0
T2
G00X196.8Y-114.6
M15
G01X196.2Y-114.6
M16
G05
G00X201.8Y-119.4
M15
G01X201.2Y-119.4
M16
G05
G00X203.8Y-114.6
M15
G01X203.2Y-114.6
M16
G05
M30
